<?xml version="1.0"?>
<svg xmlns="http://www.w3.org/2000/svg" xmlns:xlink="http://www.w3.org/1999/xlink" xmlns:svgjs="http://svgjs.com/svgjs" version="1.1" width="512" height="512" x="0" y="0" viewBox="0 0 512 512" style="enable-background:new 0 0 512 512" xml:space="preserve"><g>
<g xmlns="http://www.w3.org/2000/svg">
	<g>
		<path d="M467,331h-15v-15c0-24.813-20.187-45-45-45H271v-30c14.095,0,30.95,0,45,0c8.284,0,15-6.716,15-15s-6.716-15-15-15h-15    v-30h45c24.813,0,45-20.187,45-45V45c0-24.813-20.187-45-45-45H166c-24.813,0-45,20.187-45,45v91c0,24.813,20.187,45,45,45h45v30    h-15c-8.284,0-15,6.716-15,15s6.716,15,15,15c14.05,0,30.905,0,45,0v30H105c-24.813,0-45,20.187-45,45v15H45    c-24.813,0-45,20.187-45,45v30c0,24.813,20.187,45,45,45h15v31H45c-8.284,0-15,6.716-15,15s6.716,15,15,15h60    c8.284,0,15-6.716,15-15s-6.716-15-15-15H90v-31h15c24.813,0,45-20.187,45-45v-30c0-24.813-20.187-45-45-45H90v-15    c0-8.271,6.729-15,15-15h136v30h-15c-24.813,0-45,20.187-45,45v30c0,24.813,20.187,45,45,45h15v31h-15c-8.284,0-15,6.716-15,15    s6.716,15,15,15h60c8.284,0,15-6.716,15-15s-6.716-15-15-15h-15v-31h15c24.813,0,45-20.187,45-45v-30c0-24.813-20.187-45-45-45    h-15v-30h136c8.271,0,15,6.729,15,15v15h-15c-24.813,0-45,20.187-45,45v30c0,24.813,20.187,45,45,45h15v31h-15    c-8.284,0-15,6.716-15,15s6.716,15,15,15h60c8.284,0,15-6.716,15-15s-6.716-15-15-15h-15v-31h15c24.813,0,45-20.187,45-45v-30    C512,351.187,491.813,331,467,331z M105,361c8.271,0,15,6.729,15,15v30c0,8.271-6.729,15-15,15H45c-8.271,0-15-6.729-15-15v-30    c0-8.271,6.729-15,15-15H105z M166,151c-8.271,0-15-6.729-15-15V45c0-8.271,6.729-15,15-15h180c8.271,0,15,6.729,15,15v91    c0,8.271-6.729,15-15,15C309.96,151,201.911,151,166,151z M286,361c8.271,0,15,6.729,15,15v30c0,8.271-6.729,15-15,15h-60    c-8.271,0-15-6.729-15-15v-30c0-8.271,6.729-15,15-15H286z M241,211v-30h30v30H241z M482,406c0,8.271-6.729,15-15,15h-60    c-8.271,0-15-6.729-15-15v-30c0-8.271,6.729-15,15-15h60c8.271,0,15,6.729,15,15V406z" fill="#ffffff" data-original="#000000" style=""/>
	</g>
</g>
<g xmlns="http://www.w3.org/2000/svg">
</g>
<g xmlns="http://www.w3.org/2000/svg">
</g>
<g xmlns="http://www.w3.org/2000/svg">
</g>
<g xmlns="http://www.w3.org/2000/svg">
</g>
<g xmlns="http://www.w3.org/2000/svg">
</g>
<g xmlns="http://www.w3.org/2000/svg">
</g>
<g xmlns="http://www.w3.org/2000/svg">
</g>
<g xmlns="http://www.w3.org/2000/svg">
</g>
<g xmlns="http://www.w3.org/2000/svg">
</g>
<g xmlns="http://www.w3.org/2000/svg">
</g>
<g xmlns="http://www.w3.org/2000/svg">
</g>
<g xmlns="http://www.w3.org/2000/svg">
</g>
<g xmlns="http://www.w3.org/2000/svg">
</g>
<g xmlns="http://www.w3.org/2000/svg">
</g>
<g xmlns="http://www.w3.org/2000/svg">
</g>
</g></svg>
