<svg xmlns="http://www.w3.org/2000/svg" viewBox="0 0 500 500"><g id="freepik--background-complete--inject-7"><rect y="382.4" width="500" height="0.25" style="fill:#ebebeb"></rect><rect x="416.78" y="398.49" width="33.12" height="0.25" style="fill:#ebebeb"></rect><rect x="322.53" y="401.21" width="8.69" height="0.25" style="fill:#ebebeb"></rect><rect x="396.59" y="389.21" width="19.19" height="0.25" style="fill:#ebebeb"></rect><rect x="52.46" y="390.89" width="43.19" height="0.25" style="fill:#ebebeb"></rect><rect x="104.56" y="390.89" width="6.33" height="0.25" style="fill:#ebebeb"></rect><rect x="131.47" y="395.11" width="93.68" height="0.25" style="fill:#ebebeb"></rect><path d="M237,337.8H43.91a5.71,5.71,0,0,1-5.7-5.71V60.66A5.71,5.71,0,0,1,43.91,55H237a5.71,5.71,0,0,1,5.71,5.71V332.09A5.71,5.71,0,0,1,237,337.8ZM43.91,55.2a5.46,5.46,0,0,0-5.45,5.46V332.09a5.46,5.46,0,0,0,5.45,5.46H237a5.47,5.47,0,0,0,5.46-5.46V60.66A5.47,5.47,0,0,0,237,55.2Z" style="fill:#ebebeb"></path><path d="M453.31,337.8H260.21a5.72,5.72,0,0,1-5.71-5.71V60.66A5.72,5.72,0,0,1,260.21,55h193.1A5.71,5.71,0,0,1,459,60.66V332.09A5.71,5.71,0,0,1,453.31,337.8ZM260.21,55.2a5.47,5.47,0,0,0-5.46,5.46V332.09a5.47,5.47,0,0,0,5.46,5.46h193.1a5.47,5.47,0,0,0,5.46-5.46V60.66a5.47,5.47,0,0,0-5.46-5.46Z" style="fill:#ebebeb"></path><rect x="285.11" y="222.99" width="239.84" height="78.97" transform="translate(667.51 -142.55) rotate(90)" style="fill:#f0f0f0"></rect><rect x="369.88" y="149.57" width="70.3" height="70.3" transform="translate(589.75 -220.31) rotate(90)" style="fill:#f5f5f5"></rect><rect x="369.88" y="226.18" width="70.3" height="70.3" transform="translate(666.36 -143.7) rotate(90)" style="fill:#f5f5f5"></rect><rect x="369.88" y="302.79" width="70.3" height="70.3" transform="translate(742.97 -67.09) rotate(90)" style="fill:#f5f5f5"></rect><path d="M389.47,148.64h31.12a7.29,7.29,0,0,1-7.29,7.29H396.76A7.29,7.29,0,0,1,389.47,148.64Z" style="fill:#e6e6e6"></path><path d="M389.47,225.25h31.12a7.29,7.29,0,0,1-7.29,7.29H396.76A7.29,7.29,0,0,1,389.47,225.25Z" style="fill:#e6e6e6"></path><path d="M389.47,301.86h31.12a7.29,7.29,0,0,1-7.29,7.29H396.76A7.29,7.29,0,0,1,389.47,301.86Z" style="fill:#e6e6e6"></path><rect x="225.9" y="242.76" width="239.84" height="39.44" transform="translate(608.3 -83.35) rotate(90)" style="fill:#f5f5f5"></rect><polygon points="75.72 226.93 75.72 229.1 77.11 229.1 78.25 246.11 95.15 246.11 96.29 229.1 97.68 229.1 97.68 226.93 75.72 226.93" style="fill:#e6e6e6"></polygon><path d="M81.28,184.71c1.39-10.14,15.06-13,32.42-13.4,16.51-.36,21.8-6.2,21.8-6.2s-.05,23.66-23.85,32.23C89.06,205.47,79.89,194.86,81.28,184.71Z" style="fill:#e6e6e6"></path><path d="M89.71,207.68c-.29-4.17-6.94-11.83-22.95-8.34-11.57,2.51-15.87-3.49-15.87-3.49s1.07,16.94,18.47,22C85.89,222.71,90.22,215,89.71,207.68Z" style="fill:#e6e6e6"></path><path d="M86.06,233.32a.63.63,0,0,1-.47-.22c-1.16-1.37-.21-4.66,1.1-9.2,1.69-5.84,3.79-13.1,2-18.37a73.23,73.23,0,0,0-3.44-8.14c-2.52-5.31-4.69-9.9-2.88-14.69a.62.62,0,0,1,.8-.36.61.61,0,0,1,.36.79c-1.63,4.31.34,8.47,2.83,13.73a76.16,76.16,0,0,1,3.5,8.28c1.9,5.63-.26,13.1-2,19.1-1,3.54-2.08,7.19-1.35,8.06a.62.62,0,0,1-.07.87A.6.6,0,0,1,86.06,233.32Z" style="fill:#e6e6e6"></path><rect x="278.41" y="246.11" width="70.07" height="136.29" style="fill:#f5f5f5"></rect><rect x="342.7" y="246.11" width="5.78" height="136.29" style="fill:#f0f0f0"></rect><rect x="122.48" y="250" width="161.33" height="57.67" transform="translate(406.29 557.67) rotate(180)" style="fill:#e6e6e6"></rect><path d="M189.76,382.37H120.59a1,1,0,0,1,0-2h69.17c10,0,11.33-2.91,11.33-14.5v-146a1,1,0,0,1,2,0v146C203.09,378.25,201.16,382.37,189.76,382.37Z" style="fill:#e6e6e6"></path><rect x="130.26" y="246.11" width="218.22" height="10.22" transform="translate(478.74 502.44) rotate(180)" style="fill:#f0f0f0"></rect><rect x="60.19" y="246.11" width="70.07" height="136.29" style="fill:#f5f5f5"></rect><rect x="124.48" y="246.11" width="5.78" height="136.29" style="fill:#f0f0f0"></rect><polygon points="209.12 246.11 194.01 246.11 197.68 216.69 212.8 216.69 209.12 246.11" style="fill:#f0f0f0"></polygon><polygon points="212.47 246.11 197.35 246.11 201.03 216.69 216.14 216.69 212.47 246.11" style="fill:#f5f5f5"></polygon><polygon points="214.31 231.4 199.19 231.4 201.03 216.69 216.14 216.69 214.31 231.4" style="fill:#f0f0f0"></polygon><path d="M158.76,227.88H265.69a1.48,1.48,0,0,0,1.47-1.67l-8.24-65.92a1.47,1.47,0,0,0-1.47-1.3H150.52a1.48,1.48,0,0,0-1.47,1.66l8.24,65.93A1.48,1.48,0,0,0,158.76,227.88Z" style="fill:#f0f0f0"></path><path d="M160.35,227.88H267.28a1.48,1.48,0,0,0,1.47-1.67l-8.24-65.92A1.48,1.48,0,0,0,259,159H152.11a1.48,1.48,0,0,0-1.47,1.66l8.24,65.93A1.48,1.48,0,0,0,160.35,227.88Z" style="fill:#f5f5f5"></path><path d="M265.3,224.23l-7.71-61.7a.42.42,0,0,0-.41-.36H154.5a.4.4,0,0,0-.41.46l7.71,61.71a.42.42,0,0,0,.41.36H264.89A.42.42,0,0,0,265.3,224.23Z" style="fill:#e6e6e6"></path><polygon points="254.34 224.7 227.2 162.17 203.4 162.17 230.55 224.7 254.34 224.7" style="fill:#ebebeb"></polygon><polygon points="225.96 224.7 198.82 162.17 190.25 162.17 217.39 224.7 225.96 224.7" style="fill:#ebebeb"></polygon><path d="M201.6,243.35h24.62a0,0,0,0,1,0,0v.31a2.45,2.45,0,0,1-2.45,2.45H204.05a2.45,2.45,0,0,1-2.45-2.45v-.31A0,0,0,0,1,201.6,243.35Z" transform="translate(427.82 489.46) rotate(-180)" style="fill:#f5f5f5"></path><path d="M187.75,243.35h16.7a0,0,0,0,1,0,0v.31a2.45,2.45,0,0,1-2.45,2.45H190.2a2.45,2.45,0,0,1-2.45-2.45v-.31A0,0,0,0,1,187.75,243.35Z" transform="translate(392.2 489.46) rotate(180)" style="fill:#f0f0f0"></path><polygon points="253.43 246.11 177.31 246.11 175.25 240 243.53 240 253.43 246.11" style="fill:#f5f5f5"></polygon><polygon points="185.69 246.11 173.11 246.11 171.41 240 183.98 240 185.69 246.11" style="fill:#f0f0f0"></polygon><path d="M272.69,241h11.45a5.11,5.11,0,0,1,5.11,5.11H267.58A5.11,5.11,0,0,1,272.69,241Z" style="fill:#f0f0f0"></path><rect x="86.16" y="83.64" width="111.91" height="56.15" style="fill:#e6e6e6"></rect><rect x="87.58" y="83.64" width="116.03" height="56.15" style="fill:#f0f0f0"></rect><rect x="121.94" y="58.13" width="47.3" height="107.18" transform="translate(257.31 -33.88) rotate(90)" style="fill:#fff"></rect><path d="M96.25,111.71h0a1.81,1.81,0,0,1,1.81-1.81h95.07a1.81,1.81,0,0,1,1.81,1.81h0a1.81,1.81,0,0,1-1.81,1.81H98.06A1.81,1.81,0,0,1,96.25,111.71Z" style="fill:#f5f5f5"></path></g><g id="freepik--Shadow--inject-7"><ellipse id="freepik--path--inject-7" cx="250" cy="416.24" rx="193.89" ry="11.32" style="fill:#f5f5f5"></ellipse></g><g id="freepik--Board--inject-7"><rect x="81.72" y="78.56" width="259.37" height="171.44" rx="12" transform="translate(422.8 328.56) rotate(180)" style="fill:#263238"></rect><path d="M149.77,406.84,206.64,350l1.4-1.39V180a2.26,2.26,0,0,1,2.26-2.26h2.2a2.26,2.26,0,0,1,2.26,2.26V348.58l1.39,1.39L273,406.84a1.93,1.93,0,0,1,0,2.74l-2,2a1.94,1.94,0,0,1-2.73,0l-53.51-53.51V409.9a2.26,2.26,0,0,1-2.26,2.26h-2.2A2.26,2.26,0,0,1,208,409.9V358.09L154.53,411.6a2,2,0,0,1-2.74,0l-2-2A2,2,0,0,1,149.77,406.84Z" style="fill:#263238"></path><rect x="304" y="75.06" width="7.59" height="1" style="fill:#545185"></rect><rect x="281.17" y="75.06" width="15.83" height="1" style="fill:#545185"></rect><rect x="84.16" y="78.56" width="259.37" height="171.44" rx="12" transform="translate(427.69 328.56) rotate(180)" style="fill:#545185"></rect><rect x="135.12" y="41.59" width="157.44" height="245.37" rx="5" transform="translate(378.12 -49.57) rotate(90)" style="fill:#fafafa"></rect><rect x="201.65" y="335.5" width="19.5" height="15.33" rx="3.17" transform="translate(422.8 686.33) rotate(-180)" style="fill:#545185"></rect><path d="M182.49,217.19a45,45,0,1,0-45-45A45,45,0,0,0,182.49,217.19Zm0-89.08a44.1,44.1,0,1,1-44.1,44.1A44.15,44.15,0,0,1,182.49,128.11Z" style="opacity:0.1"></path><path d="M128.8,104.82h39.61a5.32,5.32,0,0,1,5.32,5.32v73.2a5.32,5.32,0,0,1-5.32,5.32H117.72a5.32,5.32,0,0,1-5.32-5.32V121.22Z" style="fill:#545185"></path><path d="M131.13,181.34h33A2.33,2.33,0,0,0,166.4,179h0a2.32,2.32,0,0,0-2.32-2.32h-33A2.33,2.33,0,0,0,128.8,179h0A2.34,2.34,0,0,0,131.13,181.34Z" style="fill:#fff"></path><path d="M146.65,116.79h17.43a2.32,2.32,0,0,0,2.32-2.32h0a2.32,2.32,0,0,0-2.32-2.32H146.65a2.32,2.32,0,0,0-2.32,2.32h0A2.32,2.32,0,0,0,146.65,116.79Z" style="fill:#fff"></path><path d="M135.28,126h28.8a2.32,2.32,0,0,0,2.32-2.32h0a2.32,2.32,0,0,0-2.32-2.32h-28.8a2.32,2.32,0,0,0-2.32,2.32h0A2.32,2.32,0,0,0,135.28,126Z" style="fill:#fff"></path><path d="M122.05,135.23h42a2.32,2.32,0,0,0,2.32-2.32h0a2.32,2.32,0,0,0-2.32-2.32h-42a2.33,2.33,0,0,0-2.33,2.32h0A2.33,2.33,0,0,0,122.05,135.23Z" style="fill:#fff"></path><path d="M122.05,144.45h24.43a2.33,2.33,0,0,0,2.33-2.32h0a2.33,2.33,0,0,0-2.33-2.32H122.05a2.33,2.33,0,0,0-2.33,2.32h0A2.33,2.33,0,0,0,122.05,144.45Z" style="fill:#fff"></path><path d="M157.69,144.45h6.39a2.32,2.32,0,0,0,2.32-2.32h0a2.32,2.32,0,0,0-2.32-2.32h-6.39a2.32,2.32,0,0,0-2.32,2.32h0A2.32,2.32,0,0,0,157.69,144.45Z" style="fill:#fff"></path><path d="M122.05,153.67h42a2.32,2.32,0,0,0,2.32-2.32h0a2.32,2.32,0,0,0-2.32-2.32h-42a2.33,2.33,0,0,0-2.33,2.32h0A2.33,2.33,0,0,0,122.05,153.67Z" style="fill:#fff"></path><path d="M138.27,162.89h25.81a2.32,2.32,0,0,0,2.32-2.32h0a2.32,2.32,0,0,0-2.32-2.32H138.27a2.33,2.33,0,0,0-2.33,2.32h0A2.33,2.33,0,0,0,138.27,162.89Z" style="fill:#fff"></path><path d="M122.05,162.89h6.89a2.32,2.32,0,0,0,2.32-2.32h0a2.32,2.32,0,0,0-2.32-2.32h-6.89a2.33,2.33,0,0,0-2.33,2.32h0A2.33,2.33,0,0,0,122.05,162.89Z" style="fill:#fff"></path><path d="M122.05,172.11h42a2.32,2.32,0,0,0,2.32-2.32h0a2.32,2.32,0,0,0-2.32-2.32h-42a2.33,2.33,0,0,0-2.33,2.32h0A2.33,2.33,0,0,0,122.05,172.11Z" style="fill:#fff"></path><path d="M128.8,104.82V115.9a5.32,5.32,0,0,1-5.32,5.32H112.4Z" style="opacity:0.2"></path><path d="M261.67,111.53V95.69A60.7,60.7,0,0,0,231.33,209l7.92-13.72a44.86,44.86,0,0,1,22.42-83.72Z" style="fill:#263238"></path><path d="M322.37,156.4a60.72,60.72,0,0,0-60.7-60.71v15.84a44.88,44.88,0,0,1,44.87,44.87Z" style="opacity:0.2"></path><path d="M322.37,156.4H306.54a44.86,44.86,0,0,1-67.29,38.85L231.33,209a60.7,60.7,0,0,0,91-52.57Z" style="fill:#545185"></path><polygon points="176.26 199.97 195.45 175.18 214.64 199.97 205.61 199.97 205.61 232.07 185.29 232.07 185.29 199.97 176.26 199.97" style="fill:#545185"></polygon></g><g id="freepik--Character--inject-7"><polygon points="338 403.73 330.42 401.11 334.48 382.84 342.07 385.47 338 403.73" style="fill:#ff8b7b"></polygon><polygon points="334.48 382.85 332.39 392.26 339.97 394.89 342.07 385.48 334.48 382.85" style="opacity:0.2"></polygon><polygon points="410.93 408.04 402.91 408.04 396.65 389.45 404.68 389.45 410.93 408.04" style="fill:#ff8b7b"></polygon><polygon points="404.68 389.46 396.65 389.46 399.88 399.04 407.91 399.04 404.68 389.46" style="opacity:0.2"></polygon><path d="M401.84,407.11h9.78a.7.7,0,0,1,.68.55l1.59,7.14a1.17,1.17,0,0,1-1.17,1.42c-3.15-.05-5.45-.24-9.42-.24-2.44,0-9.79.26-13.16.26s-3.81-3.33-2.43-3.64c6.18-1.35,10.84-3.21,12.82-5A2,2,0,0,1,401.84,407.11Z" style="fill:#263238"></path><path d="M330.78,400.25l8.28,2.87a.7.7,0,0,1,.47.74l-.84,7.26a1.17,1.17,0,0,1-1.56,1c-3-1.08-7.23-2.75-11-4-4.39-1.52-8.27-2.6-13.42-4.38-3.11-1.08-2.89-4.53-1.48-4.36,6.38.76,11.27,2.29,17.49.91A3.72,3.72,0,0,1,330.78,400.25Z" style="fill:#263238"></path><polygon points="237.23 138.85 319.15 211.77 317.75 213.34 236.56 139.59 237.23 138.85" style="fill:#263238"></polygon><path d="M374.39,166.74c-.58,1.74-1.14,3.25-1.78,4.83s-1.28,3.11-2,4.65q-2.06,4.6-4.55,9.07a78.54,78.54,0,0,1-5.66,8.72,42.83,42.83,0,0,1-7.63,8l-1.21.9c-.41.29-.87.57-1.31.85a23.43,23.43,0,0,1-2.71,1.42,29.82,29.82,0,0,1-5.5,1.83,45.09,45.09,0,0,1-10.71,1.06,68.71,68.71,0,0,1-10.21-1c-1.66-.27-3.31-.64-4.94-1s-3.22-.81-4.92-1.37l1.34-5.87c1.45.12,3.06.24,4.59.32s3.1.09,4.64.11a75.52,75.52,0,0,0,9.09-.44,40.81,40.81,0,0,0,8.37-1.74,20,20,0,0,0,3.53-1.55,12.32,12.32,0,0,0,1.5-.94c.22-.18.44-.33.67-.52l.7-.6A36.37,36.37,0,0,0,351,187.2a81.12,81.12,0,0,0,4.52-7.68c1.4-2.69,2.71-5.46,3.95-8.27q.94-2.12,1.8-4.25c.56-1.41,1.16-2.91,1.64-4.2Z" style="fill:#ff8b7b"></path><path d="M377.65,162.8c1.72,7.47-12.1,28.49-12.1,28.49l-17.33-12.67a98.11,98.11,0,0,1,11.7-17.39C366.68,153.61,375.76,154.59,377.65,162.8Z" style="fill:#263238"></path><path d="M313.62,198.84l-8.56-1.93,1.25,10.17a7.71,7.71,0,0,0,8.51-3.34Z" style="fill:#ff8b7b"></path><polygon points="299.47 196.66 302.25 204.35 306.31 207.08 305.06 196.91 299.47 196.66" style="fill:#ff8b7b"></polygon><path d="M413.56,161.68C403.11,191.6,402.92,224,401.75,230.5c-6.24-.83-29.74-4-42.55-5.73-2.88-45.94,9.74-68.7,9.74-68.7s2.78-.37,6.54-.53c1.18,0,2.45-.08,3.77-.07.73,0,1.47,0,2.22.05A159.1,159.1,0,0,1,399.56,158c1.13.21,2.28.45,3.39.7s2,.49,3,.74C410.25,160.53,413.56,161.68,413.56,161.68Z" style="fill:#263238"></path><path d="M405.94,159.4l-3.36,2.54c-4.27,3.23-9.18,6.22-16.23,6.22-.8,0-1.62,0-2.44-.12-5.84-.58-8.07-3.42-8.92-5.71a8.67,8.67,0,0,1,.49-6.79c1.18,0,2.45-.08,3.77-.07.73,0,1.47,0,2.22.05A159.1,159.1,0,0,1,399.56,158c1.13.21,2.28.45,3.39.7S405,159.15,405.94,159.4Z" style="fill:#545185"></path><path d="M400.51,137.35c-1.92,5.67-4.5,16.18-.95,20.61-3.59,2.72-8.21,5.79-15.16,5.1s-5.09-5.28-2.93-7.54c6.7-.67,7.18-5.51,6.66-10.19Z" style="fill:#ff8b7b"></path><path d="M395.46,140.61l-7.32,4.72a19.13,19.13,0,0,1,.12,3.28c2.53,0,6.3-2.28,6.91-4.84A8.7,8.7,0,0,0,395.46,140.61Z" style="opacity:0.2"></path><path d="M385.78,114.61c-6.22-.51-8.37,14.46-4.49,17.33S397.42,115.56,385.78,114.61Z" style="fill:#263238"></path><path d="M402.38,128.69c-1.54,7.81-2.05,12.46-6.58,16-6.8,5.28-16,.36-16.86-7.76-.74-7.31,1.91-18.86,10.05-21A10.87,10.87,0,0,1,402.38,128.69Z" style="fill:#ff8b7b"></path><path d="M400.79,136.33c-3.85,2.4-7.56-18.94,3.13-18.44C417,118.51,409,131.24,400.79,136.33Z" style="fill:#263238"></path><path d="M404.12,120.94c-5.71,1.86-29.9-.59-32.9-6.58a10.89,10.89,0,0,0,5.08-.64s-5.12-1.39-5.94-6.08c9.06,4.63,28.19-1.4,35,3.74C411.05,115.62,408.56,119.5,404.12,120.94Z" style="fill:#263238"></path><path d="M406.89,119s-.33-2.32,6.4.34c-5.56-1-6.22.67-6.22.67Z" style="fill:#263238"></path><path d="M404.77,137.85a7.54,7.54,0,0,1-5.12,2.68c-2.65.22-3.47-2.26-2.32-4.5,1-2,3.67-4.55,6.12-3.72S406.33,136,404.77,137.85Z" style="fill:#ff8b7b"></path><path d="M330.15,389.53,343,394s12.58-49.59,16.52-74.29c1.2-7.51,3.88-17.91,7.12-29,4.08-14,9.05-29.08,13.08-40.89,4.26-12.44,7.45-21.23,7.45-21.23l-28-3.77s-21.31,65.33-23.71,89.71C333,339.83,330.15,389.53,330.15,389.53Z" style="fill:#545185"></path><path d="M366.64,290.66c4.08-14,9.05-29.08,13.08-40.89l-2.51-6.47C369.71,251.14,366.19,276.65,366.64,290.66Z" style="opacity:0.2"></path><path d="M374.29,226.81s-1.38,68.77.51,92.21c2.06,25.68,21.3,78.16,21.3,78.16h14.71s-9.81-48-12.82-73c-3.43-28.4,3.76-93.7,3.76-93.7Z" style="fill:#545185"></path><polygon points="394.35 397.5 411.66 397.5 411.66 392.33 392.31 391.99 394.35 397.5" style="fill:#263238"></polygon><polygon points="328.43 389.27 343.74 394.57 345.45 389.62 328.43 383.44 328.43 389.27" style="fill:#263238"></polygon><path d="M390.13,129.28c-.08.64-.49,1.11-.91,1.06s-.69-.63-.6-1.27.49-1.11.91-1.06S390.22,128.64,390.13,129.28Z" style="fill:#263238"></path><path d="M382.88,128.3c-.08.64-.49,1.12-.91,1.06s-.69-.62-.61-1.26.5-1.12.92-1.06S383,127.66,382.88,128.3Z" style="fill:#263238"></path><path d="M385.14,128.93a23,23,0,0,1-3.8,5.07,3.71,3.71,0,0,0,3,1Z" style="fill:#ff5652"></path><path d="M386.8,137.07a5.34,5.34,0,0,0,3.91-1.61.19.19,0,1,0-.29-.25,5.11,5.11,0,0,1-4.41,1.43.19.19,0,0,0-.05.38A6.1,6.1,0,0,0,386.8,137.07Z" style="fill:#263238"></path><path d="M392.69,127.24a.41.41,0,0,0,.18,0,.38.38,0,0,0,.15-.52,3.82,3.82,0,0,0-2.86-2,.38.38,0,0,0-.4.36.37.37,0,0,0,.35.4h0a3,3,0,0,1,2.24,1.58A.38.38,0,0,0,392.69,127.24Z" style="fill:#263238"></path><path d="M380.09,125.38a.37.37,0,0,0,.32-.17,3,3,0,0,1,2.36-1.41.39.39,0,0,0,.38-.38.38.38,0,0,0-.38-.38,3.75,3.75,0,0,0-3,1.75.38.38,0,0,0,.1.53A.42.42,0,0,0,380.09,125.38Z" style="fill:#263238"></path><path d="M399.18,408.52a9.76,9.76,0,0,0,2.1-.29.2.2,0,0,0,.06-.35c-.3-.18-2.88-1.77-3.77-1.32a.62.62,0,0,0-.33.54,1.17,1.17,0,0,0,.4,1A2.44,2.44,0,0,0,399.18,408.52Zm1.55-.56c-1.36.27-2.41.22-2.85-.15a.76.76,0,0,1-.26-.68.25.25,0,0,1,.12-.23C398.2,406.66,399.68,407.35,400.73,408Z" style="fill:#545185"></path><path d="M401.24,408.23a.19.19,0,0,0,.1,0,.2.2,0,0,0,.09-.17c0-.1-.2-2.42-1.14-3.18a1,1,0,0,0-.81-.24h0a.61.61,0,0,0-.6.49c-.17.9,1.44,2.66,2.27,3.11ZM399.62,405a.62.62,0,0,1,.43.17,4.49,4.49,0,0,1,.95,2.51c-.82-.63-1.85-2-1.75-2.48,0-.05,0-.17.28-.2h.09Z" style="fill:#545185"></path><path d="M329.67,401a.21.21,0,0,0,.17-.1.2.2,0,0,0,0-.22c-.28-.3-2.79-2.9-3.89-2.71a.61.61,0,0,0-.46.38h0a1.08,1.08,0,0,0,0,1c.58,1,2.85,1.48,4.16,1.66Zm-3.62-2.66c.64,0,2.08,1.2,3.08,2.19-1.77-.3-3-.8-3.32-1.38a.68.68,0,0,1,0-.65.2.2,0,0,1,.17-.15Z" style="fill:#545185"></path><path d="M329.67,401h.05a.17.17,0,0,0,.13-.14c0-.09.53-2.2-.16-3.33a1.42,1.42,0,0,0-.89-.65h0c-.52-.12-.74.08-.85.27-.43.81.81,3.08,1.59,3.81A.19.19,0,0,0,329.67,401Zm-1.16-3.79.2,0h0a1,1,0,0,1,.65.48,4.42,4.42,0,0,1,.19,2.69c-.74-.89-1.52-2.6-1.26-3.09C328.3,397.33,328.35,397.25,328.51,397.25Zm.24-.15Z" style="fill:#545185"></path><path d="M415.07,166.27c.79,1.45,1.44,2.73,2.08,4.11s1.26,2.73,1.87,4.1c1.18,2.76,2.28,5.57,3.25,8.43s1.83,5.8,2.56,8.79l.51,2.27.42,2.31c.15.76.24,1.56.35,2.35l.15,1.18,0,.29.05.49c0,.38,0,.71,0,1a16.53,16.53,0,0,1-1.43,6.09,35.23,35.23,0,0,1-2.29,4.47,69.94,69.94,0,0,1-5.32,7.55,114.56,114.56,0,0,1-12.23,13l-4.48-4c3.21-4.63,6.39-9.41,9.25-14.14a76.71,76.71,0,0,0,3.85-7.12,26.16,26.16,0,0,0,1.33-3.38,6.52,6.52,0,0,0,.39-2.32s0-.05,0,0,0,.06,0-.05l-.05-.23-.21-1c-.14-.63-.26-1.26-.44-1.9l-.5-1.92-.57-1.92c-.8-2.56-1.69-5.13-2.69-7.69s-2.06-5.1-3.18-7.63c-.56-1.27-1.12-2.53-1.71-3.78L404.32,172Z" style="fill:#ff8b7b"></path><path d="M413.56,161.68c7.17,2.73,12,20.06,12,20.06l-14.82,14.8s-6.4-12.83-9-22.4C398.93,163.71,404.87,158.38,413.56,161.68Z" style="fill:#263238"></path><path d="M402.39,227.51l-7.73,2.55,7,7.51s6.1-3.64,4.54-7.09Z" style="fill:#ff8b7b"></path><polygon points="390.9 235.62 396.97 241.55 401.64 237.57 394.65 230.06 390.9 235.62" style="fill:#ff8b7b"></polygon></g></svg>