<svg id="Layer_1" enable-background="new 0 0 510 510" height="512" viewBox="0 0 510 510" width="512" xmlns="http://www.w3.org/2000/svg"><g><path d="m507.803 352.279-64.4-64.4c34.265-45.764 25.708-111.837-21.206-146.965v-140.914h-345c-41.355 0-75 33.645-75 75v375c0 33.084 26.916 60 60 60h360v-30h-30v-60h30c0-3.642 0-98.966 0-110.901l64.394 64.394zm-95.459-74.246c-29.242 29.242-76.824 29.242-106.066 0-29.242-29.243-29.242-76.823 0-106.066 29.241-29.241 76.823-29.243 106.066 0 29.242 29.243 29.242 76.823 0 106.066zm-350.147 111.967c-10.925 0-21.168 2.949-30 8.072v-188.072h45v180zm15-210h-45v-30h45zm0-150v90h-45v-45c0-24.813 20.186-45 45-45zm285 450h-300c-39.809-1.653-39.778-58.362 0-60h300zm-255-90v-360h285v95.3c-104.277-33.392-184.567 94.438-107.131 173.947 28.524 28.525 70.119 37.595 107.131 25.453v65.3z"/><path d="m137.197 60h75v30h-75z"/><path d="m137.197 120h75v30h-75z"/></g></svg>