<?xml version="1.0"?>
<svg xmlns="http://www.w3.org/2000/svg" xmlns:xlink="http://www.w3.org/1999/xlink" xmlns:svgjs="http://svgjs.com/svgjs" version="1.1" width="512" height="512" x="0" y="0" viewBox="0 0 480 480" style="enable-background:new 0 0 512 512" xml:space="preserve"><g>
<g xmlns="http://www.w3.org/2000/svg">
	<g>
		<path d="M195.568,78.157c0.174-2.046,0.432-4.074,0.432-6.157c0-39.703-32.297-72-72-72s-72,32.297-72,72    c0,2.083,0.258,4.11,0.432,6.157C32.845,87.836,19.999,107.855,19.999,130v14c0,3.031,1.711,5.797,4.422,7.156    c1.133,0.563,2.359,0.844,3.578,0.844c1.695,0,3.391-0.539,4.797-1.602l32-24l-9.594-12.797l-19.156,14.359    c0.68-13.766,8.221-26.163,19.692-33.385C61.58,112.318,74.103,127.268,91.184,136H75.999h-11.93    c-10.656,0-20.148,7.156-23.078,17.406l-12.687,44.398c-0.688,2.414-0.203,5.008,1.305,7.016c1.516,2,3.883,3.18,6.391,3.18    v31.086l-8.469,36.555c-2.406,6.531-1.984,13.773,1.195,19.992c2.74,5.355,7.352,9.38,12.834,11.615l-13.03,33.877    c-0.945,2.461-0.617,5.234,0.875,7.406S33.366,352,35.999,352h32v91.056c-4.917,5.627-8,12.899-8,20.944v8c0,4.422,3.578,8,8,8h48    c4.422,0,8-3.578,8-8c0,4.422,3.578,8,8,8h48c4.422,0,8-3.578,8-8v-8c0-8.044-3.083-15.316-8-20.944V352h32    c2.633,0,5.102-1.297,6.594-3.469s1.82-4.945,0.875-7.406l-13.03-33.877c5.489-2.241,10.097-6.264,12.834-11.615    c3.18-6.219,3.602-13.461,1.195-19.992l-8.469-36.555V208c2.508,0,4.875-1.18,6.391-3.18c1.508-2.008,1.992-4.602,1.305-7.016    l-12.688-44.398c-2.93-10.25-12.422-17.406-23.078-17.406h-11.93h-15.185c17.081-8.732,29.604-23.682,35.446-41.424    c11.471,7.223,19.013,19.62,19.692,33.385l-19.156-14.359l-9.594,12.797l32,24c1.406,1.063,3.094,1.602,4.797,1.602    c1.219,0,2.445-0.281,3.578-0.844c2.711-1.359,4.422-4.125,4.422-7.156v-14C227.999,107.855,215.153,87.836,195.568,78.157z     M123.999,16c27.697,0,50.705,20.24,55.161,46.69c-11.215-3.122-20.231-11.939-23.168-23.706l-0.242-0.953    c-0.703-2.789-2.859-4.984-5.633-5.742c-2.75-0.781-5.734,0.008-7.773,2.055l-19.992,19.992C116.21,60.477,107.702,64,99.023,64    H68.638C72.542,36.91,95.847,16,123.999,16z M56.382,157.797c0.969-3.414,4.133-5.797,7.688-5.797h3.93v40H46.609L56.382,157.797z     M42.968,288.344c-1.188-2.328-1.313-4.953-0.336-7.391c0.148-0.375,0.273-0.766,0.367-1.164l8.797-37.984    c0.133-0.594,0.203-1.195,0.203-1.805v-32h16v30.506l-20.667,53.734C45.499,291.42,43.913,290.184,42.968,288.344z M75.999,464    c0-8.82,7.18-16,16-16s16,7.18,16,16H75.999z M83.999,433.136V352h16v81.136c-2.572-0.668-5.221-1.136-8-1.136    S86.571,432.467,83.999,433.136z M131.999,443.056c-4.917,5.627-8,12.899-8,20.944c0-8.044-3.083-15.316-8-20.944V352h16V443.056z     M139.999,464c0-8.82,7.18-16,16-16s16,7.18,16,16H139.999z M147.999,433.136V352h16v81.136c-2.572-0.668-5.221-1.136-8-1.136    S150.571,432.467,147.999,433.136z M179.999,152h3.93c3.555,0,6.719,2.383,7.688,5.797L201.39,192h-21.391V152z M179.999,208h16    v32c0,0.609,0.07,1.211,0.203,1.805l8.797,37.984c0.094,0.398,0.219,0.789,0.367,1.164c0.977,2.438,0.852,5.063-0.336,7.391    c-0.942,1.835-2.527,3.07-4.365,3.896l-20.667-53.733V208z M200.351,336H47.648l33.844-88h85.016L200.351,336z M163.999,152v80    h-80v-80h8v40c0,4.422,3.578,8,8,8h48c4.422,0,8-3.578,8-8v-40H163.999z M107.999,184v-25.254c5.112,2.104,10.551,3.176,16,3.176    c5.449,0,10.888-1.073,16-3.176V184H107.999z M144.991,123.891c-3.016,1.227-4.992,4.156-4.992,7.414v8.952    c-9.38,7.405-22.62,7.405-32,0v-8.952c0-3.258-1.977-6.188-4.992-7.414c-18.75-7.598-31.62-24.337-34.41-43.891h30.425    c13.086,0,25.391-5.094,34.641-14.352l11.273-11.266c7.057,13.056,19.773,22.185,34.527,24.785    C176.922,99.072,164.003,116.187,144.991,123.891z" fill="#ffffff" data-original="#000000" style=""/>
	</g>
</g>
<g xmlns="http://www.w3.org/2000/svg">
	<g>
		<path d="M459.694,197.805l-12.688-44.398c-2.93-10.25-12.422-17.406-23.078-17.406h-11.93h-15.055    c23.922-12.273,39.055-36.734,39.055-64c0-39.703-32.297-72-72-72s-72,32.297-72,72c0,27.266,15.133,51.727,39.055,64h-15.055    h-11.93c-10.656,0-20.148,7.156-23.078,17.406l-12.688,44.398c-0.688,2.414-0.203,5.008,1.305,7.016    c1.516,2,3.883,3.18,6.391,3.18v31.43l-3.398,23.766c-1.461,10.266,1.594,20.648,8.391,28.484    c4.61,5.309,10.675,8.927,17.301,10.807l-6.199,40.295c-0.359,2.313,0.313,4.656,1.836,6.43c1.516,1.773,3.734,2.789,6.07,2.789h8    v91.056c-4.917,5.627-8,12.899-8,20.944v8c0,4.422,3.578,8,8,8h48c4.422,0,8-3.578,8-8c0,4.422,3.578,8,8,8h48    c4.422,0,8-3.578,8-8v-8c0-8.044-3.083-15.316-8-20.944V352h8c2.336,0,4.555-1.016,6.07-2.789c1.523-1.773,2.195-4.117,1.836-6.43    l-6.199-40.295c6.625-1.879,12.691-5.498,17.301-10.807c6.797-7.836,9.852-18.219,8.391-28.492l-3.398-23.758V208    c2.508,0,4.875-1.18,6.391-3.18C459.898,202.813,460.382,200.219,459.694,197.805z M403.999,152v3.718l-14.984,9.985    l-10.209-10.209L389.288,152H403.999z M363.999,16c27.697,0,50.705,20.24,55.161,46.69c-11.215-3.122-20.231-11.939-23.168-23.706    l-0.242-0.953c-0.703-2.789-2.859-4.984-5.633-5.742c-2.75-0.781-5.734,0.008-7.773,2.055l-19.992,19.992    C356.21,60.477,347.702,64,339.023,64h-30.384C312.542,36.91,335.847,16,363.999,16z M308.597,80h30.425    c13.086,0,25.391-5.094,34.641-14.352l11.273-11.266c7.057,13.056,19.773,22.185,34.527,24.785    c-2.542,19.904-15.46,37.02-34.472,44.723c-3.016,1.227-4.992,4.156-4.992,7.414v6.932l-16,5.333l-16-5.333v-6.932    c0-3.258-1.977-6.188-4.992-7.414C324.257,116.293,311.387,99.553,308.597,80z M323.999,152h14.711l10.482,3.494l-10.209,10.209    l-14.984-9.985V152z M323.999,174.948l11.563,7.708c3.164,2.125,7.391,1.703,10.094-1l18.344-18.344l18.344,18.344    c1.547,1.547,3.594,2.344,5.656,2.344c1.539,0,3.086-0.438,4.438-1.344l11.563-7.708V232h-32v-56h-16v56h-32V174.948z     M307.999,239.391l-7.253,47.143c-2.91-1.154-5.566-2.921-7.669-5.338c-3.75-4.336-5.445-10.07-4.633-15.742l3.477-24.32    c0.055-0.375,0.078-0.758,0.078-1.133v-32h16V239.391z M307.999,192h-21.391l9.773-34.203c0.969-3.414,4.133-5.797,7.688-5.797    h3.93V192z M315.999,464c0-8.82,7.18-16,16-16s16,7.18,16,16H315.999z M323.999,433.136V352h16v81.136    c-2.572-0.668-5.221-1.136-8-1.136S326.571,432.467,323.999,433.136z M371.999,443.056c-4.917,5.627-8,12.899-8,20.944    c0-8.044-3.083-15.316-8-20.944V352h16V443.056z M379.999,464c0-8.82,7.18-16,16-16s16,7.18,16,16H379.999z M387.999,433.136V352    h16v81.136c-2.572-0.668-5.221-1.136-8-1.136S390.571,432.467,387.999,433.136z M371.999,336v-48h-16v48h-46.672l13.535-88h82.273    l13.535,88H371.999z M434.921,281.195c-2.103,2.417-4.759,4.184-7.669,5.338l-7.253-47.143V208h16v32    c0,0.375,0.023,0.758,0.078,1.133l3.477,24.313C440.366,271.125,438.671,276.859,434.921,281.195z M419.999,192v-40h3.93    c3.555,0,6.719,2.383,7.688,5.797L441.39,192H419.999z" fill="#ffffff" data-original="#000000" style=""/>
	</g>
</g>
<g xmlns="http://www.w3.org/2000/svg">
</g>
<g xmlns="http://www.w3.org/2000/svg">
</g>
<g xmlns="http://www.w3.org/2000/svg">
</g>
<g xmlns="http://www.w3.org/2000/svg">
</g>
<g xmlns="http://www.w3.org/2000/svg">
</g>
<g xmlns="http://www.w3.org/2000/svg">
</g>
<g xmlns="http://www.w3.org/2000/svg">
</g>
<g xmlns="http://www.w3.org/2000/svg">
</g>
<g xmlns="http://www.w3.org/2000/svg">
</g>
<g xmlns="http://www.w3.org/2000/svg">
</g>
<g xmlns="http://www.w3.org/2000/svg">
</g>
<g xmlns="http://www.w3.org/2000/svg">
</g>
<g xmlns="http://www.w3.org/2000/svg">
</g>
<g xmlns="http://www.w3.org/2000/svg">
</g>
<g xmlns="http://www.w3.org/2000/svg">
</g>
</g></svg>
