<?xml version="1.0"?>
<svg xmlns="http://www.w3.org/2000/svg" xmlns:xlink="http://www.w3.org/1999/xlink" xmlns:svgjs="http://svgjs.com/svgjs" version="1.1" width="512" height="512" x="0" y="0" viewBox="0 0 611.998 611.998" style="enable-background:new 0 0 512 512" xml:space="preserve" class=""><g>
<g xmlns="http://www.w3.org/2000/svg">
	<path d="M220.066,187.822c-2.37-4.121-2.37-9.141,0-13.248l74.45-128.975c4.729-8.201,18.216-8.201,22.944,0l74.462,128.975   c2.37,4.106,2.37,9.127,0,13.248c-2.37,4.106-6.742,6.624-11.473,6.624h-148.91C226.808,194.446,222.438,191.928,220.066,187.822z    M127.136,375.271h357.73c4.743,0,9.114-2.518,11.473-6.624c2.371-4.106,2.371-9.142,0-13.248l-64.964-112.521   c-2.37-4.106-6.742-6.624-11.473-6.624H192.128c-4.729,0-9.115,2.518-11.473,6.624l-64.978,112.521   c-2.371,4.106-2.371,9.142,0,13.248C118.023,372.739,122.395,375.271,127.136,375.271z M610.227,552.677l-74.462-128.963   c-2.371-4.106-6.742-6.624-11.474-6.624H87.713c-4.729,0-9.115,2.518-11.473,6.624L1.778,552.677   c-2.371,4.106-2.371,9.142,0,13.248s6.742,6.624,11.473,6.624h585.502c4.729,0,9.115-2.518,11.474-6.624   C612.582,561.819,612.597,556.772,610.227,552.677z" fill="#534dba" data-original="#000000" style=""/>
</g>
<g xmlns="http://www.w3.org/2000/svg">
</g>
<g xmlns="http://www.w3.org/2000/svg">
</g>
<g xmlns="http://www.w3.org/2000/svg">
</g>
<g xmlns="http://www.w3.org/2000/svg">
</g>
<g xmlns="http://www.w3.org/2000/svg">
</g>
<g xmlns="http://www.w3.org/2000/svg">
</g>
<g xmlns="http://www.w3.org/2000/svg">
</g>
<g xmlns="http://www.w3.org/2000/svg">
</g>
<g xmlns="http://www.w3.org/2000/svg">
</g>
<g xmlns="http://www.w3.org/2000/svg">
</g>
<g xmlns="http://www.w3.org/2000/svg">
</g>
<g xmlns="http://www.w3.org/2000/svg">
</g>
<g xmlns="http://www.w3.org/2000/svg">
</g>
<g xmlns="http://www.w3.org/2000/svg">
</g>
<g xmlns="http://www.w3.org/2000/svg">
</g>
</g></svg>
