<svg xmlns="http://www.w3.org/2000/svg" xmlns:xlink="http://www.w3.org/1999/xlink" width="464" height="407.371" viewBox="0 0 464 407.371">
  <defs>
    <clipPath id="clip-path">
      <path id="Path_82" data-name="Path 82" d="M162.312,71.18,134.75,238.789H348.8L321.242,71.18" transform="translate(-134.75 -71.18)" fill="#ffa400" stroke="#263238" stroke-linecap="round" stroke-linejoin="round" stroke-width="1"/>
    </clipPath>
    <clipPath id="clip-path-2">
      <path id="Path_88" data-name="Path 88" d="M307.337,91.025l-1.022,4.534-10.494,46.663a3.36,3.36,0,0,1-3.371,2.491H198.007a3.36,3.36,0,0,1-3.371-2.491l-10.7-47.767-.771-3.43a1.456,1.456,0,0,1,.357-1.3,1.847,1.847,0,0,1,1.342-.587H305.591a1.855,1.855,0,0,1,1.374.571,1.458,1.458,0,0,1,.372,1.314Z" transform="translate(-183.134 -89.14)" fill="#fff" stroke="#263238" stroke-linecap="round" stroke-linejoin="round" stroke-width="1"/>
    </clipPath>
    <clipPath id="clip-path-3">
      <path id="Path_93" data-name="Path 93" d="M308.706,105.765l-1.022,4.435-10.763,46.613a3.435,3.435,0,0,1-3.455,2.491h-96.71a3.435,3.435,0,0,1-3.455-2.491l-10.8-46.771-.984-4.277a1.467,1.467,0,0,1,.382-1.317,1.867,1.867,0,0,1,1.383-.568H306.941a1.867,1.867,0,0,1,1.383.568,1.467,1.467,0,0,1,.382,1.317Z" transform="translate(-181.486 -103.88)" fill="#fff" stroke="#263238" stroke-linecap="round" stroke-linejoin="round" stroke-width="1"/>
    </clipPath>
    <clipPath id="clip-path-4">
      <path id="Path_102" data-name="Path 102" d="M310.938,142.119H178.606a1.91,1.91,0,0,0-1.422.537,1.5,1.5,0,0,0-.436,1.324l3.1,12.457,9.509,38.143a3.69,3.69,0,0,0,3.715,2.442H296.526a3.69,3.69,0,0,0,3.715-2.442l4.643-18.71,7.949-31.881a1.5,1.5,0,0,0-.443-1.343,1.915,1.915,0,0,0-1.451-.526Z" transform="translate(-176.726 -142.116)" fill="#ffa400" stroke="#263238" stroke-linecap="round" stroke-linejoin="round" stroke-width="1"/>
    </clipPath>
    <clipPath id="clip-path-5">
      <path id="Path_107" data-name="Path 107" d="M317.036,211.312l-1.3,5.963-9.816,44.537a3.956,3.956,0,0,1-3.891,2.574L189.6,269a4.053,4.053,0,0,1-4.142-2.242l-15.518-47.086-.752-2.284c-.306-.938.641-1.868,1.959-1.918l143.764-5.913C316.219,209.51,317.25,210.357,317.036,211.312Z" transform="translate(-169.128 -209.557)" fill="#fff" stroke="#263238" stroke-linecap="round" stroke-linejoin="round" stroke-width="1"/>
    </clipPath>
    <clipPath id="clip-path-6">
      <path id="Path_112" data-name="Path 112" d="M320.975,234.527l-2.786,8.2-14.06,40.908a4.136,4.136,0,0,1-4.235,2.209l-114.66-5.356a4.045,4.045,0,0,1-3.956-2.591l-9.7-44.238-1.356-6.187c-.214-.955.854-1.794,2.2-1.727L318.988,232.6C320.334,232.667,321.3,233.6,320.975,234.527Z" transform="translate(-170.191 -225.746)" fill="#fff" stroke="#263238" stroke-linecap="round" stroke-linejoin="round" stroke-width="1"/>
    </clipPath>
    <clipPath id="clip-path-7">
      <path id="Path_137" data-name="Path 137" d="M252.117,122.221l-.761-1.952a3.623,3.623,0,0,0-3.027-2.043l-20.653-2.383a1.979,1.979,0,0,0-2.312,1.4l-.269,1.869-16.456-1.893a2.022,2.022,0,0,0-1.567.347,1.594,1.594,0,0,0-.671,1.313l5.86,54.1L323.7,185.817l21.006-51a1.519,1.519,0,0,0-.278-1.418,1.922,1.922,0,0,0-1.412-.691Z" transform="translate(-206.4 -115.812)" fill="#fff" stroke="#263238" stroke-linecap="round" stroke-linejoin="round" stroke-width="1"/>
    </clipPath>
    <clipPath id="clip-path-8">
      <path id="Path_141" data-name="Path 141" d="M345.627,138.72,326.608,184.9l-1.467,3.554a3.965,3.965,0,0,1-4.188,2.026l-107.4-12.39a3.7,3.7,0,0,1-3.473-2.915l-5.711-52.733a1.594,1.594,0,0,1,.671-1.313,2.022,2.022,0,0,1,1.567-.347l91.4,10.538,45.931,5.29a1.922,1.922,0,0,1,1.412.691A1.519,1.519,0,0,1,345.627,138.72Z" transform="translate(-204.37 -120.747)" fill="#fff" stroke="#263238" stroke-linecap="round" stroke-linejoin="round" stroke-width="1"/>
    </clipPath>
  </defs>
  <g id="Personal_files-bro" data-name="Personal files-bro" transform="translate(-47.958 -39.931)">
    <g id="freepik--background-simple--inject-2" transform="translate(47.958 39.931)">
      <path id="Path_59" data-name="Path 59" d="M222.48,43.889s51.9-8.905,99.124,0c28.883,5.445,89.7,18.356,104.068,47.621s-54.767,54.232-20.807,83.92c14.653,12.808,84.961,29.7,81.006,112.771S378.9,421.915,235.744,419.658,9.935,307.2,65.3,252.927s79.206-54.43,54.111-98.628S129.155,56.537,222.48,43.889Z" transform="translate(-47.958 -39.931)" fill="#fffbef"/>
      <path id="Path_60" data-name="Path 60" d="M222.48,43.889s51.9-8.905,99.124,0c28.883,5.445,89.7,18.356,104.068,47.621s-54.767,54.232-20.807,83.92c14.653,12.808,84.961,29.7,81.006,112.771S378.9,421.915,235.744,419.658,9.935,307.2,65.3,252.927s79.206-54.43,54.111-98.628S129.155,56.537,222.48,43.889Z" transform="translate(-47.958 -39.931)" fill="#fffbef" opacity="0.7"/>
    </g>
    <g id="freepik--Graphics--inject-2" transform="translate(70.842 53.815)">
      <path id="Path_61" data-name="Path 61" d="M112.848,187.385l8.079,21.127-38.743,11.85L78.1,209.677l-2.872-7.513L72.6,195.29l38.743-11.85Z" transform="translate(-72.6 -60.673)" fill="none" stroke="#263238" stroke-linecap="round" stroke-linejoin="round" stroke-width="1"/>
      <path id="Path_62" data-name="Path 62" d="M117.462,200.333l4.049,10.6-38.743,11.85-1.987-5.2,7.81-10.58,12.713,4.426,9.073-13.686Z" transform="translate(-73.184 -61.954)" fill="none" stroke="#263238" stroke-linecap="round" stroke-linejoin="round" stroke-width="1"/>
      <path id="Path_63" data-name="Path 63" d="M93.59,198.73a3.689,3.689,0,0,1-2.619,4.792,4.352,4.352,0,0,1-5.357-2.345,3.69,3.69,0,0,1,2.627-4.789,4.663,4.663,0,0,1,3.218.179,3.932,3.932,0,0,1,2.131,2.163Z" transform="translate(-73.512 -62.98)" fill="none" stroke="#263238" stroke-linecap="round" stroke-linejoin="round" stroke-width="1"/>
      <path id="Path_64" data-name="Path 64" d="M361.077,394.57l-5.34,21.816-40-7.839,6.333-25.877L362.08,390.5Z" transform="translate(-34.174 -67.526)" fill="none" stroke="#263238" stroke-linecap="round" stroke-linejoin="round" stroke-width="1"/>
      <line id="Line_19" data-name="Line 19" x2="27.479" y2="5.381" transform="translate(287.941 335.44)" fill="none" stroke="#263238" stroke-linecap="round" stroke-linejoin="round" stroke-width="1"/>
      <path id="Path_65" data-name="Path 65" d="M326.683,393.3s-2.786,11.419,11.478,14.217,17.059-8.653,17.059-8.653" transform="translate(-35.798 -69.329)" fill="none" stroke="#263238" stroke-linecap="round" stroke-linejoin="round" stroke-width="1"/>
      <path id="Path_66" data-name="Path 66" d="M327.813,393.314a1.254,1.254,0,0,1-1.467.83,1.17,1.17,0,0,1-.953-.887,1.062,1.062,0,0,1,.556-1.125,1.357,1.357,0,0,1,1.375.032A1.05,1.05,0,0,1,327.813,393.314Z" transform="translate(-40.249 -69.102)" fill="#fff" stroke="#263238" stroke-linecap="round" stroke-linejoin="round" stroke-width="1"/>
      <path id="Path_67" data-name="Path 67" d="M358.541,400.063a1.143,1.143,0,0,1-.82.891,1.343,1.343,0,0,1-1.26-.248,1.027,1.027,0,0,1-.326-1.116,1.256,1.256,0,0,1,1.448-.758,1.12,1.12,0,0,1,.958,1.232Z" transform="translate(-36.319 -70.262)" fill="#fff" stroke="#263238" stroke-linecap="round" stroke-linejoin="round" stroke-width="1"/>
      <path id="Path_172" data-name="Path 172" d="M.048.048,2.2,0,2.153,1.945,0,1.993Z" transform="matrix(0.977, 0.214, -0.214, 0.977, 282.13, 334.179)" fill="#fff" stroke="#263238" stroke-linecap="round" stroke-width="1"/>
      <path id="Path_173" data-name="Path 173" d="M.048.048,2.2,0,2.153,1.945,0,1.993Z" transform="matrix(0.977, 0.214, -0.214, 0.977, 299.452, 336.967)" fill="#fff" stroke="#263238" stroke-linecap="round" stroke-width="1"/>
      <path id="Path_174" data-name="Path 174" d="M.048.048,2.2,0,2.153,1.945,0,1.993Z" transform="matrix(0.977, 0.214, -0.214, 0.977, 316.794, 339.765)" fill="#fff" stroke="#263238" stroke-linecap="round" stroke-width="1"/>
      <path id="Path_68" data-name="Path 68" d="M161.6,107.465l-10.1,20.421L114.04,113.054l12-24.224,37.443,14.824Z" transform="translate(-75.557 -62.106)" fill="none" stroke="#263238" stroke-linecap="round" stroke-linejoin="round" stroke-width="1"/>
      <path id="Path_69" data-name="Path 69" d="M143.378,120.4c-.715,1.445-3.306,1.827-5.776.83s-3.891-2.948-3.176-4.4S137.732,115,140.2,116,144.093,118.944,143.378,120.4Z" transform="translate(-76.998 -66.618)" fill="#263238"/>
      <path id="Path_70" data-name="Path 70" d="M145.287,102.2l-9.992,12.747-.854-.34,7.308-9.318,1.857-2.425a6.052,6.052,0,0,0,1.634-.656Z" transform="translate(-28.886 -64.373)" fill="#263238"/>
      <path id="Path_71" data-name="Path 71" d="M145.275,102.21l-2.424,3.073a5.863,5.863,0,0,1-1.105,0,8.657,8.657,0,0,1-3.13-.83,4.35,4.35,0,0,0-4.207.257c.121-.133,2.479-2.765,5.73-1.844a6.471,6.471,0,0,0,3.5,0,6.052,6.052,0,0,0,1.634-.656Z" transform="translate(-28.905 -64.375)" fill="#263238"/>
      <path id="Path_72" data-name="Path 72" d="M430.412,307.2l-8.72,20.927L383.32,315.349l10.345-24.839L432.037,303.3Z" transform="translate(-22.906 -63.986)" fill="none" stroke="#263238" stroke-linecap="round" stroke-linejoin="round" stroke-width="1"/>
      <path id="Path_73" data-name="Path 73" d="M405.481,305.07l-9.621,3.936,4.4,8.612" transform="translate(-23.801 -67.391)" fill="none" stroke="#263238" stroke-linecap="round" stroke-linejoin="round" stroke-width="1"/>
      <path id="Path_74" data-name="Path 74" d="M411.73,321.76l9.63-3.928-4.4-8.612" transform="translate(-24.933 -67.571)" fill="none" stroke="#263238" stroke-linecap="round" stroke-linejoin="round" stroke-width="1"/>
      <line id="Line_20" data-name="Line 20" x1="8.59" y2="11.452" transform="translate(379.944 240.172)" fill="none" stroke="#263238" stroke-linecap="round" stroke-linejoin="round" stroke-width="1"/>
      <path id="Path_75" data-name="Path 75" d="M389.187,73.109l-8.553,20.985L342.16,81.547l10.15-24.9L390.784,69.2Z" transform="translate(-19.969 -56.65)" fill="none" stroke="#263238" stroke-linecap="round" stroke-linejoin="round" stroke-width="1"/>
      <path id="Path_76" data-name="Path 76" d="M362.856,76.939s-.464-2.35-4.346-1.835c-3.585.482-4.643,4.086-1.579,5.074,3.557,1.163,6.343-1.528,9.807-4.152,3.612-2.765,6.891-5.747,7.308-6.1,0,0-8.144,13.03-9.2,14.749s2.127,1.088,2.7.324" transform="translate(-33.531 -58.902)" fill="none" stroke="#263238" stroke-linecap="round" stroke-linejoin="round" stroke-width="1"/>
      <path id="Path_77" data-name="Path 77" d="M377.713,82.852a5.2,5.2,0,0,0-6.5.98,1.637,1.637,0,0,0,.436,2.832c2.507.83,4.058-.166,6.7-3.6,0,0-3.65,4.584-2.87,4.842a2.191,2.191,0,0,0,2.034-.407" transform="translate(-21.998 -60.97)" fill="none" stroke="#263238" stroke-linecap="round" stroke-linejoin="round" stroke-width="1"/>
      <line id="Line_21" data-name="Line 21" x2="6.445" y2="2.101" transform="translate(344.739 18.336)" fill="none" stroke="#263238" stroke-linecap="round" stroke-linejoin="round" stroke-width="1"/>
      <path id="Path_78" data-name="Path 78" d="M116.286,362.285c-11.4,3.617-40.006-7.823-40.006-7.823l5.46-22.322L121.877,340S127.685,358.669,116.286,362.285Z" transform="translate(-72.863 -58.959)" fill="none" stroke="#263238" stroke-linecap="round" stroke-linejoin="round" stroke-width="1"/>
      <line id="Line_22" data-name="Line 22" x2="23.383" y2="4.576" transform="translate(17.942 269.07)" fill="none" stroke="#263238" stroke-linecap="round" stroke-linejoin="round" stroke-width="1"/>
      <line id="Line_23" data-name="Line 23" x2="26.671" y2="5.224" transform="translate(14.162 270.709)" fill="none" stroke="#263238" stroke-linecap="round" stroke-linejoin="round" stroke-width="1"/>
      <line id="Line_24" data-name="Line 24" x2="26.671" y2="5.215" transform="translate(13.67 273.016)" fill="none" stroke="#263238" stroke-linecap="round" stroke-linejoin="round" stroke-width="1"/>
      <line id="Line_25" data-name="Line 25" x2="26.671" y2="5.215" transform="translate(13.178 275.324)" fill="none" stroke="#263238" stroke-linecap="round" stroke-linejoin="round" stroke-width="1"/>
      <line id="Line_26" data-name="Line 26" x2="26.671" y2="5.215" transform="translate(12.685 277.622)" fill="none" stroke="#263238" stroke-linecap="round" stroke-linejoin="round" stroke-width="1"/>
      <line id="Line_27" data-name="Line 27" x2="26.671" y2="5.215" transform="translate(12.202 288.162)" fill="none" stroke="#263238" stroke-linecap="round" stroke-linejoin="round" stroke-width="1"/>
      <line id="Line_28" data-name="Line 28" x2="26.671" y2="5.215" transform="translate(11.71 290.164)" fill="none" stroke="#263238" stroke-linecap="round" stroke-linejoin="round" stroke-width="1"/>
      <line id="Line_29" data-name="Line 29" x2="23.383" y2="4.576" transform="translate(11.218 292.174)" fill="none" stroke="#263238" stroke-linecap="round" stroke-linejoin="round" stroke-width="1"/>
    </g>
    <g id="freepik--Drawer--inject-2" transform="translate(146.834 63.183)">
      <path id="Path_79" data-name="Path 79" d="M317.646,151.008H167.985L149.31,67.93H336.322Z" transform="translate(-122.156 -67.93)" fill="#263238"/>
      <path id="Path_80" data-name="Path 80" d="M162.312,71.18,134.75,238.789H348.8L321.242,71.18" transform="translate(-121.117 -68.481)" fill="#ffa400"/>
      <g id="Group_2" data-name="Group 2" transform="translate(13.633 2.699)" clip-path="url(#clip-path)">
        <path id="Path_81" data-name="Path 81" d="M348.8,258.7H134.75l11.525-70.09h191Z" transform="translate(-134.75 -91.09)" fill="#ffa400" opacity="0.3"/>
      </g>
      <path id="Path_83" data-name="Path 83" d="M162.312,71.18,134.75,238.789H348.8L321.242,71.18" transform="translate(-121.117 -68.481)" fill="none" stroke="#263238" stroke-linecap="round" stroke-linejoin="round" stroke-width="1"/>
      <path id="Path_84" data-name="Path 84" d="M316.022,71.18H168.738L143.2,238.789H341.56Z" transform="translate(-121.72 -68.481)" fill="#263238"/>
      <path id="Path_85" data-name="Path 85" d="M304.415,85.848H224.467l-.929-1.827a3.187,3.187,0,0,0-2.879-1.661H202.533a1.767,1.767,0,0,0-1.857,1.661v1.86H186.235a1.852,1.852,0,0,0-1.361.578,1.457,1.457,0,0,0-.366,1.307l11.812,52.526h98.01l11.812-52.526a1.454,1.454,0,0,0-.349-1.33A1.851,1.851,0,0,0,304.415,85.848Z" transform="translate(-124.665 -70.377)" fill="#bfbfbf" stroke="#263238" stroke-linecap="round" stroke-linejoin="round" stroke-width="1"/>
      <path id="Path_86" data-name="Path 86" d="M307.337,91.025l-1.022,4.534-10.494,46.663a3.36,3.36,0,0,1-3.371,2.491H198.007a3.36,3.36,0,0,1-3.371-2.491l-10.7-47.767-.771-3.43a1.456,1.456,0,0,1,.357-1.3,1.847,1.847,0,0,1,1.342-.587H305.591a1.855,1.855,0,0,1,1.374.571,1.458,1.458,0,0,1,.372,1.314Z" transform="translate(-124.57 -71.526)" fill="#fff"/>
      <g id="Group_3" data-name="Group 3" transform="translate(58.564 17.614)" clip-path="url(#clip-path-2)">
        <path id="Path_87" data-name="Path 87" d="M306.378,96.645l-10.494,46.663a3.36,3.36,0,0,1-3.371,2.491H198.069a3.36,3.36,0,0,1-3.371-2.491L184,95.54Z" transform="translate(-183.195 -90.225)" fill="#ffa400" opacity="0.4"/>
      </g>
      <path id="Path_89" data-name="Path 89" d="M307.337,91.025l-1.022,4.534-10.494,46.663a3.36,3.36,0,0,1-3.371,2.491H198.007a3.36,3.36,0,0,1-3.371-2.491l-10.7-47.767-.771-3.43a1.456,1.456,0,0,1,.357-1.3,1.847,1.847,0,0,1,1.342-.587H305.591a1.855,1.855,0,0,1,1.374.571,1.458,1.458,0,0,1,.372,1.314Z" transform="translate(-124.57 -71.526)" fill="none" stroke="#263238" stroke-linecap="round" stroke-linejoin="round" stroke-width="1"/>
      <path id="Path_90" data-name="Path 90" d="M305.723,100.42h-81.87l-.929-1.819a3.281,3.281,0,0,0-2.944-1.661H201.408A1.767,1.767,0,0,0,199.55,98.6v1.86H184.692a1.867,1.867,0,0,0-1.383.568,1.467,1.467,0,0,0-.382,1.317L195,154.714H295.359l12.072-52.368a1.461,1.461,0,0,0-.343-1.326,1.856,1.856,0,0,0-1.366-.6Z" transform="translate(-124.553 -72.849)" fill="#bfbfbf" stroke="#263238" stroke-linecap="round" stroke-linejoin="round" stroke-width="1"/>
      <path id="Path_91" data-name="Path 91" d="M308.706,105.765l-1.022,4.435-10.763,46.613a3.435,3.435,0,0,1-3.455,2.491h-96.71a3.435,3.435,0,0,1-3.455-2.491l-10.8-46.771-.984-4.277a1.467,1.467,0,0,1,.382-1.317,1.867,1.867,0,0,1,1.383-.568H306.941a1.867,1.867,0,0,1,1.383.568,1.467,1.467,0,0,1,.382,1.317Z" transform="translate(-124.452 -74.025)" fill="#fff"/>
      <g id="Group_4" data-name="Group 4" transform="translate(57.034 29.855)" clip-path="url(#clip-path-3)">
        <path id="Path_92" data-name="Path 92" d="M307.762,111.458,297,158.071a3.435,3.435,0,0,1-3.455,2.491h-96.71a3.435,3.435,0,0,1-3.455-2.491L182.58,111.3Z" transform="translate(-181.564 -105.138)" fill="#ffa400" opacity="0.4"/>
      </g>
      <path id="Path_94" data-name="Path 94" d="M308.706,105.765l-1.022,4.435-10.763,46.613a3.435,3.435,0,0,1-3.455,2.491h-96.71a3.435,3.435,0,0,1-3.455-2.491l-10.8-46.771-.984-4.277a1.467,1.467,0,0,1,.382-1.317,1.867,1.867,0,0,1,1.383-.568H306.941a1.867,1.867,0,0,1,1.383.568,1.467,1.467,0,0,1,.382,1.317Z" transform="translate(-124.452 -74.025)" fill="none" stroke="#263238" stroke-linecap="round" stroke-linejoin="round" stroke-width="1"/>
      <path id="Path_95" data-name="Path 95" d="M307.023,114.989H223.25l-.929-1.819a3.356,3.356,0,0,0-3.009-1.661H200.257a1.983,1.983,0,0,0-1.349.468,1.58,1.58,0,0,0-.564,1.192v1.852H183.179a1.884,1.884,0,0,0-1.406.552,1.478,1.478,0,0,0-.4,1.325l12.379,52.21H296.455l12.379-52.21a1.474,1.474,0,0,0-.387-1.348,1.883,1.883,0,0,0-1.423-.562Z" transform="translate(-124.442 -75.319)" fill="#bfbfbf" stroke="#263238" stroke-linecap="round" stroke-linejoin="round" stroke-width="1"/>
      <path id="Path_96" data-name="Path 96" d="M308.276,118.63H181.719a1.874,1.874,0,0,0-1.4.55,1.47,1.47,0,0,0-.4,1.319l12.072,50.9a3.5,3.5,0,0,0,3.529,2.491h98.966a3.5,3.5,0,0,0,3.529-2.491l12.072-50.9a1.47,1.47,0,0,0-.4-1.322A1.875,1.875,0,0,0,308.276,118.63Z" transform="translate(-124.338 -76.526)" fill="#fff" stroke="#263238" stroke-linecap="round" stroke-linejoin="round" stroke-width="1"/>
      <path id="Path_97" data-name="Path 97" d="M308.332,126.561h-85.7l-.975-1.81a3.459,3.459,0,0,0-3.074-1.661h-19.5a1.99,1.99,0,0,0-1.38.453,1.583,1.583,0,0,0-.58,1.208V126.6H181.645a1.9,1.9,0,0,0-1.43.536,1.489,1.489,0,0,0-.428,1.333l12.658,52.061H297.522l12.658-52.061a1.484,1.484,0,0,0-.4-1.358,1.9,1.9,0,0,0-1.445-.552Z" transform="translate(-124.329 -77.282)" fill="#bfbfbf" stroke="#263238" stroke-linecap="round" stroke-linejoin="round" stroke-width="1"/>
      <path id="Path_98" data-name="Path 98" d="M309.609,130.37H180.155a1.9,1.9,0,0,0-1.43.536,1.489,1.489,0,0,0-.428,1.333l12.342,50.749a3.585,3.585,0,0,0,3.612,2.441H295.475a3.585,3.585,0,0,0,3.612-2.442l12.342-50.749a1.488,1.488,0,0,0-.416-1.319A1.894,1.894,0,0,0,309.609,130.37Z" transform="translate(-124.223 -78.516)" fill="#fff" stroke="#263238" stroke-linecap="round" stroke-linejoin="round" stroke-width="1"/>
      <path id="Path_99" data-name="Path 99" d="M309.636,138.131H222.027l-.994-1.81a3.564,3.564,0,0,0-3.148-1.661h-19.9a1.837,1.837,0,0,0-2,1.611v1.844H180.126a1.962,1.962,0,0,0-1.4.555,1.549,1.549,0,0,0-.458,1.306l12.945,51.9H298.585l12.945-51.9a1.552,1.552,0,0,0-.478-1.307A1.969,1.969,0,0,0,309.636,138.131Z" transform="translate(-124.222 -79.244)" fill="#bfbfbf" stroke="#263238" stroke-linecap="round" stroke-linejoin="round" stroke-width="1"/>
      <path id="Path_100" data-name="Path 100" d="M310.938,142.119H178.606a1.91,1.91,0,0,0-1.422.537,1.5,1.5,0,0,0-.436,1.324l3.1,12.457,9.509,38.143a3.69,3.69,0,0,0,3.715,2.442H296.526a3.69,3.69,0,0,0,3.715-2.442l4.643-18.71,7.949-31.881a1.5,1.5,0,0,0-.443-1.343,1.915,1.915,0,0,0-1.451-.526Z" transform="translate(-124.112 -80.508)" fill="#fff"/>
      <g id="Group_5" data-name="Group 5" transform="translate(52.614 61.608)" clip-path="url(#clip-path-4)">
        <path id="Path_101" data-name="Path 101" d="M180.05,159.35l9.509,38.143a3.69,3.69,0,0,0,3.715,2.442H296.763a3.69,3.69,0,0,0,3.715-2.442l4.643-18.71Z" transform="translate(-176.964 -145.038)" fill="#ffa400" opacity="0.4"/>
      </g>
      <path id="Path_103" data-name="Path 103" d="M310.938,142.119H178.606a1.91,1.91,0,0,0-1.422.537,1.5,1.5,0,0,0-.436,1.324l3.1,12.457,9.509,38.143a3.69,3.69,0,0,0,3.715,2.442H296.526a3.69,3.69,0,0,0,3.715-2.442l4.643-18.71,7.949-31.881a1.5,1.5,0,0,0-.443-1.343,1.915,1.915,0,0,0-1.451-.526Z" transform="translate(-124.112 -80.508)" fill="none" stroke="#263238" stroke-linecap="round" stroke-linejoin="round" stroke-width="1"/>
      <path id="Path_104" data-name="Path 104" d="M218.118,209.587l-1.17-1.744a4.032,4.032,0,0,0-3.5-1.495l-21.619.889a1.949,1.949,0,0,0-2.089,1.661l.093,1.827-17.236.706c-1.319.05-2.266.98-1.95,1.918l16.716,50.657,116.676-4.8,11.432-51.8c.2-.963-.827-1.81-2.154-1.752Z" transform="translate(-123.674 -91.282)" fill="#bfbfbf" stroke="#263238" stroke-linecap="round" stroke-linejoin="round" stroke-width="1"/>
      <path id="Path_105" data-name="Path 105" d="M317.036,211.312l-1.3,5.963-9.816,44.537a3.956,3.956,0,0,1-3.891,2.574L189.6,269a4.053,4.053,0,0,1-4.142-2.242l-15.518-47.086-.752-2.284c-.306-.938.641-1.868,1.959-1.918l143.764-5.913C316.219,209.51,317.25,210.357,317.036,211.312Z" transform="translate(-123.57 -91.943)" fill="#fff"/>
      <g id="Group_6" data-name="Group 6" transform="translate(45.557 117.614)" clip-path="url(#clip-path-5)">
        <path id="Path_106" data-name="Path 106" d="M315.8,218.85l-9.816,44.537a3.956,3.956,0,0,1-3.891,2.574L189.66,270.579a4.053,4.053,0,0,1-4.142-2.242L170,221.25Z" transform="translate(-169.19 -211.133)" fill="#ffa400" opacity="0.4"/>
      </g>
      <path id="Path_108" data-name="Path 108" d="M317.036,211.312l-1.3,5.963-9.816,44.537a3.956,3.956,0,0,1-3.891,2.574L189.6,269a4.053,4.053,0,0,1-4.142-2.242l-15.518-47.086-.752-2.284c-.306-.938.641-1.868,1.959-1.918l143.764-5.913C316.219,209.51,317.25,210.357,317.036,211.312Z" transform="translate(-123.57 -91.943)" fill="none" stroke="#263238" stroke-linecap="round" stroke-linejoin="round" stroke-width="1"/>
      <path id="Path_109" data-name="Path 109" d="M220.7,223.356l-.994-1.827a4.062,4.062,0,0,0-3.4-1.794l-22.018-1.03a2.03,2.03,0,0,0-2.322,1.487l-.1,1.819-17.57-.83c-1.347-.066-2.405.772-2.2,1.727l11.357,51.729L302.443,280.2l17.319-50.383c.316-.938-.641-1.868-1.987-1.927Z" transform="translate(-123.78 -93.491)" fill="#bfbfbf" stroke="#263238" stroke-linecap="round" stroke-linejoin="round" stroke-width="1"/>
      <path id="Path_110" data-name="Path 110" d="M320.975,234.527l-2.786,8.2-14.06,40.908a4.136,4.136,0,0,1-4.235,2.209l-114.66-5.356a4.045,4.045,0,0,1-3.956-2.591l-9.7-44.238-1.356-6.187c-.214-.955.854-1.794,2.2-1.727L318.988,232.6C320.334,232.667,321.3,233.6,320.975,234.527Z" transform="translate(-123.646 -94.688)" fill="#fff"/>
      <g id="Group_7" data-name="Group 7" transform="translate(46.544 131.058)" clip-path="url(#clip-path-6)">
        <path id="Path_111" data-name="Path 111" d="M318.255,244.348,304.2,285.256a4.136,4.136,0,0,1-4.235,2.209L185.3,282.109a4.045,4.045,0,0,1-3.956-2.591l-9.7-44.238Z" transform="translate(-170.294 -227.362)" fill="#92e3a9" opacity="0.4"/>
      </g>
      <path id="Path_113" data-name="Path 113" d="M320.975,234.527l-2.786,8.2-14.06,40.908a4.136,4.136,0,0,1-4.235,2.209l-114.66-5.356a4.045,4.045,0,0,1-3.956-2.591l-9.7-44.238-1.356-6.187c-.214-.955.854-1.794,2.2-1.727L318.988,232.6C320.334,232.667,321.3,233.6,320.975,234.527Z" transform="translate(-123.646 -94.688)" fill="none" stroke="#263238" stroke-linecap="round" stroke-linejoin="round" stroke-width="1"/>
      <path id="Path_114" data-name="Path 114" d="M218.351,239.556l-1.077-1.777a4.212,4.212,0,0,0-3.557-1.661H191.16a2.027,2.027,0,0,0-2.266,1.586v1.81H170.953c-1.374,0-2.405.88-2.136,1.827l14.635,50.965h121.5l14.636-50.965c.269-.947-.761-1.827-2.136-1.827Z" transform="translate(-123.545 -96.445)" fill="#bfbfbf" stroke="#263238" stroke-linecap="round" stroke-linejoin="round" stroke-width="1"/>
      <path id="Path_115" data-name="Path 115" d="M302.587,298.484H185.577c-2.024,0-3.78-1-4.179-2.392l-14.3-49.686c-.279-.947.752-1.827,2.136-1.827h149.7c1.384,0,2.414.88,2.136,1.827L306.8,296.093C306.4,297.48,304.648,298.484,302.587,298.484Z" transform="translate(-123.422 -97.881)" fill="#fff" stroke="#263238" stroke-linecap="round" stroke-linejoin="round" stroke-width="1"/>
      <path id="Path_116" data-name="Path 116" d="M217.737,254.136l-1.142-1.769a4.348,4.348,0,0,0-3.631-1.619H190.026a2.059,2.059,0,0,0-2.312,1.586v1.8H169.429c-1.412,0-2.461.88-2.182,1.827l14.923,50.807H306.015l14.923-50.832c.279-.947-.771-1.827-2.182-1.827Z" transform="translate(-123.433 -98.925)" fill="#bfbfbf" stroke="#263238" stroke-linecap="round" stroke-linejoin="round" stroke-width="1"/>
      <path id="Path_117" data-name="Path 117" d="M303.642,313.027H184.292c-2.062,0-3.845-1-4.253-2.392l-14.552-49.528c-.269-.947.78-1.827,2.182-1.827h152.6c1.4,0,2.452.88,2.182,1.827L307.9,310.635C307.487,312.055,305.7,313.027,303.642,313.027Z" transform="translate(-123.307 -100.374)" fill="#fff" stroke="#263238" stroke-linecap="round" stroke-linejoin="round" stroke-width="1"/>
      <path id="Path_118" data-name="Path 118" d="M324.652,373.948H156.807L120.07,280.78H361.389Z" transform="translate(-120.07 -104.019)" fill="#ffa400"/>
      <path id="Path_121" data-name="Path 121" d="M324.652,373.948H156.807L120.07,280.78H361.389Z" transform="translate(-120.07 -104.019)" fill="none" stroke="#263238" stroke-linecap="round" stroke-linejoin="round" stroke-width="1"/>
      <path id="Path_122" data-name="Path 122" d="M358.195,266.01H123.265l-3.195,12.266H361.389Z" transform="translate(-120.07 -101.515)" fill="#ffa400" stroke="#263238" stroke-linecap="round" stroke-linejoin="round" stroke-width="1"/>
      <path id="Path_123" data-name="Path 123" d="M187.089,332.18l-2.349,19.889H305.947L303.6,332.18h-5.349l1.523,14.192H190.916l1.523-14.192Z" transform="translate(-124.684 -112.734)" fill="#bfbfbf" stroke="#263238" stroke-linecap="round" stroke-linejoin="round" stroke-width="1"/>
      <path id="Path_124" data-name="Path 124" d="M305.037,360.7H185.65l-.91-4.567H305.947Z" transform="translate(-124.684 -116.795)" fill="#757575" stroke="#263238" stroke-linecap="round" stroke-linejoin="round" stroke-width="1"/>
      <path id="Path_125" data-name="Path 125" d="M306.913,332.18l-.743,5.273.743,8.919h1.523Z" transform="translate(-133.348 -112.734)" fill="#757575" stroke="#263238" stroke-linecap="round" stroke-linejoin="round" stroke-width="1"/>
      <path id="Path_126" data-name="Path 126" d="M192.913,332.18l.752,5.273-.752,8.919H191.39Z" transform="translate(-125.159 -112.734)" fill="#757575" stroke="#263238" stroke-linecap="round" stroke-linejoin="round" stroke-width="1"/>
      <path id="Path_127" data-name="Path 127" d="M285.772,316.715H207.654L203.93,299.84H289.5Z" transform="translate(-126.053 -107.251)" fill="#fff" stroke="#263238" stroke-linecap="round" stroke-linejoin="round" stroke-width="1"/>
      <path id="Path_128" data-name="Path 128" d="M232.093,311.48h0l.52-7.15h2.377l.7,9.924h-1.532l-.548-7.009h0l-.529,7.009h-1.542l-1.857-6.909h0l.7,6.909h-1.458l-1.077-9.924h2.377Z" transform="translate(-127.759 -108.012)" fill="#263238"/>
      <path id="Path_129" data-name="Path 129" d="M238.805,311.082l-2.535-6.752h1.792l1.523,4.651h0l1.049-4.651h1.634l-1.857,6.752.149,3.172h-1.625Z" transform="translate(-128.361 -108.012)" fill="#263238"/>
      <path id="Path_130" data-name="Path 130" d="M247.863,308.873h2.164v1.412h-2.136v3.97h-1.625l-.186-9.924h4.569v1.486h-2.786Z" transform="translate(-129.061 -108.012)" fill="#263238"/>
      <path id="Path_131" data-name="Path 131" d="M251.913,304.33h1.709l-.176,9.924H251.82Z" transform="translate(-129.47 -108.012)" fill="#263238"/>
      <path id="Path_132" data-name="Path 132" d="M255.094,304.33h1.755l-.288,8.57h2.684l-.065,1.354h-4.29Z" transform="translate(-129.689 -108.012)" fill="#263238"/>
      <path id="Path_133" data-name="Path 133" d="M262.2,308.64h2.294l-.1,1.42H262.1l-.176,2.84h2.786l-.1,1.354h-4.42l.52-9.924h4.643l-.121,1.486H262.3Z" transform="translate(-130.068 -108.012)" fill="#263238"/>
      <path id="Path_134" data-name="Path 134" d="M269.206,304.19c1.672,0,2.424.947,2.247,2.6v.316h-1.6l.046-.424c.074-.731-.214-1.013-.752-1.013s-.873.282-.929,1.013.214,1.287,1.226,2.192c1.272,1.146,1.625,1.96,1.5,3.064a2.449,2.449,0,0,1-2.675,2.4,1.976,1.976,0,0,1-2.229-2.4l.056-.59h1.56l-.065.689c-.065.689.241.93.762.93s.873-.241.929-.93-.2-1.229-1.207-2.118c-1.291-1.146-1.672-1.976-1.569-3.131A2.476,2.476,0,0,1,269.206,304.19Z" transform="translate(-130.485 -107.988)" fill="#263238"/>
    </g>
    <g id="freepik--right-hand--inject-2" transform="translate(265.074 105.803)">
      <path id="Path_135" data-name="Path 135" d="M252.117,122.221l-.761-1.952a3.623,3.623,0,0,0-3.027-2.043l-20.653-2.383a1.979,1.979,0,0,0-2.312,1.4l-.269,1.869-16.456-1.893a2.022,2.022,0,0,0-1.567.347,1.594,1.594,0,0,0-.671,1.313l5.86,54.1L323.7,185.817l21.006-51a1.519,1.519,0,0,0-.278-1.418,1.922,1.922,0,0,0-1.412-.691Z" transform="translate(-204.514 -107.942)" fill="#fff"/>
      <g id="Group_9" data-name="Group 9" transform="translate(1.885 7.869)" clip-path="url(#clip-path-7)">
        <path id="Path_136" data-name="Path 136" d="M252.117,122.221l-.761-1.952a3.623,3.623,0,0,0-3.027-2.043l-20.653-2.383a1.979,1.979,0,0,0-2.312,1.4l-.269,1.869-16.456-1.893a2.022,2.022,0,0,0-1.567.347,1.594,1.594,0,0,0-.671,1.313l5.86,54.1L323.7,185.817l21.006-51a1.519,1.519,0,0,0-.278-1.418,1.922,1.922,0,0,0-1.412-.691Z" transform="translate(-206.4 -115.812)" fill="#ffa400" opacity="0.4"/>
      </g>
      <path id="Path_138" data-name="Path 138" d="M252.117,122.221l-.761-1.952a3.623,3.623,0,0,0-3.027-2.043l-20.653-2.383a1.979,1.979,0,0,0-2.312,1.4l-.269,1.869-16.456-1.893a2.022,2.022,0,0,0-1.567.347,1.594,1.594,0,0,0-.671,1.313l5.86,54.1L323.7,185.817l21.006-51a1.519,1.519,0,0,0-.278-1.418,1.922,1.922,0,0,0-1.412-.691Z" transform="translate(-204.514 -107.942)" fill="none" stroke="#263238" stroke-linecap="round" stroke-linejoin="round" stroke-width="1"/>
      <path id="Path_139" data-name="Path 139" d="M345.627,138.72,326.608,184.9l-1.467,3.554a3.965,3.965,0,0,1-4.188,2.026l-107.4-12.39a3.7,3.7,0,0,1-3.473-2.915l-5.711-52.733a1.594,1.594,0,0,1,.671-1.313,2.022,2.022,0,0,1,1.567-.347l91.4,10.538,45.931,5.29a1.922,1.922,0,0,1,1.412.691A1.519,1.519,0,0,1,345.627,138.72Z" transform="translate(-204.37 -108.779)" fill="#fff"/>
      <g id="Group_10" data-name="Group 10" transform="translate(0 11.968)" clip-path="url(#clip-path-8)">
        <path id="Path_140" data-name="Path 140" d="M351.445,140.883l-19.019,46.181c-13.475-2.848-13.986-10.356-16.242-14.242-2.489-4.285-18.267-6.561-22.678-7.25s-7.095-4.684-7.095-4.684c-3.975-9.965,16.771-18.685,16.771-18.685-.409-1.37.2-5.863.632-8.7l45.931,5.29a1.925,1.925,0,0,1,1.41.683,1.52,1.52,0,0,1,.29,1.41Z" transform="translate(-210.187 -122.91)" fill="rgba(0,0,0,0.7)" opacity="0.3"/>
      </g>
      <path id="Path_142" data-name="Path 142" d="M345.627,138.72,326.608,184.9l-1.467,3.554a3.965,3.965,0,0,1-4.188,2.026l-107.4-12.39a3.7,3.7,0,0,1-3.473-2.915l-5.711-52.733a1.594,1.594,0,0,1,.671-1.313,2.022,2.022,0,0,1,1.567-.347l91.4,10.538,45.931,5.29a1.922,1.922,0,0,1,1.412.691A1.519,1.519,0,0,1,345.627,138.72Z" transform="translate(-204.37 -108.779)" fill="none" stroke="#263238" stroke-linecap="round" stroke-linejoin="round" stroke-width="1"/>
      <path id="Path_143" data-name="Path 143" d="M226.12,139.9l1.467,32.637,13.224,1.528,1.56-32.52Z" transform="translate(-205.921 -112.027)" fill="#ffa400" stroke="#263238" stroke-linecap="round" stroke-linejoin="round" stroke-width="1"/>
      <path id="Path_144" data-name="Path 144" d="M234.555,171.113a3.865,3.865,0,0,0-.641-3.413,13.309,13.309,0,0,0-2.684-2.633,14.286,14.286,0,0,0,4.987,1.478c0-1.7-1.857-2.882-3.445-3.779a2.9,2.9,0,0,1,2.247.149,1.583,1.583,0,0,0-.659-1.4c.2.158.52-.091.511-.324a1.419,1.419,0,0,0-.325-.639,2.882,2.882,0,0,1-.288-1.6c0-1.952.065-3.911.093-5.863a.976.976,0,0,0,.762.756,21.634,21.634,0,0,0-.186-2.317c-.2-1.952-.409-3.911-.622-5.863" transform="translate(-206.286 -113.003)" fill="none" stroke="#263238" stroke-linecap="round" stroke-linejoin="round" stroke-width="1"/>
      <path id="Path_145" data-name="Path 145" d="M448.543,240.6s-74.942-59.958-79.715-63.737-8.265-3.612-10.837-5.913-3.863-3.936-14.329-3.779-24.433-4.925-27.553-6.735-7.531-.49-10.475-1.511-10.466-.125-15.063,0-4.959-4.069-3.12-8.836,15.787-7.715,17.644-6.735,9.184-1.8,9.184-1.8c-1.105-3.455-.734-11.834-.734-11.834s-7.717-2.956-10.652-3.936a20.872,20.872,0,0,0-6.983-.656s.929-3.77,2.387-5.174,8.451-2.716,15.248-6.984,11.023-5.257,12.072-4.933,8.636,2.3,10.661,2.3,4.959-1.661,7.894-1.146,8.265,4.6,10.652,5.091,3.12.938,6.25.938c1.374,0,6.983,3.662,6.983,3.662a31.257,31.257,0,0,1,6.8,1.968c3.482,1.478,7.16,8.545,8.813,10.846s1.857,7.881,1.857,7.881,4.411,2.134,6.064,5.091,62.526,32.2,62.526,32.2S463.708,210.491,448.543,240.6Z" transform="translate(-210.223 -106.615)" fill="#fff"/>
      <path id="Path_146" data-name="Path 146" d="M395.186,197.893c-13.428-10.746-24.572-19.648-26.318-21.027-4.783-3.779-8.265-3.612-10.837-5.913s-3.863-3.936-14.329-3.779-24.433-4.925-27.553-6.735-7.531-.49-10.475-1.511-10.466-.125-15.063,0-4.959-4.069-3.12-8.836,15.787-7.715,17.644-6.735,9.184-1.8,9.184-1.8c-1.105-3.455-.734-11.834-.734-11.834s-7.717-2.956-10.652-3.936a20.872,20.872,0,0,0-6.983-.656s.929-3.77,2.387-5.174,8.451-2.716,15.248-6.984,11.023-5.257,12.072-4.933,8.636,2.3,10.661,2.3c1.532,0,3.6-.947,5.8-1.188-1.783.889-3.018,2.583-2.684,3.488.529,1.428,2.024,5.066,2.108,5.3-.4-.349-10.029-8.853-16.251-8.412-5.377.374-10.837,8.471-9.918,14.417s-1.309,5.946-.1,10.381,2.3,10.68.464,13.146-5.507-1.918-5.507-1.918a7.942,7.942,0,0,0-4.643,6.843c0,4.767,5.572,5.091,8.859,5.589s15.416,6.436,23.7,6.752l8.284.307s-4.783-5.813-2.786-6.112a13.634,13.634,0,0,1,12.072,5.813c3.993,5.581,7.058,6.818,14.459,9.558C374.551,175.869,386.085,187.006,395.186,197.893Z" transform="translate(-210.263 -107.982)" fill="#ffa400" opacity="0.12"/>
      <path id="Path_147" data-name="Path 147" d="M436.977,167.154c-1.124-.473-37.146-15.654-38.957-17.921s-4.04-2.824-6.064-5.107-8.813-3.762-9.732-6.884-2.024-12.6-3.715-13.769a31.623,31.623,0,0,0-4.4-2.408l2.73,6.087s-6.222-7.881-7.7-8.1,1.6,5.73,1.328,5.547-7.011-5.813-12.658-10.082a9.3,9.3,0,0,0,2.145.83c2.4.49,3.12.938,6.25.938,1.374,0,6.983,3.662,6.983,3.662a31.259,31.259,0,0,1,6.8,1.968c3.482,1.478,7.16,8.545,8.813,10.846s1.857,7.881,1.857,7.881,4.411,2.134,6.064,5.091C397.714,147.53,419.435,158.5,436.977,167.154Z" transform="translate(-215.317 -107.723)" fill="#ffa400" opacity="0.4"/>
      <path id="Path_148" data-name="Path 148" d="M443.09,177.91Z" transform="translate(-221.402 -118.471)" fill="#92e3a9" opacity="0.4"/>
      <path id="Path_149" data-name="Path 149" d="M448.543,240.6s-74.942-59.958-79.715-63.737-8.265-3.612-10.837-5.913-3.863-3.936-14.329-3.779-24.433-4.925-27.553-6.735-7.531-.49-10.475-1.511-10.466-.125-15.063,0-4.959-4.069-3.12-8.836,15.787-7.715,17.644-6.735,9.184-1.8,9.184-1.8c-1.105-3.455-.734-11.834-.734-11.834s-7.717-2.956-10.652-3.936a20.872,20.872,0,0,0-6.983-.656s.929-3.77,2.387-5.174,8.451-2.716,15.248-6.984,11.023-5.257,12.072-4.933,8.636,2.3,10.661,2.3,4.959-1.661,7.894-1.146,8.265,4.6,10.652,5.091,3.12.938,6.25.938c1.374,0,6.983,3.662,6.983,3.662a31.257,31.257,0,0,1,6.8,1.968c3.482,1.478,7.16,8.545,8.813,10.846s1.857,7.881,1.857,7.881,4.411,2.134,6.064,5.091,62.526,32.2,62.526,32.2" transform="translate(-210.223 -106.615)" fill="none" stroke="#263238" stroke-linecap="round" stroke-linejoin="round" stroke-width="1"/>
      <path id="Path_150" data-name="Path 150" d="M315.66,132.658s.854-6.461,0-7.358" transform="translate(-212.31 -109.551)" fill="none" stroke="#263238" stroke-linecap="round" stroke-linejoin="round" stroke-width="1"/>
      <path id="Path_151" data-name="Path 151" d="M340.05,115.11s12.5,9.459,13.475,10.04" transform="translate(-214.05 -107.824)" fill="none" stroke="#263238" stroke-linecap="round" stroke-linejoin="round" stroke-width="1"/>
      <path id="Path_152" data-name="Path 152" d="M352.69,111.28c1.718.955,15.573,11.942,20.105,14.458" transform="translate(-214.952 -107.174)" fill="none" stroke="#263238" stroke-linecap="round" stroke-linejoin="round" stroke-width="1"/>
      <path id="Path_153" data-name="Path 153" d="M392.8,145.3c-1.347-.706-4.9-2.242-5.265-3.446" transform="translate(-217.438 -112.357)" fill="none" stroke="#263238" stroke-linecap="round" stroke-linejoin="round" stroke-width="1"/>
      <path id="Path_154" data-name="Path 154" d="M316.45,148.41s.734,2.682,0,3.994" transform="translate(-212.366 -113.47)" fill="none" stroke="#263238" stroke-linecap="round" stroke-linejoin="round" stroke-width="1"/>
      <path id="Path_155" data-name="Path 155" d="M304.552,158.63a6.072,6.072,0,0,0,2.331,7.117" transform="translate(-211.492 -115.202)" fill="none" stroke="#263238" stroke-linecap="round" stroke-linejoin="round" stroke-width="1"/>
      <path id="Path_156" data-name="Path 156" d="M322.332,109.84a8.055,8.055,0,0,0-2.452,4.376" transform="translate(-212.611 -106.93)" fill="none" stroke="#263238" stroke-linecap="round" stroke-linejoin="round" stroke-width="1"/>
      <path id="Path_157" data-name="Path 157" d="M302,125.3a7.938,7.938,0,0,0,4.773,4.376" transform="translate(-211.335 -109.551)" fill="none" stroke="#263238" stroke-linecap="round" stroke-linejoin="round" stroke-width="1"/>
      <path id="Path_158" data-name="Path 158" d="M360.546,179.811A83.5,83.5,0,0,0,352.69,171" transform="translate(-214.952 -117.3)" fill="none" stroke="#263238" stroke-linecap="round" stroke-linejoin="round" stroke-width="1"/>
    </g>
    <g id="freepik--left-hand--inject-2" transform="translate(81.883 326.611)">
      <path id="Path_159" data-name="Path 159" d="M84.49,426.043s59.991-35.261,63.659-39.812a37.047,37.047,0,0,1,6.612-6.644s1.718-13.146,6.129-19.931,6.12-11.834,8.079-15.338,11.265-6.129,13.93-7.474,7.355-3.945,10.048-3.945a16.417,16.417,0,0,1,5.878,1.536s9.064-4.152,13.224-1.536c0,0,10.289.44,12.732.216s6.129,1.32,6.129,1.32,6.12-3.936,10.28-2.408,6.148,2.184,6.259,4.376-1.031,9.633-1.031,9.633h-2.043s-6.853,7.981-7.587,9.575-4.643,10.356-4.643,10.356,5.135-3.5,8.358-6.129,8.822-7.665,14.7-8.977,10.039,1.619,10.039,4.75c0,0-6.853,4.883-8.358,6.419s-4.123,5.473-7.076,8.3-9.76,14.757-15.685,20.446-31.574,17.954-37.48,19.707c0,0-35.753,22.339-51.429,41.174C145.214,451.662,102.608,451.887,84.49,426.043Z" transform="translate(-84.49 -331.676)" fill="#fff"/>
      <path id="Path_160" data-name="Path 160" d="M206.311,420.675c.511.465,2.6.747,5.572.83a95.264,95.264,0,0,1-9.714,4.019s-23.383,14.608-40.619,30.162c5.934-8.446,17.329-18.984,21.563-21.176,5.9-3.073,17.226-12.988,17.226-12.988S204.612,419.138,206.311,420.675Z" transform="translate(-89.988 -346.678)" fill="#ffa400" opacity="0.4"/>
      <path id="Path_161" data-name="Path 161" d="M241.118,359.9a69.482,69.482,0,0,1,8.042-6.087,36.64,36.64,0,0,0-7.281,10.032c-1.133,5.506-11.757,16.858-11.757,16.858,3.427-9.849.483-11.826,1.449-14.674s1.588-9.833,1.588-9.833,1.857-2.865,3.817-3.521,7.1-12.266,8.061-13.835-6.343-4.152-8.3-4.343-2.693,2.84-6.612,4.343-8.841,4.26-10.652,5.871-4.959,8.736-5.163,9.176c.139-.5,2.359-8.5,2.935-10.09.483-1.329,5.191-3.779,6.937-4.651-2.9,1.2-4.523-1.08-6.937-3.156-2.591-2.226-6.454-2.931-10.679-1.777s-7.058,4-7.076,3.787-6.315-1.2-8.358-.664-6.761,2.45-6.761,2.45-4.29-2.209-11.339,4.011c-2.944,2.6-12.741,22.422-11.274,20.047s7.866-9.467,8.265-9.907c-.427.93-13.419,27.006-16.075,28.667s-3.427,7.54-13,12.365c-9.082,4.576-44.111,24.266-47.584,26.217,16.614-9.874,52.6-31.457,55.385-34.954a37.049,37.049,0,0,1,6.612-6.644s1.718-13.146,6.129-19.931,6.12-11.834,8.079-15.338,11.265-6.129,13.93-7.474,7.355-3.945,10.048-3.945a16.415,16.415,0,0,1,5.878,1.536s9.064-4.152,13.224-1.536c0,0,10.289.44,12.732.216s6.129,1.32,6.129,1.32,6.12-3.936,10.28-2.408,6.148,2.184,6.259,4.376-1.031,9.633-1.031,9.633h-2.043s-6.853,7.981-7.587,9.575-4.643,10.356-4.643,10.356S237.9,362.522,241.118,359.9Z" transform="translate(-85.123 -331.676)" fill="#ffa400" opacity="0.4"/>
      <path id="Path_162" data-name="Path 162" d="M278.182,360.5s-6.853,4.883-8.358,6.419c-.882.922-2.192,2.716-3.715,4.617a33.106,33.106,0,0,0,1.569-6.81,10.986,10.986,0,0,1,10.522-4.468A1.123,1.123,0,0,1,278.182,360.5Z" transform="translate(-97.449 -336.507)" fill="#ffa400" opacity="0.4"/>
      <path id="Path_163" data-name="Path 163" d="M84.49,426.043s59.991-35.261,63.659-39.812a37.047,37.047,0,0,1,6.612-6.644s1.718-13.146,6.129-19.931,6.12-11.834,8.079-15.338,11.265-6.129,13.93-7.474,7.355-3.945,10.048-3.945a16.417,16.417,0,0,1,5.878,1.536s9.064-4.152,13.224-1.536c0,0,10.289.44,12.732.216s6.129,1.32,6.129,1.32,6.12-3.936,10.28-2.408,6.148,2.184,6.259,4.376-1.031,9.633-1.031,9.633h-2.043s-6.853,7.981-7.587,9.575-4.643,10.356-4.643,10.356,5.135-3.5,8.358-6.129,8.822-7.665,14.7-8.977,10.039,1.619,10.039,4.75c0,0-6.853,4.883-8.358,6.419s-4.123,5.473-7.076,8.3-9.76,14.757-15.685,20.446-31.574,17.954-37.48,19.707c0,0-35.753,22.339-51.429,41.174" transform="translate(-84.49 -331.676)" fill="none" stroke="#263238" stroke-linecap="round" stroke-linejoin="round" stroke-width="1"/>
      <path id="Path_164" data-name="Path 164" d="M243.4,373s1.467,6.577-1.477,12.457" transform="translate(-95.723 -338.682)" fill="none" stroke="#263238" stroke-linecap="round" stroke-linejoin="round" stroke-width="1"/>
      <path id="Path_165" data-name="Path 165" d="M233.22,340.1a31.023,31.023,0,0,0,8.358-5.033" transform="translate(-95.102 -332.251)" fill="none" stroke="#263238" stroke-linecap="round" stroke-linejoin="round" stroke-width="1"/>
      <path id="Path_166" data-name="Path 166" d="M256.69,348.062a14.659,14.659,0,0,0,1.6-4.592" transform="translate(-96.776 -333.675)" fill="none" stroke="#263238" stroke-linecap="round" stroke-linejoin="round" stroke-width="1"/>
      <path id="Path_167" data-name="Path 167" d="M221.249,333.219a13.657,13.657,0,0,0-8.209,2.491" transform="translate(-93.662 -331.937)" fill="none" stroke="#263238" stroke-linecap="round" stroke-linejoin="round" stroke-width="1"/>
      <path id="Path_168" data-name="Path 168" d="M206.36,335.07s-7.346,3.064-9.918,3.064-6.742,3.064-6.742,3.945" transform="translate(-91.997 -332.251)" fill="none" stroke="#263238" stroke-linecap="round" stroke-linejoin="round" stroke-width="1"/>
      <path id="Path_169" data-name="Path 169" d="M160.16,387.454a43.694,43.694,0,0,0,5.275-9.534" transform="translate(-89.889 -339.516)" fill="none" stroke="#263238" stroke-linecap="round" stroke-linejoin="round" stroke-width="1"/>
      <path id="Path_170" data-name="Path 170" d="M233.763,343.51s-4.643,1.088-6.241,4.592-8.943,15.662-8.943,15.662" transform="translate(-94.057 -333.682)" fill="none" stroke="#263238" stroke-linecap="round" stroke-linejoin="round" stroke-width="1"/>
      <path id="Path_171" data-name="Path 171" d="M208.827,341.13c-.984,2.084-12.007,20.371-12.007,20.371" transform="translate(-92.505 -333.279)" fill="none" stroke="#263238" stroke-linecap="round" stroke-linejoin="round" stroke-width="1"/>
    </g>
  </g>
</svg>
