<svg xmlns="http://www.w3.org/2000/svg" width="353" height="355" viewBox="0 0 353 355">
  <g id="Questions-cuate" transform="translate(-38.37 -35.177)">
    <g id="freepik--background-complete--inject-7" transform="translate(42.829 35.938)">
      <rect id="Rectangle_60" data-name="Rectangle 60" width="138.891" height="6.093" transform="translate(149.652 77.002) rotate(180)" fill="#ebebeb"/>
      <rect id="Rectangle_61" data-name="Rectangle 61" width="6.093" height="20.146" transform="translate(135.846 77.01)" fill="#ebebeb"/>
      <rect id="Rectangle_62" data-name="Rectangle 62" width="6.093" height="6.226" transform="translate(135.846 77.01)" fill="#dbdbdb"/>
      <rect id="Rectangle_63" data-name="Rectangle 63" width="6.093" height="20.146" transform="translate(18.538 77.01)" fill="#ebebeb"/>
      <rect id="Rectangle_64" data-name="Rectangle 64" width="6.093" height="6.226" transform="translate(18.538 77.01)" fill="#dbdbdb"/>
      <rect id="Rectangle_65" data-name="Rectangle 65" width="38.818" height="9.777" transform="translate(123.789 32.099) rotate(90)" fill="#c7c7c7"/>
      <rect id="Rectangle_66" data-name="Rectangle 66" width="4.268" height="9.777" transform="translate(123.789 30.024) rotate(90)" fill="#dbdbdb"/>
      <rect id="Rectangle_67" data-name="Rectangle 67" width="1.584" height="9.777" transform="translate(123.789 39.751) rotate(90)" fill="#dbdbdb"/>
      <rect id="Rectangle_68" data-name="Rectangle 68" width="4.268" height="10.994" transform="translate(123.789 61.556) rotate(90)" fill="#dbdbdb"/>
      <rect id="Rectangle_69" data-name="Rectangle 69" width="45.286" height="6.835" transform="translate(114.007 25.631) rotate(90)" fill="#dbdbdb"/>
      <rect id="Rectangle_70" data-name="Rectangle 70" width="17.412" height="4.101" transform="translate(112.674 29.89) rotate(90)" fill="#ebebeb"/>
      <rect id="Rectangle_71" data-name="Rectangle 71" width="45.286" height="6.835" transform="matrix(-0.711, 0.703, -0.703, -0.711, 95.562, 39.095)" fill="#c7c7c7"/>
      <rect id="Rectangle_72" data-name="Rectangle 72" width="17.412" height="4.101" transform="matrix(-0.711, 0.703, -0.703, -0.711, 82.319, 50.233)" fill="#dbdbdb"/>
      <rect id="Rectangle_73" data-name="Rectangle 73" width="34.392" height="11.603" transform="translate(107.174 36.525) rotate(90)" fill="#a6a6a6"/>
      <rect id="Rectangle_74" data-name="Rectangle 74" width="3.209" height="11.603" transform="translate(107.174 64.074) rotate(90)" fill="#c7c7c7"/>
      <rect id="Rectangle_75" data-name="Rectangle 75" width="1.242" height="11.603" transform="translate(107.174 60.723) rotate(90)" fill="#c7c7c7"/>
      <rect id="Rectangle_76" data-name="Rectangle 76" width="32.324" height="8.01" transform="translate(131.813 38.601) rotate(90)" fill="#a6a6a6"/>
      <rect id="Rectangle_77" data-name="Rectangle 77" width="3.009" height="8.01" transform="translate(131.813 64.482) rotate(90)" fill="#c7c7c7"/>
      <rect id="Rectangle_78" data-name="Rectangle 78" width="3.009" height="8.01" transform="translate(131.813 45.261) rotate(90)" fill="#c7c7c7"/>
      <rect id="Rectangle_79" data-name="Rectangle 79" width="1.167" height="8.01" transform="translate(131.805 50.337) rotate(90)" fill="#c7c7c7"/>
      <path id="Path_175" data-name="Path 175" d="M90.163,71.486C97,78.154,98.149,88.54,96.707,97.609c0,.2-.358.15-.358-.05,0-2.059.067-4.109.058-6.143a.7.7,0,0,0-.108-.275,13.778,13.778,0,0,1-4.443-4.776c-1.142-2.242-1.592-4.776-2.459-7.127-.083-.225.158-.158.308-.042,4.168,3.067,5.485,6.368,6.668,10.778a37.043,37.043,0,0,0-.725-6.868A23.414,23.414,0,0,0,89.98,71.669a.133.133,0,0,1,.183-.183Z" transform="translate(-51.321 -41.979)" fill="#a6a6a6"/>
      <path id="Path_176" data-name="Path 176" d="M87.54,71.2c-1.184,0-1.917,1.917-2.834,2.5a.884.884,0,0,1-1.3-.208c-.909-1.267.342-2.826,1.509-3.7a12.828,12.828,0,0,1-2.434,1.05.834.834,0,0,1-1.1-.659c-.4-1.725,1.767-2.5,3.259-2.5-.725-.5-2.792-1.859-1.667-2.5S86.515,66.459,87.3,67.1c1.167.942,2.551,2.359,2.609,3.834C89.949,72.619,88.44,71.561,87.54,71.2Z" transform="translate(-49.981 -40.912)" fill="#dbdbdb"/>
      <path id="Path_177" data-name="Path 177" d="M88.209,71.8c-1.5-.692-4.393.3-4.634-.275-.5-1.159,1.809-1.95,3.059-2.109-1.15-.308-3.334-.834-3.284-1.909.083-1.35,3.376-.192,5.043,1.084,2.092,1.609,2.084,3.167,1.734,3.476C89.651,72.494,88.459,71.91,88.209,71.8Z" transform="translate(-50.317 -41.22)" fill="#ebebeb"/>
      <path id="Path_178" data-name="Path 178" d="M107.435,70.691c-7.085,6.427-8.627,16.729-7.5,25.839,0,.208.35.167.358,0,.075-2.059.092-4.109.175-6.143l.117-.275A13.67,13.67,0,0,0,105.2,85.52c1.234-2.2,1.775-4.718,2.734-7.027.092-.225-.15-.167-.308-.058-4.276,2.909-5.726,6.16-7.085,10.519a36.925,36.925,0,0,1,.984-6.835A23.414,23.414,0,0,1,107.644,70.9a.147.147,0,0,0-.208-.208Z" transform="translate(-53.022 -41.843)" fill="#a6a6a6"/>
      <path id="Path_179" data-name="Path 179" d="M110.034,70.478c1.175.083,1.842,1.992,2.734,2.576a.884.884,0,0,0,1.309-.158c.959-1.234-.233-2.842-1.367-3.759a13.187,13.187,0,0,0,2.392,1.217.834.834,0,0,0,1.125-.617c.458-1.717-1.667-2.567-3.159-2.659.734-.475,2.851-1.759,1.784-2.5s-3.568,1.159-4.4,1.784c-1.2.9-2.634,2.259-2.742,3.726C107.575,71.8,109.117,70.8,110.034,70.478Z" transform="translate(-54.371 -40.804)" fill="#dbdbdb"/>
      <path id="Path_180" data-name="Path 180" d="M109.663,71.054c1.534-.625,4.376.467,4.643-.092.542-1.134-1.734-2.017-2.967-2.217,1.159-.267,3.334-.683,3.334-1.792,0-1.35-3.334-.317-5.076.9-2.151,1.525-2.2,3.076-1.867,3.4C108.2,71.712,109.413,71.179,109.663,71.054Z" transform="translate(-54.35 -41.122)" fill="#ebebeb"/>
      <path id="Path_181" data-name="Path 181" d="M99.189,86.266a68.347,68.347,0,0,1-2.2,10.161.251.251,0,0,1-.492-.1c.467-3.134,1.317-6.21,1.775-9.336a46.811,46.811,0,0,0,.55-9.594c-.3-5.276-1.734-10.894-5.176-15-.075-.1.083-.242.158-.15,6.9,8.044,5.835,17.9,5.835,18.788.975-3.334,1.984-7.143,5.676-10.536.158-.15.283-.075.258.175-.658,6.168-2.376,9.394-5.96,12.695C99.472,84.324,99.347,85.3,99.189,86.266Z" transform="translate(-52.028 -40.439)" fill="#a6a6a6"/>
      <path id="Path_182" data-name="Path 182" d="M92.382,61.811c-1.242-.55-2.951,1.025-4.168,1.134a1.017,1.017,0,0,1-1.242-.834c-.308-1.767,1.775-2.767,3.426-3.084a15.321,15.321,0,0,1-3.092-.058.984.984,0,0,1-.834-1.242c.458-1.992,3.092-1.667,4.659-.992-.5-.834-1.959-3.334-.483-3.476s3.034,3.1,3.526,4.168c.734,1.567,1.467,3.726.775,5.285C94.175,64.5,93.141,62.636,92.382,61.811Z" transform="translate(-50.831 -38.947)" fill="#dbdbdb"/>
      <path id="Path_183" data-name="Path 183" d="M92.886,62.633c-1.217-1.459-4.709-1.892-4.676-2.609.067-1.45,2.859-1.117,4.234-.65-1.034-.9-3.067-2.5-2.442-3.634.767-1.359,3.593,1.5,4.684,3.668,1.367,2.726.567,4.326.05,4.476C94.028,64.083,93.086,62.883,92.886,62.633Z" transform="translate(-51.126 -39.302)" fill="#ebebeb"/>
      <path id="Path_184" data-name="Path 184" d="M102.66,93.285l3.042,23.239H87.19c.383-2.059,3.826-23.264,3.826-23.264Z" transform="translate(-50.956 -45.607)" fill="#dbdbdb"/>
      <path id="Path_185" data-name="Path 185" d="M369.809,93.867a16.862,16.862,0,0,1,2.7-5.943,10.457,10.457,0,0,1,5.885-3.634c.834-.25,1.809-.517,2.984-.834a22,22,0,0,0,3.534-1.184,11.512,11.512,0,0,0,3.176-2.025A6.277,6.277,0,0,0,390,77.005a5.885,5.885,0,0,0,.092-2.759,6.2,6.2,0,0,0-1-2.284,6.377,6.377,0,0,0-1.867-1.717,8.428,8.428,0,0,0-2.417-1.017,7.4,7.4,0,0,0-3-.142,10.136,10.136,0,0,0-2.634.767,11.437,11.437,0,0,0-2.3,1.375,21.6,21.6,0,0,0-1.875,1.6l-5.085-5.835a14.17,14.17,0,0,1,3.417-3.284,15.379,15.379,0,0,1,4.168-1.992,16.929,16.929,0,0,1,4.651-.709,18.338,18.338,0,0,1,4.826.575,19.238,19.238,0,0,1,5.11,2.109,13.887,13.887,0,0,1,4.084,3.668,13.161,13.161,0,0,1,2.3,5.21,14.537,14.537,0,0,1-.283,6.668,14.078,14.078,0,0,1-1.534,3.868,11.494,11.494,0,0,1-2.317,2.767,14.029,14.029,0,0,1-2.976,1.959,27.109,27.109,0,0,1-3.593,1.425c-1.092.333-2.167.633-3.242.917a17.428,17.428,0,0,0-3.017,1.084,8.669,8.669,0,0,0-2.5,1.717,5.985,5.985,0,0,0-1.5,2.817ZM365.8,110.4l2.459-9.769,7.86,1.975-2.459,9.769Z" transform="translate(-97.137 -40.238)" fill="#ebebeb"/>
      <path id="Path_186" data-name="Path 186" d="M70.209,315.331a12.411,12.411,0,0,1,.133,4.809,7.885,7.885,0,0,1-2.7,4.318c-.467.425-1.042.925-1.725,1.492a15.784,15.784,0,0,0-1.959,1.925,8.41,8.41,0,0,0-1.459,2.367,4.643,4.643,0,0,0-.217,2.767,4.468,4.468,0,0,0,.834,1.867,4.643,4.643,0,0,0,1.4,1.192,4.76,4.76,0,0,0,1.792.525,6.253,6.253,0,0,0,1.934-.1,5.534,5.534,0,0,0,2.025-.833,7.328,7.328,0,0,0,1.5-1.359,8.736,8.736,0,0,0,1.084-1.667,14.268,14.268,0,0,0,.725-1.667l5.251,2.2a10.5,10.5,0,0,1-1.217,3.284,11.212,11.212,0,0,1-2.134,2.676,12.129,12.129,0,0,1-2.859,1.975,13.671,13.671,0,0,1-3.384,1.175,14.169,14.169,0,0,1-4.068.258,10.269,10.269,0,0,1-3.893-1.109,9.81,9.81,0,0,1-3.217-2.717A10.761,10.761,0,0,1,56.1,334.2a10.2,10.2,0,0,1-.233-3.059,8.335,8.335,0,0,1,.642-2.584,9.861,9.861,0,0,1,1.342-2.259,19.169,19.169,0,0,1,1.917-2.117c.617-.567,1.234-1.117,1.859-1.667a13.2,13.2,0,0,0,1.667-1.667,6.285,6.285,0,0,0,1.017-1.942,4.376,4.376,0,0,0,.083-2.359ZM67.525,303.07l1.525,7.277-5.835,1.225L61.691,304.3Z" transform="translate(-45.737 -80.534)" fill="#ebebeb"/>
      <path id="Path_187" data-name="Path 187" d="M385.541,226.552a12.5,12.5,0,0,1,2.125,4.318,7.9,7.9,0,0,1-.692,5.06c-.242.583-.558,1.275-.942,2.076a15.177,15.177,0,0,0-.984,2.567,8.393,8.393,0,0,0-.342,2.759,4.718,4.718,0,0,0,.95,2.609,4.367,4.367,0,0,0,1.534,1.342,4.583,4.583,0,0,0,1.775.5,4.635,4.635,0,0,0,1.85-.258,6.443,6.443,0,0,0,1.709-.9,5.4,5.4,0,0,0,1.492-1.6,7.2,7.2,0,0,0,.834-1.867,9.12,9.12,0,0,0,.292-1.959,15.825,15.825,0,0,0,0-1.809l5.685-.183a10.311,10.311,0,0,1,.267,3.484,11.453,11.453,0,0,1-.833,3.334,12.42,12.42,0,0,1-1.784,2.984,13.751,13.751,0,0,1-2.584,2.5,14.12,14.12,0,0,1-3.6,1.925,10.3,10.3,0,0,1-4,.608,9.878,9.878,0,0,1-4.051-1.125,10.836,10.836,0,0,1-3.659-3.292,10.228,10.228,0,0,1-1.484-2.684,8.251,8.251,0,0,1-.492-2.617,9.954,9.954,0,0,1,.275-2.617,20.008,20.008,0,0,1,.875-2.717c.325-.775.65-1.534,1-2.276a12.5,12.5,0,0,0,.834-2.226,6.443,6.443,0,0,0,.183-2.209,4.385,4.385,0,0,0-.909-2.176Zm-7.5-10,4.409,5.976-4.809,3.551L373.23,220.1Z" transform="translate(-98.374 -66.131)" fill="#ebebeb"/>
      <path id="Path_188" data-name="Path 188" d="M419.786,204.765a13.561,13.561,0,0,1,.95-5.21,8.6,8.6,0,0,1,3.9-4.026c.592-.358,1.325-.759,2.192-1.217a17.177,17.177,0,0,0,2.5-1.625,8.985,8.985,0,0,0,2.1-2.217,5.1,5.1,0,0,0,.834-2.934,4.818,4.818,0,0,0-1.717-3.784,5.076,5.076,0,0,0-1.8-.975,6.994,6.994,0,0,0-2.1-.325,6.177,6.177,0,0,0-2.367.442,8.46,8.46,0,0,0-1.925,1.125,9.309,9.309,0,0,0-1.542,1.542,16.514,16.514,0,0,0-1.15,1.625l-5.151-3.551a11.586,11.586,0,0,1,2.042-3.259,12.686,12.686,0,0,1,2.9-2.392,13.787,13.787,0,0,1,3.526-1.484,15.17,15.17,0,0,1,3.9-.5,15.537,15.537,0,0,1,4.443.65,11.228,11.228,0,0,1,3.934,2.076,10.836,10.836,0,0,1,2.842,3.634,11.961,11.961,0,0,1,1.159,5.31,11.592,11.592,0,0,1-.442,3.334,9.525,9.525,0,0,1-1.275,2.634,10.951,10.951,0,0,1-1.951,2.125,21.85,21.85,0,0,1-2.551,1.834c-.784.475-1.575.934-2.367,1.367a14.355,14.355,0,0,0-2.159,1.45,6.916,6.916,0,0,0-1.592,1.834,4.776,4.776,0,0,0-.625,2.5Zm.117,13.787v-8.169h6.568v8.169Z" transform="translate(-105.245 -59.381)" fill="#ebebeb"/>
      <path id="Path_189" data-name="Path 189" d="M172.436,261.337a13.6,13.6,0,0,1-.15-5.293,8.594,8.594,0,0,1,2.984-4.743c.508-.475,1.134-1.017,1.892-1.667a19.034,19.034,0,0,0,2.15-2.117,9.452,9.452,0,0,0,1.592-2.609,5.085,5.085,0,0,0,.233-3.042,4.876,4.876,0,0,0-.917-2.05,5,5,0,0,0-1.55-1.25,5.1,5.1,0,0,0-1.967-.583,7.193,7.193,0,0,0-2.117.117,6.218,6.218,0,0,0-2.226.925,8.394,8.394,0,0,0-1.667,1.5,9.634,9.634,0,0,0-1.184,1.825,16.248,16.248,0,0,0-.834,1.834L163,241.749a11.57,11.57,0,0,1,1.325-3.609,12.311,12.311,0,0,1,2.342-2.942,13.437,13.437,0,0,1,3.134-2.184,15.6,15.6,0,0,1,3.718-1.3A15.77,15.77,0,0,1,178,231.43a11.319,11.319,0,0,1,4.276,1.209,10.66,10.66,0,0,1,3.534,2.976,13.1,13.1,0,0,1,2.434,8.335,9.368,9.368,0,0,1-.7,2.834,11.061,11.061,0,0,1-1.467,2.5,23.139,23.139,0,0,1-2.109,2.326c-.675.625-1.35,1.234-2.034,1.817a14.7,14.7,0,0,0-1.817,1.867,7.243,7.243,0,0,0-1.184,2.125,4.9,4.9,0,0,0-.083,2.592Zm2.976,13.462-1.667-7.985,6.427-1.367,1.667,7.994Z" transform="translate(-63.514 -68.6)" fill="#ebebeb"/>
      <path id="Path_190" data-name="Path 190" d="M414.745,342.944l11.136-.233,5.485-.092c1.825-.042,3.634,0,5.451-.05l-.367.375-.05-9.327.417.417-11.061-.05c-3.676,0-7.352-.1-11.036-.142l.233-.225c0,1.525-.075,3.059-.117,4.618Zm0,0-.117-4.618c0-1.55-.092-3.126-.108-4.709v-.225h.225c3.684-.042,7.36-.133,11.036-.142l11.036-.05h.417v10.119h-.375c-1.859,0-3.726,0-5.576-.05l-5.551-.092Z" transform="translate(-105.247 -85.549)" fill="#ebebeb"/>
      <path id="Path_191" data-name="Path 191" d="M429.515,357.054l11.136-.233,5.485-.092c1.825-.042,3.634,0,5.451-.05l-.367.375-.042-9.327.408.417-11.036-.05c-3.676,0-7.352-.1-11.036-.142l.233-.225c0,1.525-.075,3.059-.108,4.618Zm0,0-.117-4.618c0-1.55-.092-3.126-.108-4.709V347.5h.225c3.684-.042,7.36-.133,11.036-.142l11.036-.05h.425v.417l-.05,9.327v.375h-.408c-1.859,0-3.718,0-5.576-.05l-5.551-.092Z" transform="translate(-107.706 -87.898)" fill="#ebebeb"/>
      <path id="Path_192" data-name="Path 192" d="M399.955,357.054l11.136-.233,5.485-.092c1.817-.042,3.634,0,5.451-.05l-.367.375-.033-9.327.417.417-11.036-.05c-3.676,0-7.36-.1-11.036-.142l.225-.225c0,1.525-.067,3.059-.108,4.618Zm0,0-.117-4.618c-.042-1.55-.092-3.126-.108-4.709V347.5h.225c3.676-.042,7.36-.133,11.036-.142l11.036-.05h.417v.417l.017,9.327v.375h-.367c-1.859,0-3.726,0-5.576-.05l-5.551-.092Z" transform="translate(-102.785 -87.898)" fill="#ebebeb"/>
      <path id="Path_193" data-name="Path 193" d="M58.683,357.054l11.128-.233,5.485-.092c1.825-.042,3.643,0,5.46-.05l-.375.375-.042-9.327.417.417-11.011-.05c-3.684,0-7.36-.1-11.036-.142l.225-.225c0,1.525-.075,3.059-.108,4.618Zm0,0-.125-4.618c0-1.55-.092-3.126-.108-4.709V347.5h.233c3.676-.042,7.352-.133,11.036-.142l11.036-.05h.417v.417l-.05,9.327v.375h-.367c-1.859,0-3.726,0-5.585-.05l-5.551-.092Z" transform="translate(-46.172 -87.898)" fill="#ebebeb"/>
      <path id="Path_194" data-name="Path 194" d="M58.683,45.826l11.128-.233,5.485-.1h5.46l-.375.375-.042-9.327.417.408-11.011-.1c-3.684,0-7.36-.092-11.036-.133l.225-.225c0,1.525-.075,3.059-.108,4.609Zm0,0-.125-4.618c0-1.559-.092-3.134-.108-4.709v-.225h.233c3.676,0,7.352-.133,11.036-.133l11.036-.05h.417v.425l-.05,9.327v.367h-.367c-1.859,0-3.726,0-5.585-.042l-5.551-.15Z" transform="translate(-46.172 -36.09)" fill="#ebebeb"/>
      <path id="Path_195" data-name="Path 195" d="M43.953,59.936,55.081,59.7l5.485-.1h5.46l-.375.375V50.65l.417.408-11.111-.092c-3.684,0-7.36-.1-11-.1l.225-.225c0,1.525-.075,3.059-.108,4.609Zm0,0-.125-4.618c0-1.559-.092-3.134-.108-4.709v-.225h.233c3.676,0,7.352-.133,11.036-.133l11.036-.05h.417v.425l-.05,9.327v.367H60.441l-5.551-.1Z" transform="translate(-43.72 -38.439)" fill="#ebebeb"/>
      <path id="Path_196" data-name="Path 196" d="M429.515,45.834l11.136-.233,5.485-.092c1.825,0,3.634,0,5.451-.05l-.367.375-.042-9.327.408.417-11.036-.075c-3.676,0-7.352-.092-11.036-.133l.233-.225c0,1.525-.075,3.059-.108,4.609Zm0,0-.117-4.618c0-1.559-.092-3.126-.108-4.709v-.225h.225c3.684-.042,7.36-.125,11.036-.133l11-.058h.425v.417l-.042,9.327v.375h-5.96l-5.551-.092Z" transform="translate(-107.706 -36.09)" fill="#ebebeb"/>
      <path id="Path_197" data-name="Path 197" d="M281.719,192.752l-11.128.233-5.485.092c-1.825.042-3.643,0-5.46.05l.375-.375.042,9.327-.417-.417,11.036.058c3.684,0,7.36.092,11.036.133l-.225.225c0-1.525.075-3.059.108-4.609Zm0,0,.125,4.618c0,1.559.092,3.126.108,4.709v.225h-.233c-3.676,0-7.352.125-11.036.133l-11.036.05h-.417v-.425l.05-9.327v-.375h.367c1.859,0,3.726,0,5.585.042l5.551.092Z" transform="translate(-79.484 -62.104)" fill="#ebebeb"/>
      <path id="Path_198" data-name="Path 198" d="M266.947,178.643l-11.128.233-5.485.092c-1.825,0-3.643,0-5.46.05l.375-.375.042,9.327-.417-.417,11.036.058c3.676,0,7.36.092,11.036.133l-.225.225c0-1.525.067-3.059.108-4.609Zm0,0,.117,4.618c.042,1.559.1,3.126.108,4.709v.225h-.233c-3.676.042-7.36.125-11.036.133l-11.036.05h-.417v-.417l.05-9.327v-.375h.408c1.859,0,3.726,0,5.585.042l5.551.092Z" transform="translate(-77.031 -59.757)" fill="#ebebeb"/>
    </g>
    <g id="freepik--Floor--inject-7" transform="translate(38.37 346.684)">
      <path id="Path_199" data-name="Path 199" d="M38.37,409.437l44.127-.2,44.127-.075,88.246-.142,88.246.142,44.127.075,44.127.2-44.127.208-44.127.075-88.246.133-88.246-.133L82.5,409.645Z" transform="translate(-38.37 -409.02)" fill="#263238"/>
    </g>
    <g id="freepik--Shadow--inject-7" transform="translate(64.41 360.904)">
      <ellipse id="Ellipse_1" data-name="Ellipse 1" cx="150.46" cy="14.637" rx="150.46" ry="14.637" transform="translate(0)" fill="#ebebeb"/>
    </g>
    <g id="freepik--Plant--inject-7" transform="translate(289.671 227.863)">
      <path id="Path_200" data-name="Path 200" d="M421.636,298.334c-3.167-3.1-7.26-6.852-12.1-5.51-4.551,1.259-6.293,6.227-7.11,10.369-1.05,5.343-1.867,10.728-2.717,16.1s-1.667,10.836-2.442,16.3q-.667,4.6-1.3,9.211-.325,2.3-.642,4.6c-.208,1.509-.458,3.017-.542,4.534a.425.425,0,0,0,.834.092c.592-2.559.834-5.226,1.209-7.819s.759-5.235,1.134-7.844c.759-5.193,1.55-10.378,2.326-15.57s1.592-10.369,2.426-15.554c.7-4.4,1.034-9.861,4.926-12.761a7.56,7.56,0,0,1,7.293-.683,21.983,21.983,0,0,1,6.618,4.634C421.636,298.492,421.72,298.4,421.636,298.334Z" transform="translate(-348.802 -270.809)" fill="#263238"/>
      <path id="Path_201" data-name="Path 201" d="M419.712,293.862s-6.477-2.326-9.669,2.392.625,16.737,30.09,23.514a83.044,83.044,0,0,0-7.085-26.631C426.731,279.359,415.47,284.577,419.712,293.862Z" transform="translate(-351.188 -269.505)" fill="#ffa400"/>
      <path id="Path_202" data-name="Path 202" d="M439.883,319.542a22.731,22.731,0,0,0-1.484-2.384c-.492-.759-.992-1.517-1.492-2.267-.375-.567-.767-1.134-1.15-1.667a1.215,1.215,0,0,1,.05-.417l.1-.767c.075-.55.158-1.109.233-1.667s.175-1.092.283-1.667a8.57,8.57,0,0,1,.383-1.734c0-.092-.117-.133-.125,0a6.58,6.58,0,0,1-.267.984l-.2.742c-.142.558-.275,1.117-.4,1.667s-.217,1.042-.308,1.559c-.042.258-.075.508-.108.759-.525-.75-1.067-1.492-1.617-2.217-1.567-2.059-3.217-4.043-4.935-5.985v-.05a53.315,53.315,0,0,1,.767-9.169c0-.083-.1-.133-.125-.05a31.808,31.808,0,0,0-1.1,8.81c-.608-.684-1.234-1.367-1.859-2.042-1.442-1.542-2.9-3.067-4.393-4.551-.058-.058-.158,0-.1.092,2.5,2.676,4.843,5.46,7.143,8.294a50.632,50.632,0,0,0-5.393.2c-1.992.142-3.976.4-5.96.675-.092,0-.067.142,0,.133a52.612,52.612,0,0,1,5.951-.533c1.925-.083,3.834,0,5.76,0q1.867,2.3,3.676,4.651h-1.6c-.9,0-1.792.083-2.684.158a39.868,39.868,0,0,0-5.443.834.067.067,0,0,0,0,.133c1.809-.208,3.626-.375,5.443-.442h4.034a1.667,1.667,0,0,0,.742-.067q1.184,1.542,2.367,3.092.938,1.25,1.85,2.5c.608.834,1.184,1.792,1.867,2.592C439.825,319.684,439.917,319.609,439.883,319.542Z" transform="translate(-352.629 -271.246)" fill="#263238"/>
      <path id="Path_203" data-name="Path 203" d="M423.937,303.688a19.906,19.906,0,0,0-3.151-.15c-1.05,0-2.109,0-3.159.067a.067.067,0,0,0,0,.133c1.067-.083,2.134-.1,3.2-.083s2.067.117,3.092.083C423.97,303.738,423.97,303.7,423.937,303.688Z" transform="translate(-352.595 -272.638)" fill="#263238"/>
      <path id="Path_204" data-name="Path 204" d="M436.213,305.956c.117-1.009.242-2.017.458-3.009a.067.067,0,1,0-.133,0c-.15.992-.342,1.975-.483,2.967-.075.492-.142.992-.208,1.484a7.3,7.3,0,0,0-.117,1.409.092.092,0,0,0,.175,0,8.879,8.879,0,0,0,.15-1.409C436.1,306.914,436.155,306.431,436.213,305.956Z" transform="translate(-355.619 -272.53)" fill="#263238"/>
      <path id="Path_205" data-name="Path 205" d="M433.792,293.181c-.258.984-.517,1.975-.692,2.967-.092.508-.175,1.017-.242,1.525a6.4,6.4,0,0,0-.1,1.492.042.042,0,0,0,.083,0,8.1,8.1,0,0,0,.225-1.417c.067-.492.142-.975.225-1.467.183-1.025.367-2.042.625-3.051C433.925,293.148,433.792,293.1,433.792,293.181Z" transform="translate(-355.123 -270.908)" fill="#263238"/>
      <path id="Path_206" data-name="Path 206" d="M385.1,357.733c-.167-1.85-.35-3.709-.542-5.56q-.592-5.5-1.325-10.994c-.492-3.643-.959-7.3-1.55-10.936a26.55,26.55,0,0,0-1.125-5,4.709,4.709,0,0,0-2.751-3.109c-3.468-1.192-5.835,2.4-7.2,4.943-.042.075.067.133.117.067.834-1.209,3.151-4.584,5.785-4.426,1.767.1,3.184,1.359,4.034,5.768,2.117,10.994,4.026,33.341,4.251,34.767.117.775.659.742.667-.092C385.428,361.376,385.22,359.55,385.1,357.733Z" transform="translate(-344.777 -275.696)" fill="#263238"/>
      <path id="Path_207" data-name="Path 207" d="M368.642,325.152s3.034-10.7-3.668-5.351c-11.153,8.91-11.544,28.257-11.544,28.257s19.821-11.511,22.28-19.1C379.386,317.667,368.642,325.152,368.642,325.152Z" transform="translate(-341.919 -275.097)" fill="#ffa400"/>
      <path id="Path_208" data-name="Path 208" d="M372.639,331.5c-1.55.317-3.134.525-4.7.75l-2.234.317c-.5.067-1.009.117-1.517.175,1.475-2.034,2.967-4.059,4.384-6.135a.083.083,0,1,0-.133-.1,45.373,45.373,0,0,0-3.334,3.826l-.884-2.5c-.333-.959-.7-1.909-.942-2.9,0-.083-.15,0-.125.042.267.975.458,1.984.725,2.967s.542,1.884.875,2.809c-.725.942-1.425,1.909-2.1,2.884-.342-.967-.767-1.9-1.059-2.884,0-.083-.158-.042-.133,0,.358,1.092.55,2.217.884,3.334-.458.667-.909,1.334-1.342,2-.834,1.242-1.559,2.5-2.292,3.768a.292.292,0,0,0-.175.3c-1.25,2.167-2.442,4.359-3.617,6.577a.067.067,0,0,0,.117.067c1.175-2.192,2.5-4.326,3.843-6.418h0a2.576,2.576,0,0,1,.65-.125l.684-.15c.508-.108,1.017-.242,1.525-.367,1.009-.25,2-.492,3.026-.667.083,0,.042-.142,0-.125-1.2.225-2.4.367-3.618.5-.575.067-1.142.142-1.709.233h-.083q1.059-1.617,2.167-3.217c.717-1.042,1.459-2.075,2.2-3.109.692-.092,1.367-.275,2.05-.4l2.3-.45c1.534-.308,3.067-.65,4.609-.9C372.764,331.651,372.722,331.484,372.639,331.5Z" transform="translate(-342.165 -276.195)" fill="#263238"/>
      <path id="Path_209" data-name="Path 209" d="M361.72,333.554c-.092-.283-.175-.567-.267-.834a16.757,16.757,0,0,1-.458-1.8c0-.083-.142-.042-.125,0,.133.608.275,1.209.408,1.809a10.829,10.829,0,0,0,.517,1.775.125.125,0,0,0,.233-.067C361.937,334.154,361.812,333.854,361.72,333.554Z" transform="translate(-343.157 -277.19)" fill="#263238"/>
      <path id="Path_210" data-name="Path 210" d="M377.515,329.85c-.9.133-1.809.2-2.726.283s-1.809.2-2.717.342c-.05,0-.05.083,0,.075.909-.058,1.817-.133,2.726-.25s1.809-.25,2.726-.317C377.607,329.975,377.6,329.842,377.515,329.85Z" transform="translate(-345.016 -277.019)" fill="#263238"/>
      <path id="Path_211" data-name="Path 211" d="M398.485,337.068c-.358-7.877-.834-15.745-1.667-23.589-.392-3.909-.834-7.81-1.384-11.669a82.051,82.051,0,0,0-2.259-11.328,21.806,21.806,0,0,0-3.768-7.985,8.577,8.577,0,0,0-7.618-3.334c-3.443.425-6.227,2.6-8.627,4.96-2.692,2.651-5.16,5.543-7.652,8.335-.633.717-1.259,1.442-1.884,2.167-.05.067.042.158.1.092,2.442-2.8,5-5.526,7.627-8.127,2.451-2.409,5-5,8.335-6.035a8.718,8.718,0,0,1,4.868-.117,7.727,7.727,0,0,1,3.334,2.109,17.345,17.345,0,0,1,3.751,7.285c2.117,7.243,2.876,14.837,3.659,22.314s1.342,15.212,1.725,22.847.684,15.345,1.425,23c.092.942.208,1.884.333,2.826.075.625,1.059.633,1.009,0C399.2,352.9,398.836,344.987,398.485,337.068Z" transform="translate(-343.614 -268.575)" fill="#263238"/>
      <path id="Path_212" data-name="Path 212" d="M368.752,283.875s4.5-8.335-.834-11-23.105,17.187-28.3,46.228c0,0,28.732-12.711,38.492-25.381S376.821,278.265,368.752,283.875Z" transform="translate(-339.62 -267.495)" fill="#ffa400"/>
      <path id="Path_213" data-name="Path 213" d="M373.866,292.578c-3.226,0-6.452-.242-9.677-.225l1.817-2.076a29.117,29.117,0,0,0,2.5-2.934c.042-.067-.05-.158-.117-.108a21.872,21.872,0,0,0-2.442,2.451c-.834.834-1.617,1.717-2.417,2.584-1.234,1.342-2.442,2.692-3.651,4.059v-5.343c0-2.217,0-4.451.167-6.668,0-.083-.125-.083-.133,0-.15,2.234-.383,4.451-.492,6.668-.05,1.1-.075,2.192-.092,3.292V296.9c-.183.217-.383.425-.567.633-2.576,2.951-5,5.993-7.418,9.094a2.164,2.164,0,0,0-.042-.517c0-.342-.075-.684-.108-1.025-.083-.742-.183-1.475-.3-2.217s-.208-1.384-.325-2.076-.325-1.559-.383-2.342a.067.067,0,1,0-.125,0,22.6,22.6,0,0,1,.267,2.367l.2,2.134c.058.709.125,1.417.2,2.134l.1,1.025a3.541,3.541,0,0,0,.067.508.833.833,0,0,0,.133.408l-1.225,1.6c-1.667,2.159-3.234,4.343-4.834,6.518-.05.067.05.158.1.092,1.517-1.975,3.076-3.918,4.651-5.835,1.184.05,2.392-.042,3.576-.058s2.5,0,3.734,0a.067.067,0,0,0,0-.133c-1.25,0-2.5.042-3.743.05s-2.292-.05-3.426,0c1.384-1.667,2.792-3.334,4.168-5.043l1.634-1.834a7.572,7.572,0,0,0,1.442.05h1.667c1.059,0,2.117,0,3.184-.042,2.192,0,4.384-.108,6.577-.117a.067.067,0,1,0,0-.125c-2.2,0-4.393-.125-6.585-.183-1.067,0-2.125-.058-3.192-.075H356.1l3.626-4.293a.2.2,0,0,0,.067-.075c1.175-1.392,2.351-2.776,3.543-4.168.167-.183.333-.367.492-.558,3.334.1,6.668-.117,10-.05C373.958,292.711,373.958,292.578,373.866,292.578Z" transform="translate(-340.508 -269.429)" fill="#263238"/>
      <path id="Path_214" data-name="Path 214" d="M377.492,301.09h-.784a.058.058,0,1,0,0,.117h.775a.067.067,0,0,0,.008-.117Z" transform="translate(-345.784 -272.232)" fill="#263238"/>
      <path id="Path_215" data-name="Path 215" d="M374.345,301.075c-1.034,0-2.067,0-3.1-.067l-1.542-.017a5.952,5.952,0,0,0-1.442,0,.05.05,0,0,0,0,.1,5.62,5.62,0,0,0,1.45.1h4.651C374.436,301.208,374.436,301.075,374.345,301.075Z" transform="translate(-344.379 -272.208)" fill="#263238"/>
      <path id="Path_216" data-name="Path 216" d="M363.47,312.625a41.764,41.764,0,0,0-6.36-.575v.042c2.117.2,4.226.317,6.327.659C363.52,312.767,363.553,312.633,363.47,312.625Z" transform="translate(-342.532 -274.056)" fill="#263238"/>
      <path id="Path_217" data-name="Path 217" d="M354.212,300.8a4.125,4.125,0,0,0-.067-.55c-.05-.417-.117-.834-.183-1.242-.125-.792-.258-1.575-.408-2.367,0-.067-.142-.05-.133,0,.1.834.192,1.625.267,2.442l.1,1.2a3.425,3.425,0,0,0,.158,1.134.158.158,0,0,0,.283-.042A1.617,1.617,0,0,0,354.212,300.8Z" transform="translate(-341.917 -271.484)" fill="#263238"/>
      <path id="Path_218" data-name="Path 218" d="M402.838,272.433c-1.034-1.917-2.342-4.443-4.91-4.284-2.117.133-3.076,2.292-3.526,4.084-1.4,5.526-1.5,11.361-1.767,17.029-.583,11.978-1.1,23.964-1.175,35.959v10c0,3.392,0,6.8.233,10.186a.25.25,0,1,0,.5,0c0-2.9-.083-5.835-.092-8.7s0-5.66.05-8.494q.142-8.594.458-17.187c.217-5.693.467-11.386.708-17.079.117-2.842.242-5.693.367-8.535s.242-5.51.558-8.252c.175-1.542.4-3.076.725-4.584a6.343,6.343,0,0,1,1.325-3.076,2.884,2.884,0,0,1,3.743-.267,7.9,7.9,0,0,1,2.659,3.334.1.1,0,1,0,.142-.133Z" transform="translate(-348.25 -266.747)" fill="#263238"/>
      <path id="Path_219" data-name="Path 219" d="M403.18,271.238s-2.109-7.452,2.559-3.726c7.769,6.2,8.044,19.7,8.044,19.7s-13.812-8.019-15.529-13.336C395.695,266.02,403.18,271.238,403.18,271.238Z" transform="translate(-349.292 -266.468)" fill="#ffa400"/>
      <path id="Path_220" data-name="Path 220" d="M411.562,282.751c-.125-.208-.258-.408-.392-.617a4.017,4.017,0,0,0,0-.633c0-.317,0-.642,0-.959a17.863,17.863,0,0,1,.067-1.892.067.067,0,0,0-.133,0c0,.617-.058,1.242-.075,1.859v1.325c-.542-.834-1.1-1.667-1.667-2.5-.167-.242-.342-.475-.508-.708a13.189,13.189,0,0,1-.042-2.434c0-.834,0-1.734.05-2.6a.067.067,0,0,0-.133,0c0,.9-.067,1.8-.117,2.7a16.454,16.454,0,0,0-.05,1.925c-1.334-1.809-2.751-3.559-4.168-5.3a.065.065,0,0,0-.1.083c.884,1.125,1.734,2.276,2.567,3.443-1.625-.383-3.276-.6-4.926-.834-.083,0-.117.117,0,.133,1.75.267,3.467.7,5.193,1.084h0c.659.934,1.317,1.867,1.959,2.809l.784,1.15H409.8l-.542-.075-1.15-.1c-.792-.067-1.592-.108-2.392-.15-.083,0-.075.133,0,.133a21.951,21.951,0,0,1,2.342.158l1.242.15.533.067H410c.442.65.892,1.3,1.325,1.95.784,1.159,1.484,2.392,2.309,3.5a.067.067,0,0,0,.108-.067,34.935,34.935,0,0,0-2.176-3.6Z" transform="translate(-349.981 -267.538)" fill="#263238"/>
      <path id="Path_221" data-name="Path 221" d="M409.347,274.063v-.875a13.34,13.34,0,0,1,.075-1.825.067.067,0,1,0-.125,0c0,.608-.067,1.209-.1,1.809V274.5a1.5,1.5,0,0,0,0,.433.058.058,0,1,0,.117,0,1.285,1.285,0,0,0,0-.4Z" transform="translate(-351.2 -267.268)" fill="#263238"/>
      <path id="Path_222" data-name="Path 222" d="M406.672,278.253c-.517-.092-1.042-.117-1.559-.158s-1.134-.1-1.667-.175a.067.067,0,0,0,0,.133c1.092.067,2.176.267,3.267.3C406.722,278.362,406.731,278.262,406.672,278.253Z" transform="translate(-350.234 -268.375)" fill="#263238"/>
      <path id="Path_223" data-name="Path 223" d="M412.525,278.356c.042.058,0,.225,0,.292v1.284a1.168,1.168,0,0,0,0,.45h.05a.475.475,0,0,0,0-.217,2.256,2.256,0,0,1,0-.242v-1.567C412.575,278.3,412.441,278.231,412.525,278.356Z" transform="translate(-351.752 -268.435)" fill="#263238"/>
      <path id="Path_224" data-name="Path 224" d="M400.747,319.907c-2.9-2.176-5.51-5.31-9.419-5.468-3.226-.125-5.485,2.3-6.777,5a28.9,28.9,0,0,0-1.575,4.459q-.875,3.051-1.667,6.143-1.509,6.076-2.584,12.253c-.392,2.292-.759,4.593-1.05,6.9a59.126,59.126,0,0,0-.675,7.068.367.367,0,0,0,.725.083c.392-1.934.558-3.926.834-5.876s.583-3.926.909-5.876q1-5.835,2.317-11.669c.834-3.659,1.667-7.368,2.826-10.928.834-2.551,2.2-5.526,4.96-6.443,4.168-1.392,7.994,2.151,11.061,4.459C400.722,320.057,400.814,319.957,400.747,319.907Z" transform="translate(-345.843 -274.453)" fill="#263238"/>
      <path id="Path_225" data-name="Path 225" d="M399.886,316.63s-2.684-7.643,1.192-9.169c5.835-2.242,20.988,14.862,18.013,41.068a149.316,149.316,0,0,1-20.4-13.737c-8.669-7.277-10.836-16.771-7.06-19.221S399.886,316.63,399.886,316.63Z" transform="translate(-347.982 -273.26)" fill="#ffa400"/>
      <path id="Path_226" data-name="Path 226" d="M418.875,344.547a20.088,20.088,0,0,0-1.409-2.642c-.5-.9-1-1.792-1.517-2.676-1.009-1.725-2.009-3.451-3.042-5.168l-.508-.834a2.005,2.005,0,0,1,.058-.308l.175-.759c.133-.567.233-1.142.333-1.717.217-1.117.408-2.251.709-3.334,0-.075-.108-.1-.125,0-.242,1.117-.6,2.226-.925,3.334-.167.542-.342,1.075-.483,1.625l-.15.558c-1.242-2.042-2.5-4.076-3.884-6.043a2.783,2.783,0,0,0,.142-.834c.042-.383.083-.767.133-1.15.1-.834.2-1.725.325-2.584.25-1.667.5-3.334.917-5,0-.083-.108-.108-.125,0-.425,1.667-.875,3.334-1.192,5-.15.834-.3,1.667-.408,2.5-.05.417-.1.834-.142,1.25a.993.993,0,0,1-.05.375c-.417-.592-.834-1.192-1.275-1.767-1.342-1.767-2.734-3.484-4.168-5.2-.05-.067-.167,0-.108.075a92.853,92.853,0,0,1,6.6,9.636l1.142,1.859-.383-.05c-.492-.067-.984-.092-1.475-.142l-2.967-.258c-1.975-.158-3.959-.275-5.926-.483-.083,0-.108.117,0,.125,2,.233,3.984.55,5.976.834.984.142,1.959.275,2.942.4a11.732,11.732,0,0,0,2.259.225c.775,1.267,1.559,2.5,2.334,3.784h-7.168c-.092,0-.075.125,0,.125,1.292,0,2.576.083,3.868.15l1.834.108.917.067a1.843,1.843,0,0,0,.834,0l1.984,3.217c.608.992,1.225,1.975,1.85,2.959a24.168,24.168,0,0,0,1.992,2.984C418.8,344.672,418.909,344.631,418.875,344.547Z" transform="translate(-349.517 -274.871)" fill="#263238"/>
      <path id="Path_227" data-name="Path 227" d="M415.867,324.637a18.409,18.409,0,0,1-.525,2.5c-.217.833-.458,1.667-.734,2.5a.083.083,0,1,0,.158.05c.258-.834.492-1.667.692-2.5s.333-1.667.542-2.542a.067.067,0,1,0-.133-.008Z" transform="translate(-352.102 -276.141)" fill="#263238"/>
      <path id="Path_228" data-name="Path 228" d="M404.148,330.565a1.033,1.033,0,0,0-.642-.242l-1.109-.15c-.683-.092-1.375-.167-2.059-.25-1.434-.167-2.859-.308-4.293-.483-.083,0-.108.117,0,.125,1.35.167,2.692.375,4.043.55l1.975.258.959.1a3.333,3.333,0,0,1,1.084.192.058.058,0,0,0,.042-.1Z" transform="translate(-349.001 -276.951)" fill="#263238"/>
      <path id="Path_229" data-name="Path 229" d="M415.248,344.6c-.675-.058-1.359-.083-2.034-.1H411.7a3.331,3.331,0,0,1-.642,0c-.092,0-.1.142,0,.125a2.89,2.89,0,0,1,.6,0h.533l1.017.067c.675.042,1.359.083,2.034.083C415.323,344.742,415.332,344.6,415.248,344.6Z" transform="translate(-351.5 -279.458)" fill="#263238"/>
      <path id="Path_230" data-name="Path 230" d="M420.979,340.4l.225-1.15c.133-.759.275-1.517.417-2.267a.067.067,0,0,0-.133,0l-.5,2.209c-.083.367-.167.734-.242,1.1a2.284,2.284,0,0,1-.108.517,1.483,1.483,0,0,0-.058.542.083.083,0,0,0,.15.042,2.716,2.716,0,0,0,.25-.992Z" transform="translate(-353.096 -278.196)" fill="#263238"/>
      <path id="Path_231" data-name="Path 231" d="M373.4,361.1l.817,9.294,2.776,31.366h24.564l3.468-31.366,1.025-9.294Z" transform="translate(-345.243 -282.222)" fill="#37474f"/>
      <path id="Path_232" data-name="Path 232" d="M373.4,361.1l.817,9.294h30.807l1.025-9.294Z" transform="translate(-345.243 -282.222)" fill="#263238"/>
      <rect id="Rectangle_80" data-name="Rectangle 80" width="37.517" height="7.535" transform="translate(63.24 83.888) rotate(180)" fill="#37474f"/>
    </g>
    <g id="freepik--question-mark--inject-7" transform="translate(142.813 77.481)">
      <path id="Path_233" data-name="Path 233" d="M206.825,284.407q0-20,6.535-35.938T240.317,220.7q6.135-3.675,15.12-8.332A121.969,121.969,0,0,0,273,201.134a64.17,64.17,0,0,0,14.5-15.307,35.288,35.288,0,0,0,5.926-20.223,33.387,33.387,0,0,0-3.251-15.148,34.673,34.673,0,0,0-8.577-11.024,35.729,35.729,0,0,0-12.5-6.741,48.361,48.361,0,0,0-14.5-2.241,42.157,42.157,0,0,0-16.287,3.033,55.759,55.759,0,0,0-13.27,7.757,65.055,65.055,0,0,0-10.628,10.624,116.51,116.51,0,0,0-7.96,11.224H200.3l-29.4-24.5a79.3,79.3,0,0,1,14.1-22.5,86.48,86.48,0,0,1,20-16.54A93.766,93.766,0,0,1,229.331,89.4,104.868,104.868,0,0,1,256.3,85.93a107.177,107.177,0,0,1,30.641,4.491,77.878,77.878,0,0,1,27.165,14.3,74.163,74.163,0,0,1,19.613,25.114q7.552,15.315,7.552,36.554a78.933,78.933,0,0,1-3.059,23.072,64.334,64.334,0,0,1-8.794,18.181,76.577,76.577,0,0,1-13.478,14.7A154.435,154.435,0,0,1,298.364,235q-8.177,4.916-16.337,9.4a98.361,98.361,0,0,0-14.912,10,48.765,48.765,0,0,0-11.036,12.665q-4.284,7.149-4.284,17.356Zm.834,95.147V323.2H253v56.352Z" transform="translate(-164.757 -85.93)" fill="#ffc727"/>
      <g id="Group_11" data-name="Group 11" transform="translate(6.143 0)" opacity="0.2">
        <path id="Path_234" data-name="Path 234" d="M206.825,284.407q0-20,6.535-35.938T240.317,220.7q6.135-3.675,15.12-8.332A121.969,121.969,0,0,0,273,201.134a64.17,64.17,0,0,0,14.5-15.307,35.288,35.288,0,0,0,5.926-20.223,33.387,33.387,0,0,0-3.251-15.148,34.673,34.673,0,0,0-8.577-11.024,35.729,35.729,0,0,0-12.5-6.741,48.361,48.361,0,0,0-14.5-2.241,42.157,42.157,0,0,0-16.287,3.033,55.759,55.759,0,0,0-13.27,7.757,65.055,65.055,0,0,0-10.628,10.624,116.51,116.51,0,0,0-7.96,11.224H200.3l-29.4-24.5a79.3,79.3,0,0,1,14.1-22.5,86.48,86.48,0,0,1,20-16.54A93.766,93.766,0,0,1,229.331,89.4,104.868,104.868,0,0,1,256.3,85.93a107.177,107.177,0,0,1,30.641,4.491,77.878,77.878,0,0,1,27.165,14.3,74.163,74.163,0,0,1,19.613,25.114q7.552,15.315,7.552,36.554a78.933,78.933,0,0,1-3.059,23.072,64.334,64.334,0,0,1-8.794,18.181,76.577,76.577,0,0,1-13.478,14.7A154.435,154.435,0,0,1,298.364,235q-8.177,4.916-16.337,9.4a98.361,98.361,0,0,0-14.912,10,48.765,48.765,0,0,0-11.036,12.665q-4.284,7.149-4.284,17.356Zm.834,95.147V323.2H253v56.352Z" transform="translate(-170.9 -85.93)"/>
      </g>
      <path id="Path_235" data-name="Path 235" d="M199.48,284.407q0-20,6.535-35.938T232.98,220.7q6.126-3.675,15.112-8.332a121.588,121.588,0,0,0,17.571-11.232,64.32,64.32,0,0,0,14.5-15.307,35.346,35.346,0,0,0,5.918-20.223,33.387,33.387,0,0,0-3.267-15.107,34.674,34.674,0,0,0-8.577-11.024,35.729,35.729,0,0,0-12.5-6.741,48.361,48.361,0,0,0-14.5-2.241,42.09,42.09,0,0,0-16.3,2.991,55.852,55.852,0,0,0-13.278,7.757,65,65,0,0,0-10.619,10.624,116.656,116.656,0,0,0-7.969,11.224l-35.542-24.5a79.154,79.154,0,0,1,14.1-22.5,86.264,86.264,0,0,1,20-16.54A93.815,93.815,0,0,1,221.952,89.4a104.8,104.8,0,0,1,26.99-3.475,107.136,107.136,0,0,1,30.641,4.491,77.8,77.8,0,0,1,27.165,14.3,74.078,74.078,0,0,1,19.613,25.114q7.552,15.315,7.56,36.554a78.924,78.924,0,0,1-3.067,23.072,64.152,64.152,0,0,1-8.819,18.181,76.575,76.575,0,0,1-13.478,14.7A152.952,152.952,0,0,1,290.985,235q-8.16,4.916-16.337,9.4a98.363,98.363,0,0,0-14.912,10,48.732,48.732,0,0,0-11.028,12.665q-4.284,7.149-4.293,17.356Zm.834,95.147V323.2h45.294v56.352Z" transform="translate(-163.53 -85.93)" fill="#ffa400"/>
    </g>
    <g id="freepik--Character--inject-7" transform="translate(58.719 90.538)">
      <path id="Path_236" data-name="Path 236" d="M173.136,433.524c-1.775.567-52.4-.083-54.3-1.334-.734-.467-1.067-7.844-1.217-16.779v-.275c0-1.842-.058-3.743-.067-5.66v-.792c-.067-12.886.133-26.265.133-26.265l33.866.342-1.025,25.981-.042,1.034-.208,5.385v.55s19.246,8.952,21.205,10.536S174.911,432.957,173.136,433.524Z" transform="translate(-71.897 -148.446)" fill="#ad6359"/>
      <path id="Path_237" data-name="Path 237" d="M173.138,438.769c-1.775.567-52.4-.083-54.3-1.334-.734-.467-1.067-7.844-1.217-16.779v-.275c0-1.842-.058-3.743-.067-5.66v-.792l32.983.092-.042,1.034-.208,5.385v.55s19.238,8.919,21.2,10.5S174.914,438.2,173.138,438.769Z" transform="translate(-71.899 -153.691)" fill="#ebebeb"/>
      <path id="Path_238" data-name="Path 238" d="M173.153,440.056c-1.092.35-20.7.233-36.059-.2-9.586-.258-17.5-.659-18.246-1.134s-1.059-7.635-1.209-16.4v-.659l32.666.067v.55s19.271,8.919,21.222,10.511S174.929,439.489,173.153,440.056Z" transform="translate(-71.914 -154.978)" fill="#ffa400"/>
      <path id="Path_239" data-name="Path 239" d="M173.309,441.241c-8.535-.317-42.969-.834-51.429-.475-.067,0-.067.05,0,.058,8.452.5,42.885.709,51.421.558C173.484,441.383,173.484,441.249,173.309,441.241Z" transform="translate(-72.612 -158.138)" fill="#263238"/>
      <path id="Path_240" data-name="Path 240" d="M159.153,421.844c-3.334-.667-7.46-.208-10.061,2.15-.1.092,0,.233.142.2a47.617,47.617,0,0,1,9.9-1.925.217.217,0,0,0,.017-.425Z" transform="translate(-77.143 -154.962)" fill="#263238"/>
      <path id="Path_241" data-name="Path 241" d="M162.043,423.634c-3.334-.667-7.46-.208-10.061,2.15-.1.092,0,.233.142.2a47.513,47.513,0,0,1,9.869-1.925.217.217,0,0,0,.05-.425Z" transform="translate(-77.625 -155.26)" fill="#263238"/>
      <path id="Path_242" data-name="Path 242" d="M164.923,425.424c-3.334-.667-7.46-.208-10.061,2.151-.1.092,0,.233.142.2a47.615,47.615,0,0,1,9.9-1.917.217.217,0,0,0,.017-.433Z" transform="translate(-78.104 -155.558)" fill="#263238"/>
      <path id="Path_243" data-name="Path 243" d="M164.441,412.963c-1.3-1.834-3.768-1.042-5.185.117a17.88,17.88,0,0,0-5.268,7.627.083.083,0,0,0,.075.117.413.413,0,0,0,.525.425c2.784-.992,5.885-1.667,8.285-3.518C164.274,416.672,165.666,414.7,164.441,412.963Zm-5.943,5.918c-1.359.525-2.734.975-4.068,1.542,1.034-1.484,1.992-3,3.176-4.384a21.57,21.57,0,0,1,1.8-1.9c1.017-.892,5-2.776,4.351.9C163.408,417.064,160.123,418.264,158.5,418.881Z" transform="translate(-77.964 -153.349)" fill="#263238"/>
      <path id="Path_244" data-name="Path 244" d="M143.2,420.094c2.751,1.217,5.935,1.2,8.877,1.525a.437.437,0,0,0,.408-.542.092.092,0,0,0,.05-.133,18.021,18.021,0,0,0-6.885-6.21c-1.667-.834-4.234-1-5.068,1.084S141.587,419.385,143.2,420.094Zm-1.484-2.417c-1.467-3.426,2.842-2.5,4.026-1.867a18.008,18.008,0,0,1,2.192,1.434,51.749,51.749,0,0,1,4.1,3.534c-1.434-.25-2.876-.367-4.318-.567-1.717-.225-5.151-.642-5.985-2.534Z" transform="translate(-75.698 -153.728)" fill="#263238"/>
      <path id="Path_245" data-name="Path 245" d="M137.115,439.988c-9.586-.258-17.5-.659-18.246-1.134s-1.059-7.635-1.209-16.4C121.578,425.959,131.347,434.67,137.115,439.988Z" transform="translate(-71.918 -155.109)" fill="#263238"/>
      <path id="Path_246" data-name="Path 246" d="M105.24,207.48s7.6,85.537,8.835,92.064c.292,1.492.467,9.577.583,19.963.258,22.68.108,63.573.108,63.573h35.684s-1.059-70.85-2.642-83.895S136.139,207.5,136.139,207.5Z" transform="translate(-69.85 -119.324)" fill="#37474f"/>
      <path id="Path_247" data-name="Path 247" d="M150.994,410.639c-5.568-.117-3.968-.158-9.536-.217-2.726,0-20.63-.175-23.181.242a.058.058,0,0,0,0,.117c2.551.417,20.455.267,23.181.233,5.568-.05,3.968-.092,9.536-.208a.083.083,0,1,0,0-.167Z" transform="translate(-72.011 -153.101)" fill="#263238"/>
      <path id="Path_248" data-name="Path 248" d="M122.444,337.167q-.067-7.769-.117-15.529c0-5,0-10-.267-15-.483-10.144-2.5-20.113-4-30.141s-2.684-20.1-3.793-30.174c-1.242-11.3-2.334-22.63-3.493-33.941,0-.075-.133-.075-.125,0,1.667,20.2,3.559,40.4,6.352,60.481q1.05,7.5,2.284,14.954c.834,5,1.667,10.069,2.059,15.162s.45,10,.5,15q.092,7.769.158,15.52c.108,11.486.217,29.174.333,40.66a.175.175,0,0,0,.342,0C122.611,363.857,122.519,347.411,122.444,337.167Z" transform="translate(-70.751 -120.13)" fill="#263238"/>
      <path id="Path_249" data-name="Path 249" d="M96.21,207.48s15.129,85.537,16.362,92.064c.292,1.492.467,9.577.583,19.963h0L130.21,207.48Z" transform="translate(-68.347 -119.324)" fill="#263238"/>
      <path id="Path_250" data-name="Path 250" d="M123.638,436.376c-1.809.442-52.262-3.8-54.08-5.176-.7-.517-.508-7.9,0-16.821V414.1c.1-1.834.208-3.726.342-5.643l.05-.834c.834-12.861,1.992-26.19,1.992-26.19l33.75,2.784-2.859,25.84-.108,1.025-.583,5.36-.058.55s18.579,10.261,20.422,11.986S125.447,435.935,123.638,436.376Z" transform="translate(-63.835 -148.281)" fill="#ad6359"/>
      <path id="Path_251" data-name="Path 251" d="M123.638,441.607c-1.809.442-52.262-3.8-54.08-5.176-.7-.517-.508-7.9,0-16.821v-.283c.1-1.834.208-3.726.342-5.643l.05-.834,32.883,2.426-.108,1.025-.583,5.36-.058.55S120.663,432.471,122.5,434.2,125.447,441.165,123.638,441.607Z" transform="translate(-63.835 -153.511)" fill="#ebebeb"/>
      <path id="Path_252" data-name="Path 252" d="M123.638,442.9c-1.809.442-52.262-3.8-54.08-5.176-.7-.517-.508-7.9,0-16.821v-.283L102.142,423l-.058.55s18.579,10.261,20.422,11.986S125.447,442.459,123.638,442.9Z" transform="translate(-63.835 -154.805)" fill="#ffa400"/>
      <path id="Path_253" data-name="Path 253" d="M123.752,444.118c-8.485-.925-42.8-3.843-51.262-4.118-.067,0-.075.05,0,.058,8.385,1.1,42.727,3.743,51.254,4.168C123.952,444.268,123.968,444.168,123.752,444.118Z" transform="translate(-64.389 -158.031)" fill="#263238"/>
      <path id="Path_254" data-name="Path 254" d="M111.017,423.837c-3.334-.9-7.427-.734-10.186,1.434-.108.083,0,.242.125.217a47.062,47.062,0,0,1,10-1.225.217.217,0,0,0,.058-.425Z" transform="translate(-69.109 -155.255)" fill="#263238"/>
      <path id="Path_255" data-name="Path 255" d="M113.776,425.827c-3.334-.9-7.435-.734-10.194,1.434-.1.083,0,.242.125.217a47.128,47.128,0,0,1,10-1.225.217.217,0,0,0,.067-.425Z" transform="translate(-69.567 -155.586)" fill="#263238"/>
      <path id="Path_256" data-name="Path 256" d="M116.526,427.817c-3.334-.9-7.435-.734-10.194,1.434-.1.083,0,.242.133.217a46.985,46.985,0,0,1,10-1.225.217.217,0,0,0,.058-.425Z" transform="translate(-70.025 -155.917)" fill="#263238"/>
      <path id="Path_257" data-name="Path 257" d="M116.8,415.38c-1.159-1.925-3.676-1.317-5.176-.258a17.862,17.862,0,0,0-5.835,7.235c0,.067,0,.108.067.125a.417.417,0,0,0,.492.458c2.842-.792,5.993-1.284,8.51-2.926C116.393,419.023,117.918,417.2,116.8,415.38Zm-6.343,5.476c-1.392.425-2.792.775-4.168,1.25a53.14,53.14,0,0,1,3.476-4.168,19.367,19.367,0,0,1,1.934-1.767c1.075-.833,5.176-2.426,4.276,1.2-.475,2.017-3.843,2.984-5.5,3.484Z" transform="translate(-69.942 -153.724)" fill="#263238"/>
      <path id="Path_258" data-name="Path 258" d="M95.224,420.91c2.659,1.409,5.835,1.617,8.744,2.142.3.058.483-.25.45-.5a.092.092,0,0,0,.05-.133,17.837,17.837,0,0,0-6.427-6.668c-1.584-.925-4.168-1.3-5.126.717S93.673,420.085,95.224,420.91Zm-1.309-2.5c-1.225-3.526,3.009-2.3,4.168-1.584a19.39,19.39,0,0,1,2.084,1.592,51.883,51.883,0,0,1,3.843,3.818c-1.417-.35-2.842-.575-4.268-.834-1.717-.408-5.135-1.059-5.826-3.009Z" transform="translate(-67.752 -153.869)" fill="#263238"/>
      <path id="Path_259" data-name="Path 259" d="M103.35,384.994,67.7,383.485s9.736-78.235,9.911-83.061c.467-12.5,8.76-93.014,8.76-93.014h43.544s-2.751,18.6-7.443,30.382a54.313,54.313,0,0,0-9.111,4.168s-4.084,53.254-4.234,59.9C108.793,315.011,103.35,384.994,103.35,384.994Z" transform="translate(-63.601 -119.312)" fill="#37474f"/>
      <path id="Path_260" data-name="Path 260" d="M102.794,412.336c-5.551-.35-3.951-.325-9.519-.617-2.717-.142-20.6-1.05-23.164-.742-.058,0-.058.1,0,.117,2.5.525,20.43,1.134,23.147,1.217,5.568.183,3.976.075,9.544.192a.083.083,0,0,0-.008-.167Z" transform="translate(-63.995 -153.189)" fill="#263238"/>
      <path id="Path_261" data-name="Path 261" d="M90.594,213.148c-1.617,20.28-3.276,40.568-5.135,60.848s-4.034,40.643-6.668,60.89c-1.475,11.294-3.142,27.223-4.9,38.492,0,.075.1.108.117,0,3.593-20,6.235-44.877,8.477-65.091s4.084-40.485,5.726-60.756c.925-11.469,1.759-22.947,2.642-34.417C90.861,213.006,90.652,213.006,90.594,213.148Z" transform="translate(-64.631 -120.249)" fill="#263238"/>
      <path id="Path_262" data-name="Path 262" d="M133.127,242.916a67.316,67.316,0,0,0-10.661,5,.119.119,0,0,0,.1.217c3.593-1.542,7.252-3.017,10.753-4.759a.248.248,0,0,0-.192-.458Z" transform="translate(-72.706 -125.22)" fill="#263238"/>
      <path id="Path_263" data-name="Path 263" d="M135.178,213.329c0-.125-.225-.15-.225,0,0,4.259-.242,8.01-.6,12-.167,1.85-1.667,12.07-4.868,11.328-.533-.125-.834-.658-.892-1.467a12.287,12.287,0,0,1,.425-3.134c.35-2.142.642-4.284.834-6.452a58.654,58.654,0,0,0-.133-12.095.108.108,0,0,0-.208,0,110.751,110.751,0,0,1-.975,16.671c-.4,2.659-1.742,6.668,1.042,7.068s4.668-6.285,5-8.119a61.032,61.032,0,0,0,.6-15.8Z" transform="translate(-73.616 -120.28)" fill="#263238"/>
      <path id="Path_264" data-name="Path 264" d="M129.707,241.6a15.834,15.834,0,0,0-.717,2.117,4.651,4.651,0,0,0-.3,1.742c0,.117.158.125.217.05a6.169,6.169,0,0,0,.75-1.667c.242-.658.5-1.309.725-1.975a.363.363,0,1,0-.675-.267Z" transform="translate(-73.754 -124.966)" fill="#263238"/>
      <path id="Path_265" data-name="Path 265" d="M109.9,217.087a5.426,5.426,0,0,0-.133-1.325.075.075,0,0,0-.133,0,5.835,5.835,0,0,0-.15,1.15,13.015,13.015,0,0,1-.15,1.317,19.311,19.311,0,0,1-.467,2.676,9.494,9.494,0,0,1-2.451,4.4,12.653,12.653,0,0,1-4.168,2.726,47.186,47.186,0,0,1-5.26,1.525.067.067,0,0,0,0,.133,15.312,15.312,0,0,0,5.751-1.134,12.378,12.378,0,0,0,4.326-2.759,9.611,9.611,0,0,0,2.5-4.526,13.845,13.845,0,0,0,.35-2.684,12.878,12.878,0,0,0-.017-1.5Z" transform="translate(-68.465 -120.696)" fill="#263238"/>
      <path id="Path_266" data-name="Path 266" d="M159.265,119.284c2.684,3.242,5.6,12,5.493,14.4s-14.854,7.827-16.937,6.527-10.286-12.886-10.361-17.179S156.481,115.933,159.265,119.284Z" transform="translate(-75.214 -104.395)" fill="#ad6359"/>
      <path id="Path_267" data-name="Path 267" d="M135.412,111.6c-1.35-1.409-5.718-5.618-7.66-3.718-1.217,1.184,1.717,4.426,2.951,5.71,2.542,2.634,4.509,7.293,5.426,9.569s5.21-2.217,5.21-2.217A35.778,35.778,0,0,0,135.412,111.6Z" transform="translate(-73.55 -102.663)" fill="#ad6359"/>
      <path id="Path_268" data-name="Path 268" d="M140.962,126.414s1.509,4.051,3.968,3.959,1.834-3.576,1.8-3.826c.075.217,1.559,3.9,4.026,3.559s1.417-3.768,1.342-3.984c.133.175,2.034,2.5,3.843,1.809,3.117-1.184-1.559-7.243-1.109-9.9,0,0,4.6.258,4.734.233,0,0-4.334-5.835-7.96-6.268a2.317,2.317,0,0,0-2.5,1.517s-1.192-2.042-3.142-1.834c-1,.108-1.717,1.809-1.717,1.809a2.9,2.9,0,0,0-2.742-1.3c-1.375.225-2.059,1.942-2.134,2.609C138.787,119.9,140.962,126.414,140.962,126.414Z" transform="translate(-75.515 -103.373)" fill="#ad6359"/>
      <path id="Path_269" data-name="Path 269" d="M139.5,114.86h-.067a20.755,20.755,0,0,0,1.509,12.253c.058.117.275.075.233-.067A42.693,42.693,0,0,1,139.5,114.86Z" transform="translate(-75.487 -103.905)" fill="#263238"/>
      <path id="Path_270" data-name="Path 270" d="M145.159,113.773c0-.05-.075-.05-.083,0a19.413,19.413,0,0,0,2.5,13.253c.092.142.308.175.217,0C146.267,124.258,145.075,117.632,145.159,113.773Z" transform="translate(-76.436 -103.718)" fill="#263238"/>
      <path id="Path_271" data-name="Path 271" d="M154.28,126.733A26.694,26.694,0,0,1,151,114.072c0-.058-.083-.05-.1,0a17.529,17.529,0,0,0,.442,7.26,11.961,11.961,0,0,0,2.809,5.476C154.188,126.875,154.28,126.817,154.28,126.733Z" transform="translate(-77.413 -103.768)" fill="#263238"/>
      <path id="Path_272" data-name="Path 272" d="M141.3,127.684a13.8,13.8,0,0,0,1.284,2.134,4.584,4.584,0,0,0,1.8,1.567,1.5,1.5,0,0,0,1.075,0,2.2,2.2,0,0,0,.917-.625,2.692,2.692,0,0,0,.45-2.126l-.308-1.8.917,1.584a7.577,7.577,0,0,0,1.517,1.892,2.642,2.642,0,0,0,2.034.784,1.525,1.525,0,0,0,1.417-1.3,4.693,4.693,0,0,0-.292-2.3l-.742-2.034,1.359,1.667a7.3,7.3,0,0,0,1.292,1.242,2.909,2.909,0,0,0,1.55.617,1.384,1.384,0,0,0,1.267-.7,3.042,3.042,0,0,0,.125-1.667,24.115,24.115,0,0,0-1-3.618c-.2-.6-.4-1.209-.567-1.825a4.526,4.526,0,0,1-.217-1.884,5,5,0,0,0,.383,1.834c.217.592.458,1.175.7,1.767a20.454,20.454,0,0,1,1.209,3.659,3.576,3.576,0,0,1-.083,2.042,1.95,1.95,0,0,1-1.834,1.117,3.534,3.534,0,0,1-1.942-.717,7.776,7.776,0,0,1-1.459-1.359l.617-.367a5.31,5.31,0,0,1,.375,2.709,2.209,2.209,0,0,1-.717,1.325,2.5,2.5,0,0,1-1.359.567,3.334,3.334,0,0,1-2.584-.992,7.968,7.968,0,0,1-1.667-2.1l.608-.217a3.2,3.2,0,0,1-.7,2.592,2.709,2.709,0,0,1-1.167.717,1.884,1.884,0,0,1-1.367-.1,4.643,4.643,0,0,1-1.825-1.809,11.1,11.1,0,0,1-1.067-2.276Z" transform="translate(-75.853 -104.643)" fill="#263238"/>
      <path id="Path_273" data-name="Path 273" d="M145.58,139.35s-15.9-8.127-9.669-12.778c1.842-1.384,11.086-4.859,11.819-3.017.95,2.376-2.642,4.551-5.11,5.551,0,0,5.793,2.009,5.6,6.452a4.426,4.426,0,0,1-2.642,3.793Z" transform="translate(-74.715 -105.265)" fill="#ad6359"/>
      <path id="Path_274" data-name="Path 274" d="M135.61,126.91a9.044,9.044,0,0,1,2.217-1.567,21.464,21.464,0,0,1,2.5-1.134,31.442,31.442,0,0,1,5.251-1.55,4.884,4.884,0,0,1,1.45-.083,1.909,1.909,0,0,1,.834.25,1.35,1.35,0,0,1,.35.292,1.25,1.25,0,0,1,.225.392,2.276,2.276,0,0,1,0,1.592,4.1,4.1,0,0,1-.767,1.275,8.126,8.126,0,0,1-2.209,1.759,17.813,17.813,0,0,1-2.5,1.184v-.592a11.277,11.277,0,0,1,1.875.942,10.045,10.045,0,0,1,1.667,1.259,7.051,7.051,0,0,1,1.267,1.667,5.417,5.417,0,0,1,.658,1.942,6.176,6.176,0,0,0-.834-1.825,7.443,7.443,0,0,0-1.35-1.45,9.5,9.5,0,0,0-1.667-1.117,10.411,10.411,0,0,0-1.809-.784l-.775-.242.75-.35a19.681,19.681,0,0,0,2.359-1.217,8.144,8.144,0,0,0,2-1.625,2.251,2.251,0,0,0,.633-2.1c-.183-.583-1.175-.558-2.017-.433s-1.734.35-2.609.567-1.734.458-2.592.734a17.429,17.429,0,0,0-4.91,2.217Z" transform="translate(-74.906 -105.187)" fill="#263238"/>
      <path id="Path_275" data-name="Path 275" d="M124.878,154.236c14.053,17.346,34.483,28.582,39.526,24.923s-11.953-22.814-12.245-23.1c-.992-.95-8.51-4.859-22.164-10.611C116.6,139.808,118.6,146.493,124.878,154.236Z" transform="translate(-72.31 -108.648)" fill="#ad6359"/>
      <path id="Path_276" data-name="Path 276" d="M145.6,152.079,135.017,166s-8.885-9.169-13.587-15.237-4.234-10.786,6.285-6.868a131.983,131.983,0,0,1,17.888,8.185Z" transform="translate(-72.07 -108.5)" fill="#ffa400"/>
      <path id="Path_277" data-name="Path 277" d="M137.085,164.667c1.292-1.9,2.642-3.768,4.026-5.593.692-.9,1.359-1.817,2.067-2.709s1.517-1.784,2.242-2.7c.05-.067.15,0,.1.067-.667.917-1.267,1.875-1.934,2.792s-1.4,1.867-2.109,2.8q-2.092,2.751-4.309,5.4C137.127,164.775,137.01,164.725,137.085,164.667Z" transform="translate(-75.147 -110.361)" fill="#263238"/>
      <path id="Path_278" data-name="Path 278" d="M140.1,159.832l-5.068,6.668s-8.885-9.169-13.587-15.237l-.45-.592-.192-.275-.292-.425q-.375-.55-.675-1.075c-.075-.125-.142-.25-.208-.375a10.186,10.186,0,0,1-.834-1.992,5.082,5.082,0,0,1-.142-.65v-.308C123.268,148.771,134.1,155.781,140.1,159.832Z" transform="translate(-72.083 -109.018)" fill="#263238"/>
      <path id="Path_279" data-name="Path 279" d="M135.192,205.236s-48.236.834-48.52.533c-.75-.834,8.994-50.5,19.071-60.739,3.559-3.618,10.9-2.142,12.128-1.55,2.826,1.367,5.485,4.318,7.71,9.786C130.032,164.2,135.8,204.452,135.192,205.236Z" transform="translate(-66.752 -108.536)" fill="#ffa400"/>
      <path id="Path_280" data-name="Path 280" d="M120.272,145.4H105.661l.075-.083a6.478,6.478,0,0,1,1.125-.909h12.128a10,10,0,0,1,1.284.992Zm1.609,1.667h-17.6c-.233.308-.458.642-.683.992h19.046c-.242-.35-.492-.659-.709-.992Zm1.817,2.659H102.593c-.183.325-.367.658-.542,1h22.214c-.175-.342-.358-.684-.55-1Zm1.359,2.667H101.21l-.475.992H125.5c-.133-.342-.275-.675-.425-.984Zm1.059,2.659H100l-.425.992h26.881c-.108-.308-.217-.675-.35-.992Zm.834,2.659H98.9c-.125.333-.258.658-.392,1h28.732Zm.717,2.659H97.892c-.117.333-.242.658-.358,1h30.4a8.77,8.77,0,0,1-.25-1Zm.65,2.667H96.934c-.117.325-.225.658-.333.992h31.941Zm.6,2.659H96.1c-.108.325-.208.658-.317.992h33.408c-.117-.333-.183-.667-.258-.95Zm.567,2.659H95.267c-.108.325-.208.658-.308,1H129.75c-.108-.333-.175-.667-.25-1Zm.542,2.659H94.433c-.1.333-.2.667-.292,1h36.134Zm.517,2.667H93.649c-.1.333-.192.658-.283.992h37.376c-.058-.333-.117-.667-.183-.992Zm.492,2.659H92.908c-.092.333-.183.667-.267.992h38.593c-.058-.333-.125-.659-.183-.992Zm.475,2.659H92.2c-.092.333-.175.667-.258,1H131.7q-.075-.5-.175-1Zm.475,2.667H91.507c-.075.333-.158.659-.242.992h40.893c-.05-.325-.108-.659-.158-.992Zm.433,2.659H90.849c-.075.333-.158.667-.233.992H132.6c-.05-.325-.108-.659-.167-.992Zm.433,2.659H90.215c-.075.342-.15.675-.233,1h43.044c-.05-.333-.1-.659-.158-1Zm.425,2.659H89.607c-.075.333-.15.675-.225,1h44.052c-.05-.325-.1-.659-.142-1Zm.392,2.667H89.015c-.067.333-.142.667-.208.992h45.011Zm.383,2.659h-45.6c-.067.342-.133.667-.2.992h45.961c-.05-.325-.092-.659-.142-.992Zm.367,2.659H87.923q-.117.517-.2,1h46.844a7.809,7.809,0,0,1-.125-1Zm.333,2.659H87.415c-.067.35-.125.684-.183,1h47.661q-.05-.475-.125-1Zm.308,2.667H86.931c-.058.358-.1.692-.15.992h48.345a7.107,7.107,0,0,0-.05-.992Zm-48.445,2.659a.892.892,0,0,0,0,.442c.225.225,30.141-.233,42.885-.442Z" transform="translate(-66.745 -108.825)" fill="#030402" opacity="0.1"/>
      <path id="Path_281" data-name="Path 281" d="M104.524,151.3c-3.251,4.459-19.921,22.889-20.538,24.6s3.242,5.485,3.176,6.193c-.25,2.884-6.477,22.072-8.969,20.121C74.908,199.643,61,181.255,62.972,173.3s34.433-27.073,39.584-28.732S107.733,146.9,104.524,151.3Z" transform="translate(-62.782 -108.786)" fill="#ad6359"/>
      <path id="Path_282" data-name="Path 282" d="M95.259,167.945,85.79,154.65s10.594-6.952,17.679-9.919,10.578-1.317,4.1,7.844a160.822,160.822,0,0,1-12.311,15.37Z" transform="translate(-66.612 -108.654)" fill="#ffa400"/>
      <path id="Path_283" data-name="Path 283" d="M89.132,155.856q2.251,2.609,4.376,5.335c.7.892,1.409,1.775,2.084,2.684s1.342,1.925,2.05,2.859c.05.067-.05.15-.1.083-.717-.834-1.484-1.667-2.2-2.584s-1.45-1.834-2.167-2.751c-1.417-1.817-2.792-3.676-4.118-5.56C89.007,155.873,89.09,155.806,89.132,155.856Z" transform="translate(-67.154 -110.727)" fill="#263238"/>
      <path id="Path_284" data-name="Path 284" d="M97.127,170.718c1.45-1.925,3.159-3.643,4.726-5.468s3.126-3.709,4.618-5.61c0,0,.108,0,.075.05-.692.992-1.367,1.992-2.092,2.959-.358.475-.734.942-1.117,1.409l.558-.458a21.374,21.374,0,0,1,1.775-1.2s.067,0,0,.05A20.14,20.14,0,0,1,104,163.833c-.417.317-.834.608-1.275.9l-.667.834a39.646,39.646,0,0,1-4.843,5.21A.055.055,0,1,1,97.127,170.718Z" transform="translate(-68.497 -111.36)" fill="#263238"/>
      <path id="Path_285" data-name="Path 285" d="M87.793,216.84c2.226-1.509-.834-3.276-.834-3.276s5,1.484,6.668-.959-2.134-4.359-2.4-4.509c.267.083,4.9,1.317,6.352-1.309S94.962,202.7,94.7,202.62c.275,0,3.884-.158,4.534-2.409,1.109-3.859-9.261-4.309-11.494-6.668,0,0,1-5.1,1.084-5.243a5.835,5.835,0,0,1-2.951,2.5c-2.242.633-4.259,1-5.168,2.075a2.951,2.951,0,0,0-.333,3.5s-2.834-.325-4.043,1.709c-.617,1.042.508,2.967.508,2.967a3.509,3.509,0,0,0-3.242,1.667c-.775,1.5.475,3.192.475,3.192s-2.267.834-2.559,2.634C70.948,212.156,83.026,220.058,87.793,216.84Z" transform="translate(-64.232 -116.131)" fill="#ad6359"/>
      <path id="Path_286" data-name="Path 286" d="M74.807,209.8s-.092,0-.058.058a25.006,25.006,0,0,0,12.92,7.4c.158,0,.275-.217.108-.283a51.262,51.262,0,0,1-12.97-7.177Z" transform="translate(-64.773 -119.71)" fill="#263238"/>
      <path id="Path_287" data-name="Path 287" d="M77.843,203.558a.053.053,0,1,0-.067.083,23.472,23.472,0,0,0,14.6,7.193c.192,0,.383-.167.158-.2C88.8,210.068,81.51,206.425,77.843,203.558Z" transform="translate(-65.275 -118.669)" fill="#263238"/>
      <path id="Path_288" data-name="Path 288" d="M96.936,204.138c-5.435-.617-10.127-2.917-14.6-5.968-.058,0-.108.042-.075.092,1.784,2.092,4.843,3.743,7.335,4.826a14.37,14.37,0,0,0,7.318,1.242A.1.1,0,0,0,96.936,204.138Z" transform="translate(-66.023 -117.774)" fill="#263238"/>
      <path id="Path_289" data-name="Path 289" d="M74.248,206a3.476,3.476,0,0,1-.834-3.543,2.634,2.634,0,0,1,1.292-1.3,4.434,4.434,0,0,1,2.126-.192,3.4,3.4,0,0,1-.058-3.851,2.6,2.6,0,0,1,1.667-.875,8.244,8.244,0,0,1,2.209.083,3.017,3.017,0,0,1-.642-2.626,3.284,3.284,0,0,1,2-2.192,15.838,15.838,0,0,1,3.509-.834,7.827,7.827,0,0,0,1.792-.492,3.384,3.384,0,0,0,1.492-1.334c.067-.1.067,0,0,.092a4.1,4.1,0,0,1-.884,1.05,5.309,5.309,0,0,1-1.209.792,22.834,22.834,0,0,1-3.334.975,4.668,4.668,0,0,0-2.5,1.667,2.8,2.8,0,0,0-.1,2.934s0,.108-.075.1a8.178,8.178,0,0,0-1.975.233,2.667,2.667,0,0,0-1.384.834,3.584,3.584,0,0,0-.167,3.568,5.835,5.835,0,0,0-2.075.533,2.626,2.626,0,0,0-.984,1.084,3.092,3.092,0,0,0,.325,3.226.092.092,0,0,1,0,.042h0s-.725.3-.759.3h0A5.126,5.126,0,0,1,74.248,206Z" transform="translate(-64.523 -116.214)" fill="#263238"/>
      <path id="Path_290" data-name="Path 290" d="M121.971,149.058c-2.651.975-7.835-2.634-10.094-5.785-.15-.217-.3-9.594-.517-11.444-.05-.383,11.978,1.434,11.978,1.434a29.749,29.749,0,0,0-.267,7.252C123.1,140.782,124.53,148.125,121.971,149.058Z" transform="translate(-70.869 -106.721)" fill="#ad6359"/>
      <path id="Path_291" data-name="Path 291" d="M123.338,133.263s-.133.775-.242,1.925c-3.334,4.093-8.685,4.526-11.4,4.434-.092-2.909-.2-6.668-.333-7.794C111.31,131.455,123.338,133.263,123.338,133.263Z" transform="translate(-70.869 -106.722)" fill="#263238"/>
      <path id="Path_292" data-name="Path 292" d="M110.43,107.87s-3.834,1.484-4.618,5.318,0,7.9.317,8.11S110.43,107.87,110.43,107.87Z" transform="translate(-69.889 -102.742)" fill="#263238"/>
      <path id="Path_293" data-name="Path 293" d="M125.885,112.332c.984,4.226-2,16.054-5.135,18.521-4.534,3.584-11.569,3.484-14.52-1.875-2.851-5.193,1.317-20.53,4.776-22.739C116.091,103,124.41,106.081,125.885,112.332Z" transform="translate(-69.857 -102.253)" fill="#ad6359"/>
      <path id="Path_294" data-name="Path 294" d="M115.69,121.78s.058.05.05.083c-.167.834-.225,1.775.475,2.176v.042C115.315,123.8,115.4,122.522,115.69,121.78Z" transform="translate(-71.556 -105.057)" fill="#263238"/>
      <path id="Path_295" data-name="Path 295" d="M116.576,120.9c1.342.125.984,2.792-.25,2.676S115.459,120.791,116.576,120.9Z" transform="translate(-71.567 -104.91)" fill="#263238"/>
      <path id="Path_296" data-name="Path 296" d="M109.919,120.79a.076.076,0,0,0-.075.067c-.075.834-.3,1.759-1.084,1.942v.05C109.694,122.832,109.977,121.582,109.919,120.79Z" transform="translate(-70.436 -104.893)" fill="#263238"/>
      <path id="Path_297" data-name="Path 297" d="M109.149,119.636c-1.317-.267-1.759,2.384-.533,2.634S110.25,119.861,109.149,119.636Z" transform="translate(-70.292 -104.697)" fill="#263238"/>
      <path id="Path_298" data-name="Path 298" d="M115.187,130.047c-.217.175-.442.425-.742.425a2.208,2.208,0,0,1-.875-.283,1.1,1.1,0,0,0,1.009.542.834.834,0,0,0,.717-.675S115.22,130.005,115.187,130.047Z" transform="translate(-71.237 -106.431)" fill="#263238"/>
      <path id="Path_299" data-name="Path 299" d="M110.6,123.89s-.35,1.2-.433,1.784a11.9,11.9,0,0,1,3.276.975c.242.117.275-.092,0-.308a5,5,0,0,0-2.717-1.1c0-.167.575-1.842.483-1.867a4.893,4.893,0,0,0-1.342.108c.65-2.5,1.667-4.935,2.317-7.5,0-.092-.108-.142-.15-.067a42.911,42.911,0,0,0-2.834,7.935C109.09,124.215,110.349,123.956,110.6,123.89Z" transform="translate(-70.508 -104.075)" fill="#263238"/>
      <path id="Path_300" data-name="Path 300" d="M117.683,119.375a7.488,7.488,0,0,1-.834-.667,1.908,1.908,0,0,1-.742-.834.542.542,0,0,1,.3-.608,1.367,1.367,0,0,1,1.367.308,2,2,0,0,1,.834,1.209.592.592,0,0,1-.925.592Z" transform="translate(-71.657 -104.295)" fill="#263238"/>
      <path id="Path_301" data-name="Path 301" d="M108.57,115.77c.367-.058.7-.158,1.059-.25a1.734,1.734,0,0,0,1.034-.458.567.567,0,0,0,0-.683,1.392,1.392,0,0,0-1.375-.292,2.042,2.042,0,0,0-1.267.75.6.6,0,0,0,.55.934Z" transform="translate(-70.296 -103.765)" fill="#263238"/>
      <path id="Path_302" data-name="Path 302" d="M124.095,121.9c-2.451-.242-1.117-11.053-1.117-11.053a15.687,15.687,0,0,1-4.693.834,21.264,21.264,0,0,1-4.776-.717c-.333-.125,4.093-1.375,4.093-1.375s-10.886.95-11.253-1.1c-.133-.709,1.892-7.16,10.928-6.752,6.668.3,9.777,7.268,9.777,7.268s3.242,3.609,2.684,5.243C128.787,117.115,126.7,122.158,124.095,121.9Z" transform="translate(-70.034 -101.718)" fill="#263238"/>
      <path id="Path_303" data-name="Path 303" d="M125.665,125.457s3.042-3.634,4.718-2.5-.834,6.543-2.984,7.135a2.109,2.109,0,0,1-2.709-1.375Z" transform="translate(-73.088 -105.217)" fill="#ad6359"/>
      <path id="Path_304" data-name="Path 304" d="M129.84,124.82v.058a5.3,5.3,0,0,0-3.026,3.067,1.167,1.167,0,0,1,1.759-.167.05.05,0,0,1-.05.075,1.309,1.309,0,0,0-1.459.325,6.309,6.309,0,0,0-.775,1.092c-.083.125-.308,0-.242-.108h0C126.189,127.279,127.848,124.828,129.84,124.82Z" transform="translate(-73.312 -105.563)" fill="#263238"/>
      <path id="Path_305" data-name="Path 305" d="M170.108,177.1c6.768-5.226.3-31.758-3.634-41.527-1.159-2.876-19.538,2.5-18.679,5.726C152.7,159.549,162.7,182.829,170.108,177.1Z" transform="translate(-76.929 -107.218)" fill="#ad6359"/>
      <path id="Path_306" data-name="Path 306" d="M151.45,154.62l2.025,5c.692,1.667,1.367,3.334,2.117,5s1.475,3.276,2.242,4.9,1.617,3.217,2.451,4.818a42.811,42.811,0,0,1-2.876-4.593c-.834-1.592-1.667-3.226-2.392-4.876s-1.392-3.334-1.992-5.051S151.908,156.379,151.45,154.62Z" transform="translate(-77.543 -110.524)" fill="#263238"/>
    </g>
    <g id="freepik--speech-bubble--inject-7" transform="translate(115.407 35.177)">
      <path id="Path_307" data-name="Path 307" d="M148.1,90.481a4.759,4.759,0,1,1-1.681-3.237,4.759,4.759,0,0,1,1.681,3.237Z" transform="translate(-132.041 -43.659)" fill="#fff"/>
      <path id="Path_308" data-name="Path 308" d="M147.942,90.442a5.217,5.217,0,1,1-5.151-4.543A5,5,0,0,1,147.942,90.442Zm0,0a4.559,4.559,0,1,0-1.117,3.406,4.559,4.559,0,0,0,1.117-3.406Z" transform="translate(-131.881 -43.621)" fill="#263238"/>
      <path id="Path_309" data-name="Path 309" d="M136.523,101.4a2.642,2.642,0,1,1-.93-1.806,2.651,2.651,0,0,1,.93,1.806Z" transform="translate(-130.815 -45.797)" fill="#fff"/>
      <path id="Path_310" data-name="Path 310" d="M136.44,101.356a2.859,2.859,0,1,1-2.884-2.626,2.859,2.859,0,0,1,2.884,2.626Zm0,0A2.451,2.451,0,1,0,134.273,104a2.442,2.442,0,0,0,2.167-2.642Z" transform="translate(-130.731 -45.757)" fill="#263238"/>
      <path id="Path_311" data-name="Path 311" d="M182.441,59.9a13.912,13.912,0,0,1-12.12,15.479,13.762,13.762,0,0,1-7.085-.992,11.669,11.669,0,0,1-18.546,0,9.678,9.678,0,0,1-1.567.325,9.452,9.452,0,0,1-8.877-14.82A13.9,13.9,0,0,1,152.959,39.78a11.669,11.669,0,0,1,20,3.176,7.276,7.276,0,0,1,1.5-.333A7.635,7.635,0,0,1,181.058,55.3,13.694,13.694,0,0,1,182.441,59.9Z" transform="translate(-130.822 -35.218)" fill="#fff"/>
      <path id="Path_312" data-name="Path 312" d="M182.356,59.86a14.112,14.112,0,0,1-2.826,10.261,14.629,14.629,0,0,1-2.584,2.542,14.078,14.078,0,0,1-13.837,1.8h.133a11.811,11.811,0,0,1-9.377,4.7,11.936,11.936,0,0,1-5.276-1.209,12.261,12.261,0,0,1-4.209-3.434l.3.1a9.811,9.811,0,0,1-5.935-.083,9.711,9.711,0,0,1-4.809-3.509,10.536,10.536,0,0,1-1.375-2.692,10.127,10.127,0,0,1-.492-2.984,9.852,9.852,0,0,1,1.767-5.718V60.1a14.214,14.214,0,0,1,19.171-20.58l-.367.05A11.873,11.873,0,0,1,172.987,42.9l-.108-.058a7.768,7.768,0,0,1,5,.067,7.66,7.66,0,0,1,3.092,12.361h0A13.612,13.612,0,0,1,182.356,59.86Zm0,0a13.637,13.637,0,0,0-1.417-4.593h0a7.579,7.579,0,0,0-8.01-12.286h-.083V42.9a11.669,11.669,0,0,0-3.542-4.834,11.428,11.428,0,0,0-5.485-2.4,11.586,11.586,0,0,0-5.926.667,11.419,11.419,0,0,0-4.759,3.551l-.158.2-.217-.15a13.578,13.578,0,0,0-18.246,19.638l.183.233-.175.242a9.06,9.06,0,0,0-1.667,5.26,9.694,9.694,0,0,0,.442,2.759,9.394,9.394,0,0,0,1.259,2.5,9.169,9.169,0,0,0,10,3.476l.192-.05.108.15a11.669,11.669,0,0,0,3.984,3.334,11.478,11.478,0,0,0,14.253-3.2l.058-.075h.083a13.728,13.728,0,0,0,7.06,1.034,14.012,14.012,0,0,0,6.668-2.676,14.486,14.486,0,0,0,2.584-2.5,14.687,14.687,0,0,0,1.842-3.117,14.078,14.078,0,0,0,.967-7.077Z" transform="translate(-130.736 -35.177)" fill="#263238"/>
      <path id="Path_313" data-name="Path 313" d="M163.566,62.039a7.777,7.777,0,0,1,.533-2.967,4.893,4.893,0,0,1,2.226-2.292c.342-.208.75-.433,1.25-.692a10,10,0,0,0,1.442-.925,5.4,5.4,0,0,0,1.2-1.267,2.926,2.926,0,0,0,.492-1.667,2.734,2.734,0,0,0-.275-1.25,2.817,2.817,0,0,0-.709-.909,2.893,2.893,0,0,0-1.025-.55,3.918,3.918,0,0,0-1.192-.192,3.334,3.334,0,0,0-1.35.258,4.684,4.684,0,0,0-1.092.633,5.16,5.16,0,0,0-.834.884,8.836,8.836,0,0,0-.658.925L160.64,50a6.668,6.668,0,0,1,1.167-1.85,6.877,6.877,0,0,1,1.634-1.375,7.885,7.885,0,0,1,2-.834,8.577,8.577,0,0,1,2.226-.283,9.027,9.027,0,0,1,2.5.367,6.518,6.518,0,0,1,2.242,1.184,6.1,6.1,0,0,1,1.617,2.067,6.86,6.86,0,0,1,.617,3.017,6.56,6.56,0,0,1-.25,1.9,5.218,5.218,0,0,1-.725,1.5,6.393,6.393,0,0,1-1.109,1.217,12.026,12.026,0,0,1-1.45,1.042l-1.35.775a8.276,8.276,0,0,0-1.225.834,3.842,3.842,0,0,0-.925,1.042,2.692,2.692,0,0,0-.358,1.434Zm.067,7.852V65.24h3.734v4.651Z" transform="translate(-135.71 -36.922)" fill="#ffa400"/>
      <path id="Path_314" data-name="Path 314" d="M152.35,53.338a7.5,7.5,0,0,1,.083,3.009,4.86,4.86,0,0,1-1.667,2.7c-.292.267-.65.575-1.084.934a10.359,10.359,0,0,0-1.225,1.2,5.343,5.343,0,0,0-.909,1.484,2.909,2.909,0,0,0-.133,1.734,2.642,2.642,0,0,0,.517,1.159,2.809,2.809,0,0,0,.884.75,2.909,2.909,0,0,0,1.117.333,4.168,4.168,0,0,0,1.209-.067,3.393,3.393,0,0,0,1.267-.525,4.859,4.859,0,0,0,.942-.834,5.076,5.076,0,0,0,.675-1.042,9.6,9.6,0,0,0,.45-1.042l3.284,1.384a6.451,6.451,0,0,1-.759,2.05,6.985,6.985,0,0,1-1.334,1.667,7.9,7.9,0,0,1-1.784,1.234,8.493,8.493,0,0,1-2.117.734,8.694,8.694,0,0,1-2.551.158,6.3,6.3,0,0,1-2.434-.692A6.21,6.21,0,0,1,144.773,68a7.452,7.452,0,0,1-1.375-4.743,5.184,5.184,0,0,1,.4-1.609,6.235,6.235,0,0,1,.834-1.417,12.328,12.328,0,0,1,1.2-1.325c.383-.35.775-.7,1.159-1.034A7.719,7.719,0,0,0,148,56.781a4.034,4.034,0,0,0,.675-1.209,2.726,2.726,0,0,0,.05-1.475Zm-1.667-7.668.959,4.551-3.659.767-.959-4.551Z" transform="translate(-132.838 -36.924)" fill="#ffa400"/>
    </g>
  </g>
</svg>
