<?xml version="1.0"?>
<svg xmlns="http://www.w3.org/2000/svg" xmlns:xlink="http://www.w3.org/1999/xlink" xmlns:svgjs="http://svgjs.com/svgjs" version="1.1" width="512" height="512" x="0" y="0" viewBox="0 0 512 512" style="enable-background:new 0 0 512 512" xml:space="preserve" class=""><g><g xmlns="http://www.w3.org/2000/svg"><path d="m436 0h-360c-8.284 0-15 6.716-15 15v482c0 8.284 6.716 15 15 15h360c8.284 0 15-6.716 15-15v-482c0-8.284-6.716-15-15-15zm-15 482h-330v-452h330z" fill="#ffffff" data-original="#000000" style="" class=""/><path d="m186 200c14.106 0 27.24-4.208 38.242-11.414l6.576 6.576c5.858 5.858 15.355 5.858 21.213 0s5.858-15.355 0-21.213l-6.766-6.766c6.79-10.782 10.735-23.527 10.735-37.183 0-38.599-31.401-70-70-70s-70 31.401-70 70 31.401 70 70 70zm0-110c22.056 0 40 17.944 40 40 0 5.3-1.045 10.358-2.926 14.992l-6.233-6.233c-5.858-5.858-15.355-5.858-21.213 0s-5.858 15.355 0 21.213l6.583 6.583c-4.959 2.207-10.442 3.445-16.211 3.445-22.056 0-40-17.944-40-40s17.944-40 40-40z" fill="#ffffff" data-original="#000000" style="" class=""/><path d="m376 230h-160c-8.284 0-15 6.716-15 15s6.716 15 15 15h160c8.284 0 15-6.716 15-15s-6.716-15-15-15z" fill="#ffffff" data-original="#000000" style="" class=""/><path d="m376 290h-160c-8.284 0-15 6.716-15 15s6.716 15 15 15h160c8.284 0 15-6.716 15-15s-6.716-15-15-15z" fill="#ffffff" data-original="#000000" style="" class=""/><path d="m376 350h-160c-8.284 0-15 6.716-15 15s6.716 15 15 15h160c8.284 0 15-6.716 15-15s-6.716-15-15-15z" fill="#ffffff" data-original="#000000" style="" class=""/><path d="m156 230h-20c-8.284 0-15 6.716-15 15s6.716 15 15 15h20c8.284 0 15-6.716 15-15s-6.716-15-15-15z" fill="#ffffff" data-original="#000000" style="" class=""/><path d="m156 290h-20c-8.284 0-15 6.716-15 15s6.716 15 15 15h20c8.284 0 15-6.716 15-15s-6.716-15-15-15z" fill="#ffffff" data-original="#000000" style="" class=""/><path d="m156 350h-20c-8.284 0-15 6.716-15 15s6.716 15 15 15h20c8.284 0 15-6.716 15-15s-6.716-15-15-15z" fill="#ffffff" data-original="#000000" style="" class=""/><path d="m376 410h-160c-8.284 0-15 6.716-15 15s6.716 15 15 15h160c8.284 0 15-6.716 15-15s-6.716-15-15-15z" fill="#ffffff" data-original="#000000" style="" class=""/><path d="m156 410h-20c-8.284 0-15 6.716-15 15s6.716 15 15 15h20c8.284 0 15-6.716 15-15s-6.716-15-15-15z" fill="#ffffff" data-original="#000000" style="" class=""/><path d="m288.813 199.018c7.742 2.948 16.408-.937 19.356-8.679l6.607-17.349h45.658l6.531 17.306c2.925 7.751 11.58 11.663 19.33 8.738 7.75-2.925 11.662-11.579 8.737-19.33l-40.928-108.455c-.052-.137-.104-.271-.16-.406-2.708-6.588-9.056-10.843-16.178-10.843-.004 0-.008 0-.012 0-7.128.005-13.479 4.271-16.179 10.867-.047.114-.092.229-.136.344l-41.305 108.45c-2.948 7.742.938 16.408 8.679 19.357zm48.898-86.242 11.403 30.214h-22.91z" fill="#ffffff" data-original="#000000" style="" class=""/></g></g></svg>
