<?xml version="1.0"?>
<svg xmlns="http://www.w3.org/2000/svg" xmlns:xlink="http://www.w3.org/1999/xlink" xmlns:svgjs="http://svgjs.com/svgjs" version="1.1" width="512" height="512" x="0" y="0" viewBox="0 0 24 24" style="enable-background:new 0 0 512 512" xml:space="preserve"><g><g xmlns="http://www.w3.org/2000/svg"><path d="m6.75 14c-.192 0-.384-.073-.53-.22-.293-.293-.293-.768 0-1.061l3.75-3.75c.293-.293.768-.293 1.061 0l1.97 1.97 3.72-3.72c.293-.293.768-.293 1.061 0s.293.768 0 1.061l-4.25 4.25c-.293.293-.768.293-1.061 0l-1.97-1.97-3.22 3.22c-.147.147-.339.22-.531.22z" fill="#ffffff" data-original="#000000" style=""/></g><g xmlns="http://www.w3.org/2000/svg"><path d="m22.25 4.5h-20.5c-.965 0-1.75-.785-1.75-1.75v-1c0-.965.785-1.75 1.75-1.75h20.5c.965 0 1.75.785 1.75 1.75v1c0 .965-.785 1.75-1.75 1.75zm-20.5-3c-.138 0-.25.112-.25.25v1c0 .138.112.25.25.25h20.5c.138 0 .25-.112.25-.25v-1c0-.138-.112-.25-.25-.25z" fill="#ffffff" data-original="#000000" style=""/></g><g xmlns="http://www.w3.org/2000/svg"><path d="m22.25 18h-20.5c-.414 0-.75-.336-.75-.75s.336-.75.75-.75h20.5c.414 0 .75.336.75.75s-.336.75-.75.75z" fill="#ffffff" data-original="#000000" style=""/></g><g xmlns="http://www.w3.org/2000/svg"><path d="m12 24c-.414 0-.75-.336-.75-.75v-5.75c0-.414.336-.75.75-.75s.75.336.75.75v5.75c0 .414-.336.75-.75.75z" fill="#ffffff" data-original="#000000" style=""/></g><g xmlns="http://www.w3.org/2000/svg"><path d="m16.25 24c-.229 0-.457-.105-.604-.304l-3.646-4.934-3.647 4.934c-.246.334-.716.403-1.049.157s-.403-.716-.157-1.049l4.25-5.75c.282-.383.924-.383 1.206 0l4.25 5.75c.246.333.176.803-.157 1.049-.134.099-.291.147-.446.147z" fill="#ffffff" data-original="#000000" style=""/></g><g xmlns="http://www.w3.org/2000/svg"><path d="m21.25 18c-.414 0-.75-.336-.75-.75v-13.5c0-.414.336-.75.75-.75s.75.336.75.75v13.5c0 .414-.336.75-.75.75z" fill="#ffffff" data-original="#000000" style=""/></g><g xmlns="http://www.w3.org/2000/svg"><path d="m2.75 18c-.414 0-.75-.336-.75-.75v-13.5c0-.414.336-.75.75-.75s.75.336.75.75v13.5c0 .414-.336.75-.75.75z" fill="#ffffff" data-original="#000000" style=""/></g></g></svg>
