<?xml version="1.0"?>
<svg xmlns="http://www.w3.org/2000/svg" xmlns:xlink="http://www.w3.org/1999/xlink" xmlns:svgjs="http://svgjs.com/svgjs" version="1.1" width="512" height="512" x="0" y="0" viewBox="0 0 510 510" style="enable-background:new 0 0 512 512" xml:space="preserve" class=""><g><g xmlns="http://www.w3.org/2000/svg" id="XMLID_174_"><path id="XMLID_466_" d="m330 225v-60c-3.782-99.386-146.254-99.311-150 0v60h-180v270h510v-270zm-120-30h30v-30h-30c2.269-59.632 87.753-59.587 90 0h-30v30h30v30h-90zm270 270h-450v-210h450z" fill="#ffffff" data-original="#000000" style="" class=""/><path id="XMLID_484_" d="m150 405h-60v-120h-30v150h90z" fill="#ffffff" data-original="#000000" style="" class=""/><path id="XMLID_485_" d="m180 285h30v150h-30z" fill="#ffffff" data-original="#000000" style="" class=""/><path id="XMLID_486_" d="m326.953 435 32.668-142.651-29.242-6.698-27.332 119.349h-6.094l-27.332-119.349-29.242 6.698 32.668 142.651z" fill="#ffffff" data-original="#000000" style="" class=""/><path id="XMLID_487_" d="m450 405h-30v-30h30v-30h-30v-30h30v-30h-60v150h60z" fill="#ffffff" data-original="#000000" style="" class=""/><path id="XMLID_488_" d="m240 15h30v45h-30z" fill="#ffffff" data-original="#000000" style="" class=""/><path id="XMLID_489_" d="m323.181 55.077h45.001v30.001h-45.001z" transform="matrix(.636 -.771 .771 .636 71.645 292.137)" fill="#ffffff" data-original="#000000" style="" class=""/><path id="XMLID_490_" d="m149.318 47.577h30.001v45.001h-30.001z" transform="matrix(.771 -.636 .636 .771 -7.03 120.587)" fill="#ffffff" data-original="#000000" style="" class=""/></g></g></svg>
