<?xml version="1.0"?>
<svg xmlns="http://www.w3.org/2000/svg" xmlns:xlink="http://www.w3.org/1999/xlink" xmlns:svgjs="http://svgjs.com/svgjs" version="1.1" width="512" height="512" x="0" y="0" viewBox="0 0 512 512" style="enable-background:new 0 0 512 512" xml:space="preserve" class=""><g><g xmlns="http://www.w3.org/2000/svg"><path d="m512 310.309v-310.309h-269.919v157.22h-101.266c29.807-5.165 52.553-31.196 52.553-62.456 0-34.961-28.443-63.404-63.404-63.404s-63.405 28.443-63.405 63.404c0 31.26 22.746 57.292 52.553 62.456h-43.622c-41.763 0-75.49 33.977-75.49 75.739v140.27h59.751v138.771h151.478v-263.301h30.853v61.61h120.083v171.671h-59.629v30.02h144v-30.02h-54.371v-171.671zm-415.441-215.545c0-18.419 14.985-33.404 33.404-33.404s33.404 14.985 33.404 33.404-14.985 33.404-33.404 33.404-33.404-14.985-33.404-33.404zm-6.067 386.196v-230.451h-30v91.241h-29.264v-108.791c0-24.405 19.855-44.261 44.261-44.261h235.071v28.521h-130.81v263.74h-29.255v-110.96h-30v110.961zm181.307-232.261h70.24v-71.646l100.26-94.436-20.57-21.838-102.389 96.441h-47.541v-127.94h210.731v251.31h-210.731z" fill="#ffffff" data-original="#000000" style="" class=""/></g></g></svg>
